<?xml version="1.0" encoding="UTF-8"?>
<svg id="Layer_1" xmlns="http://www.w3.org/2000/svg" version="1.1" xmlns:xlink="http://www.w3.org/1999/xlink" viewBox="0 0 1366 768">
  <!-- Generator: Adobe Illustrator 29.1.0, SVG Export Plug-In . SVG Version: 2.1.0 Build 142)  -->
  <defs>
    <style>
      .st0, .st1, .st2, .st3, .st4, .st5, .st6, .st7, .st8, .st9, .st10, .st11, .st12, .st13, .st14, .st15, .st16, .st17, .st18 {
        stroke: #000;
      }

      .st0, .st2, .st3, .st6, .st8, .st10, .st11, .st15, .st16, .st18 {
        stroke-width: 1.1px;
      }

      .st0, .st2, .st4, .st6, .st7, .st8, .st9, .st11, .st13, .st15, .st16, .st18 {
        fill-rule: evenodd;
      }

      .st0, .st2, .st8, .st13, .st16 {
        stroke-linejoin: bevel;
      }

      .st1, .st5, .st12, .st14, .st17 {
        stroke-miterlimit: 10;
      }

      .st1, .st17 {
        fill: none;
      }

      .st2 {
        fill: url(#linear-gradient2);
      }

      .st19 {
        fill: #56c3fe;
      }

      .st3 {
        fill: url(#radial-gradient);
      }

      .st3, .st6, .st11, .st15, .st18 {
        stroke-linejoin: round;
      }

      .st4 {
        fill: #ffe13f;
      }

      .st4, .st7, .st9, .st12, .st13, .st14 {
        stroke-width: 6px;
      }

      .st5 {
        stroke-width: 2px;
      }

      .st6 {
        fill: #00e983;
      }

      .st7 {
        fill: url(#linear-gradient6);
      }

      .st8 {
        fill: url(#linear-gradient1);
      }

      .st9 {
        fill: #fff35f;
      }

      .st20 {
        fill: #feba09;
      }

      .st21 {
        fill: #eaf5fe;
      }

      .st10 {
        fill: url(#linear-gradient5);
      }

      .st12 {
        fill: url(#linear-gradient);
      }

      .st22 {
        fill: #1a98f8;
      }

      .st23, .st24 {
        display: none;
      }

      .st25 {
        fill: #a4d5fe;
      }

      .st26 {
        fill: #fefae1;
      }

      .st13 {
        fill: #ffe14d;
      }

      .st14 {
        fill: #fff;
      }

      .st27 {
        fill: #38a0fb;
      }

      .st15 {
        fill: #00bf66;
      }

      .st16 {
        fill: url(#linear-gradient3);
      }

      .st24, .st28 {
        fill: #fdbf09;
      }

      .st17 {
        stroke-width: 5px;
      }

      .st29 {
        fill: #fdbe0a;
      }

      .st30 {
        fill: #fed224;
      }

      .st18 {
        fill: url(#linear-gradient4);
      }
    </style>
    <linearGradient id="linear-gradient" x1="663" y1="117.1" x2="978.2" y2="487.9" gradientUnits="userSpaceOnUse">
      <stop offset="0" stop-color="#feffe9"/>
      <stop offset="0" stop-color="#fdfbd9"/>
      <stop offset="0" stop-color="#fdf2ae"/>
      <stop offset=".2" stop-color="#fde988"/>
      <stop offset=".2" stop-color="#fde268"/>
      <stop offset=".3" stop-color="#fddc4e"/>
      <stop offset=".4" stop-color="#fdd83a"/>
      <stop offset=".5" stop-color="#fdd52c"/>
      <stop offset=".6" stop-color="#fdd324"/>
      <stop offset=".8" stop-color="#fdd322"/>
    </linearGradient>
    <linearGradient id="linear-gradient1" x1="605.9" y1="1109.4" x2="716.2" y2="1025" gradientTransform="translate(0 -562)" gradientUnits="userSpaceOnUse">
      <stop offset="0" stop-color="#00bf66"/>
      <stop offset="1" stop-color="#00e983"/>
    </linearGradient>
    <linearGradient id="linear-gradient2" x1="602.4" y1="1096.7" x2="712.7" y2="1012.2" gradientTransform="translate(0 -562)" gradientUnits="userSpaceOnUse">
      <stop offset="0" stop-color="#00bf66"/>
      <stop offset="1" stop-color="#00e983"/>
    </linearGradient>
    <linearGradient id="linear-gradient3" x1="599.4" y1="1083.2" x2="709.5" y2="998.9" gradientTransform="translate(0 -562)" gradientUnits="userSpaceOnUse">
      <stop offset="0" stop-color="#00bf66"/>
      <stop offset="1" stop-color="#00e983"/>
    </linearGradient>
    <linearGradient id="linear-gradient4" x1="518.1" y1="497.9" x2="720.5" y2="497.9" gradientUnits="userSpaceOnUse">
      <stop offset="0" stop-color="#00bf66"/>
      <stop offset="1" stop-color="#00e983"/>
    </linearGradient>
    <radialGradient id="radial-gradient" cx="616.9" cy="272.6" fx="602.1" fy="318.8" r="48.5" gradientTransform="translate(0 770) scale(1 -1)" gradientUnits="userSpaceOnUse">
      <stop offset="0" stop-color="#fff"/>
      <stop offset="1" stop-color="#fff"/>
    </radialGradient>
    <linearGradient id="linear-gradient5" x1="597.5" y1="213.5" x2="604.5" y2="157.4" gradientTransform="translate(0 770) scale(1 -1)" gradientUnits="userSpaceOnUse">
      <stop offset="0" stop-color="#fff"/>
      <stop offset="1" stop-color="#fff"/>
    </linearGradient>
    <linearGradient id="linear-gradient6" x1="798.1" y1="503.8" x2="920.4" y2="503.8" gradientUnits="userSpaceOnUse">
      <stop offset="0" stop-color="#fff"/>
      <stop offset=".2" stop-color="#fef2c2"/>
      <stop offset=".3" stop-color="#fde789"/>
      <stop offset=".5" stop-color="#fdde5c"/>
      <stop offset=".7" stop-color="#fdd83c"/>
      <stop offset=".8" stop-color="#fdd429"/>
      <stop offset=".9" stop-color="#fdd322"/>
    </linearGradient>
  </defs>
  <g>
    <path d="M566.3,249.4c27.9,5.5,58.3,11,86,16.8,1.3,9.1,2.7,18.2,4.2,27.4s2.9,18.3,4.5,27.3c-7,25.5-15.6,56-23.5,81.2-6.2,25-9.1,22.6-31.8,15-22.1-7.2-50.1-13.6-70.8-22.3-16.5-9.9-38.6-17.7-52.9-29.1,2-17,9.2-33.9,12.9-50.9,2.7-7.4,3.7-22.7,9.9-25.8,13.6-9.5,26.9-19.2,40.5-28.6,6.9-3.6,12.6-12.3,21.1-10.9h-.1Z"/>
    <path class="st25" d="M567.9,253.7c.5.1,1.1.2,1.6.4.3,0,.6.1.9.2,1.6.3,3.3.7,4.9,1,.2,0,.4,0,.6.1,2.7.5,5.4,1,8.2,1.6,1.3.2,2.6.5,3.9.7h.5c6.8,1.3,13.6,2.6,20.4,4,.8.2,1.6.3,2.4.5.5.1,1.1.2,1.6.3,2.1.4,4.2.8,6.4,1.2,1.1.2,2.3.4,3.4.6.4,0,.8.2,1.3.2s.4,0,.6.1c4.3.9,8.7,1.7,13,2.5,1.9.3,3.8.7,5.7,1,.9.2,1.8.3,2.7.5l1.5.3v.5c-.3.2-.6.4-.9.7-.2.1-.4.3-.6.4-.2.1-.4.3-.7.4-1.6,1-3.1,2.1-4.6,3.2-1.6,1.2-3.3,2.3-4.9,3.5-1.4,1-2.8,1.9-4.2,2.9-1.8,1.3-3.6,2.5-5.4,3.8-1.3.9-2.6,1.8-4,2.7-.2.1-.4.2-.5.4-.2.1-.4.3-.5.4-1.2.9-2.5,1.7-3.7,2.6-.2.2-.4.3-.7.5-1.3.9-2.6,1.8-4,2.7-1.5,1-2.9,2-4.3,3.1-1.6,1.2-3.2,2.3-4.8,3.4-1.4.9-2.7,1.9-4.1,2.8-.2.2-.4.3-.7.5-.4.3-.9.6-1.3.9-1.1.8-2.1,1.5-3.2,2.2-1.3.9-2.5,1.8-3.8,2.7-2.5,1.8-5,3.5-7.5,5.3-2.2,1.5-4.5,3.1-6.7,4.7-1.3.9-2.5,1.8-3.8,2.7-1.1.7-2.1,1.5-3.2,2.2-2.3,1.6-4.6,3.2-6.8,4.8-1.9,1.3-3.8,2.6-5.6,3.9-3.9,2.8-7.9,5.5-11.8,8.3-.8.5-1.5,1.1-2.3,1.6-2.3,1.6-4.7,3.3-7.1,4.9-.1,0-.3.2-.4.3-.1.1-.3.2-.5.3s-.5.3-1,.8c-2.2,1.8-4.8,2.2-7.5,2.9-.5.1-1,.3-1.5.4-.7.2-1.5.4-2.2.6-2.3.6-4.6,1.3-6.9,1.9-.9.3-1.8.5-2.7.8-.2,0-.3,0-.5.1-8.9,2.6-17.9,5-26.8,7.4.3-1.9.7-3.7,1.3-5.5.7-2.5,1.4-5,2-7.5,1-3.9,2-7.7,3.1-11.6,0-.3.2-.6.2-.9s.2-.6.2-.9c.2-.6.3-1.1.5-1.7,0-.3.1-.6.2-.8.4-1.7.9-3.3,1.3-5,0-.2.1-.4.2-.6.2-.9.5-1.7.7-2.6.6-2.3,1.3-4.6,1.9-6.9.6-2.2,1.3-4.5,1.9-6.7,0-.2.1-.5.2-.7.8-3,1.7-6,2.5-9.1.1-.5.3-1,.4-1.6.4-1.4.8-2.8,1.1-4.2.1-.4.2-.8.3-1.2,0-.3.2-.6.2-.9.9-1.8,2.9-2.9,4.5-4,1.7-1.2,3.4-2.4,5-3.6,1.8-1.3,3.7-2.7,5.6-4,1.2-.9,2.5-1.7,3.7-2.6,3.1-2.2,6.2-4.4,9.3-6.6,2.8-2,5.7-4,8.5-6,1.2-.8,2.3-1.6,3.5-2.5,1.9-1.4,3.8-2.7,5.7-4.1,1-.7,1.9-1.4,2.9-2.1,0-.1.3-.2.4-.3.8-.6,1.6-1.1,2.4-1.7.2-.1.4-.3.6-.4.4-.3.7-.5,1.1-.8.8-.6,1.7-1.2,2.4-1.8.3-.2.5-.4.8-.6.2-.2.4-.4.6-.6,2-.9,4.5,0,6.6.4l.3.3h0Z"/>
    <path class="st22" d="M534.8,353.6c.7.4,1.3.9,2,1.3.2.1.4.3.6.4.6.4,1.2.9,1.8,1.3.6.4,1.1.8,1.7,1.2.4.3.8.5,1.1.8,1.4,1,2.9,2.1,4.3,3.1,1.8,1.3,3.7,2.6,5.5,3.9,1.3.9,2.6,1.9,3.9,2.8,1.3.9,2.6,1.8,3.9,2.7,0,.1.3.2.4.3.8.6,1.6,1.2,2.4,1.8,2,1.4,4,2.8,6,4.2,1.7,1.2,3.4,2.4,5,3.6,1.4,1.1,2.9,2.1,4.3,3.1,2.6,1.8,5.1,3.6,7.7,5.5,1.3.9,2.6,1.9,3.9,2.8,2.1,1.5,4.1,2.9,6.2,4.4,1,.7,2,1.4,2.9,2.1.2.1.4.3.6.4,1.1.8,2.3,1.7,3.4,2.5,2.9,2.1,5.8,4.1,8.7,6.3,1,.7,2,1.5,3,2.2,1.7,1.2,3.4,2.5,5.1,3.8.2.2.4.3.6.5.4.3.8.6,1.2.9s.8.6,1.2.9c.2.1.4.3.6.5.2.1.4.3.6.4.3.3.5.7.7,1.2-1.8-.5-3.7-1-5.5-1.6-.5-.2-1-.3-1.6-.5-.3,0-.5-.2-.8-.2-4.4-1.3-8.9-2.7-13.3-4-3-.9-6-1.8-9-2.7-2.4-.7-4.8-1.4-7.2-2.2-.4-.1-.8-.2-1.2-.4-.6-.2-1.2-.4-1.8-.5-4.1-1.2-8.1-2.4-12.2-3.7-.8-.2-1.5-.5-2.3-.7-.5-.2-1-.3-1.5-.5-3.5-1.1-7-2.1-10.5-3.1-1.8-.5-3.6-1.1-5.4-1.7-1.9-.6-3.8-1.2-5.6-1.8-5.3-1.6-10.1-4-15.1-6.6-.6-.3-1.3-.7-1.9-1-1.8-.9-3.5-1.9-5.3-2.8-.6-.3-1.2-.6-1.8-1-.1,0-.3-.2-.5-.2-2.6-1.4-5.2-2.8-7.9-4.1-2.1-1.1-4.1-2.1-6.1-3.3-2.9-1.6-5.8-3.1-8.8-4.6-.2,0-.4-.2-.5-.3-.2,0-.3-.2-.5-.3-1.4-.7-2.8-1.5-4.3-2.2-1.5-.8-3.1-1.6-4.6-2.4.6-.6,1-.7,1.8-.9.3,0,.5-.1.8-.2.3,0,.6-.1.9-.2.6-.2,1.2-.3,1.8-.5.3,0,.6-.2.9-.2,1.3-.3,2.5-.7,3.8-1.1,2.5-.7,5-1.5,7.5-2.2.2,0,.4-.1.6-.2,2.9-.8,5.7-1.6,8.6-2.4,3.3-.9,6.5-1.8,9.8-2.8.5-.1.9-.3,1.4-.4.7-.2,1.3-.4,2-.6.2,0,.4-.1.6-.2,1.2-.3,2.3-.7,3.5-1.1.7-.2,1.1-.2,1.8.1v.4h0Z"/>
    <path class="st21" d="M507.9,291.5c.5.2.9.5,1.1.8,2.7,7.4,5.9,14.5,8.8,21.8,4.7,11.6,9.3,23.1,14,34.7,0,.3.1.8.1,1.5-15.4,4.1-30.6,8.7-46,12.8.7-4.4,2.3-8.6,3.3-13,1.3-5.3,2.8-10.6,4.2-15.8,1.9-7.3,3.9-14.5,6-21.7,1.1-3.8,2.1-7.6,3.1-11.4.4-1.4.8-2.8,1.1-4.2.5-2.2,1.3-3.6,2.3-4.2.1,0,.3-.2.5-.3.6-.5.7-.5,1.5-1h0Z"/>
    <polygon class="st27" points="561.3 253.5 611.8 295.1 649 269 563.6 252.9 561.3 253.5"/>
    <path class="st27" d="M694.5,364.6"/>
    <path class="st27" d="M612.8,298.4c-.5.6-.3,1.2-.3,1.9,4,29.3,10.1,75.4,14.4,106.5.5,3.4.8,6,1,7.6.3,1.8.2,3,.8.7,3.1-11.1,23.7-82.4,26.8-93.7v-1.6c0-.8-.2-2.1-.5-4.1-1.5-11-3.7-26-5.3-37.2-.2-1.7-.4-2.9-.6-3.6-.3-1.1-.9-.9-1.8-.4-7.6,5-24.2,16.5-31.6,21.5-1,.7-2.3,1.5-3,2.3h0Z"/>
    <polygon class="st19" points="538.7 351.3 608.4 301.7 624.2 411.4 538.7 351.3"/>
    <path d="M667.5,335"/>
  </g>
  <g>
    <path class="st30" d="M730.3,434.2c39.5,0,79.1-.1,118.6-.2,3.8,0,7.1,1.1,10.1,3.5.3.3.6.7.8,1,.3.3.6.6.9,1,3.8,5.9,4,13,5,19.7,1.5,11.3,3,22.3,4.7,33.7h-162.1c2.2-15.7,4.4-31.7,6.6-47.6,2.4-5.3,3.8-7.8,8.8-10.4,2.2-.7,4.3-.6,6.7-.6h0Z"/>
    <path class="st28" d="M779.5,351.6h19.7c.9,25.5,5.2,53.1,24.4,71.7,2.5,2.1,5.2,3.8,7.9,5.5-3,1-6.2.5-9.3.6h-73.9v-1.1c.9-.7,1.8-1.3,2.7-1.9,23.1-17,27.4-48,28.5-74.7h0Z"/>
    <path class="st26" d="M708.1,167.8h1.2c1.9.6,2.7,1.6,4,3.1.2,1.2.3,2.5.3,3.8v78.9c-.6,14.6,3.8,28,13.4,39.2,1.8,2.2,2.8,4,3,5.4-.3,2.3-.7,3.2-2.4,4.7-2.2.7-3.3.8-5.4-.2-11-8.6-17.3-24.2-19.2-37.6-.4-4.1-.2-8.2-.2-12.2v-80.1c.6-2.9,2.5-4.9,5.5-4.9h-.2,0Z"/>
    <path class="st29" d="M857.8,436.4c6.8,5.7,6.7,14.9,7.9,23,1.2,9.1,2.4,18.1,4,27.1,0,1.9-.2,3.8-.5,5.8h-14.2c-1.6-9.5-1.2-7.9-1.8-14.3s-1.3-12.7-2.3-19.1c-1-7.5-2.3-15.1-5.4-22-.3-.7-.4-1.4-.4-2.1,4.8-.8,8.4-1,12.6,1.6h.1Z"/>
    <path class="st20" d="M779.5,351.6h19.7v13.1c-.2-.7-.4-1.5-.5-2.2h-18.1c-.4.7-.7,1.4-1.1,2.2v-13.1h0Z"/>
    <path class="st1" d="M1001.8,253.5"/>
    <path class="st12" d="M789.5,125.4l-115.3-1.4s-7.4-2.6-7.1,20.5l-50.2,1.6s-28.5-.5-28.7,38.3,34.3,121.4,102.6,125.9c0,0,2.2-.3,3.9,2,31.5,43.1,77.6,39.6,77.6,39.6,0,0,5.2,74.8-52.1,78.3-16.5,1-19,64.4-19,64.4l1,3,86.6,1.1h-.6l86.6-1.1,1-3s-2.5-63.4-19-64.4c-57.3-3.5-52.1-78.3-52.1-78.3,0,0,46.1,3.5,77.6-39.6,1.7-2.3,3.9-2,3.9-2,68.3-4.5,102.8-87.1,102.6-125.9s-28.7-38.3-28.7-38.3l-50.2-1.6c.3-23.1-7.1-20.5-7.1-20.5l-115.3,1.4"/>
    <path class="st14" d="M899.5,279.3s57.8-18.8,57.5-103.5c0-4.8-55.9-2.7-55.9-2.7,0,0,1.1,100.8-1.6,106.2Z"/>
    <path class="st14" d="M679.9,281.3s-57.8-18.8-57.5-103.5c0-4.8,55.9-2.7,55.9-2.7,0,0-1.1,100.8,1.6,106.2Z"/>
    <path class="st28" d="M722.8,329.3c-4.8-.9,10.4,6.2,16.3,8.3,28.3,9.8,59,12.8,88.4,4.8,36.2-11.5,52.6-36.6,60.8-64.7,4.8-26.8,3.4-72.3,3.9-105.2v-17.8c0-1.6-.9-2.7-2.5-2.8-5.4-.6-11.9-.3-17.4-.3-1.8.2-5.6-.4-5.2,2.3,1.3,13.8,2.4,29.6,2.4,47.7-.8,35.6-2.2,83.7-29.7,108.1-33.9,27.6-78.6,31.1-116.8,19.6h-.2Z"/>
    <path class="st17" d="M976,360.5"/>
    <path class="st28" d="M891.2,145c1.2-1.9.9-5.5,1-8,0-2,0-4-1.2-5.5-1.3-1.4-3.5-1.1-5.4-1.2-4.3.1-10.1.2-14.4.3-2.3,0-4.4.7-4.8,3.4-.3,1.9-.3,4.6-.3,6.7s0,3,.8,4.3c1,2,4.2,1.6,7,1.6s7.1-.1,10.5-.2c2.5,0,5.8,0,6.6-1.5h.2Z"/>
    <g>
      <rect class="st24" x="660.2" y="186.9" width="212" height="212"/>
      <path class="st28" d="M809,265.4l-16.1,9.1c-1.6.7-3.3,0-4.1-1.5-.5-5.8.5-11.8-.6-17.6-1.9-9.6-8.5-20.3-16.6-25.9s-17.9-6.3-22,3.9l-.9,2.9c0-.6,0-1.3.2-1.9.2-5.2-.4-10.9,0-16.1.2-2,1.4-3.7,3.6-3.2,7.2,4.1,13.4,8.5,21.9,9.8,10.1,1.6,27.9-.8,33.4-10.8,3.3-6.2.5-12.3-4.6-16.2l17,9.4c1,1,1.7,2.1,1.5,3.6s-.9,1.4-1.7,1.9c-3.9,2.5-8.3,4.3-12,7.1-8.6,6.6-15.8,19.4-16.2,30.3-.3,9,3.9,17.3,14,16s2.2-.6,3.3-.8h-.1Z"/>
      <path class="st28" d="M823.1,223.2c-.2,1.4-1.6,2.7-2.7,3.5-7.2,4.6-13.3,5.8-16.1,15.1-1.9,6.5,1.1,13.8,8.8,10.2,2.5-1.2,5.8-3.2,8.3-4.7s.8-.7,1.2-1c.8-.6.3.4.3.8,0,4.5,1.2,7-3,9.8s-10.1,6.3-14,7c-7.2,1.3-11.5-3.5-11.9-10.4-.7-11.2,6.1-24.3,14.8-31.1,3.9-3.1,8.6-4.9,12.7-7.6s1.1-.7,1.5-1.4c.5,0,0,.3,0,.4,0,2.6.4,7.3,0,9.6v-.2h.1Z"/>
      <path class="st28" d="M772.7,233.5c7.2,6.2,13.1,17.1,13.7,26.6s-.3,8.6,0,12.7.2.9.3,1.4l-7.5-4.1c-1.2-.7-2.6-2.1-2.8-3.6-.5-4.4.7-9.8-.4-14.2s-7.9-14.1-14.3-11.5-3.4,9.8-3.4,13.9-.2,1-.2,1.6.4,1.2.3,1.9c-2.5-2-7.5-3-7.8-6.7s-.3-12.6.6-15.8c3.3-11.6,14.5-7.9,21.4-2v-.2h.1Z"/>
      <path class="st28" d="M762.9,218.6c-3.6-2-7-4.5-10.8-6,2.2-1,4.2-2.5,6.4-3.7s2.4-1.5,3.9-1.4c2.6.1,8.7,4.9,11.6,6.1,4.7,2.1,11.7,2,16.1-.7s4.7-6.2,1.9-9.5-9-5.9-11-6.8-.4-.1-.6,0c0-.2.3-.3.4-.5,1.1-.8,5.2-3.2,6.4-3.4s1.1-.1,1.5,0c1.4.2,7.6,4,9.3,5,6.5,4,12.4,10,5.9,17.5-8.9,10.3-29.9,9.6-41,3.6v-.2h0Z"/>
      <path class="st28" d="M811.3,234.9c.9-.9,1.8-1.6,3-2.1h.3c1.7,1.1,3.7,2,5.4,3.1,3.6,2.4,4.2,6.5.5,9.1s-8.8,5.3-10.3,5.6c-3.4.5-4.4-3-4.1-5.7s2.7-7.5,5.3-9.9h-.1Z"/>
      <path class="st28" d="M768.3,244.4c3.6,2.9,6.2,8.1,5.9,12.8-2.8,1.3-6.2,4.6-9.5,4.1s-3.8-2.1-4.1-4-.3-9.4,0-11.2.3-1,.4-1.3c1.4-3.5,5.1-2.2,7.3-.4h0Z"/>
      <path class="st28" d="M777.6,198.5c1.3-.1,2.1.2,3.3.7,1.8.9,8.1,4.4,9.3,5.7,2,2,1.1,4.4-1,5.8-3.5,2.4-9.1,2.6-13,1.3s-2.7-1.2-2.9-1.5,0-.3-.2-.5c-.2-1.3-.2-6.5,0-7.7.4-2,2.4-3.7,4.4-3.8h.1Z"/>
    </g>
    <polygon class="st5" points="702.6 481.2 874.6 481.2 875.6 495.7 874.6 498.9 702.6 498.9 701.6 495.7 702.6 481.2"/>
  </g>
  <g>
    <path class="st13" d="M972,524.6c1,7.4,2.6,14.1,2.5,21.5-1.3,12.3-6.2,21-15.7,30.5-20,18.3-48.9,26.5-80.6,23-27.7-4.2-50.3-16.6-57.9-39.2l-.7-2.6-2.1-13.6.7,2.6c7.9,23.8,32.2,36.2,61.6,39.6,22.9,1.8,41.9-2.2,60.6-11.9,12.8-7.3,21.1-14.7,27.3-26.4,3-6.5,4.3-11.1,4.5-18.2v-2.6l-.3-2.6h0Z"/>
    <path class="st0" d="M869,598c-22.8-5.5-42-17.9-48.6-37.6l-.7-2.6-2.1-13.6.7,2.6c6.7,20.1,25.3,32.2,48.6,37.3l2.3,14h-.1Z"/>
    <path class="st4" d="M931.2,484.6c37.9,12.5,52.1,44.3,31.9,71.1-20.1,26.9-67.3,38.5-105.1,26.1-37.9-12.3-52.1-44.3-31.9-71,20.3-26.8,67.5-38.5,105.3-26h-.1q0-.1,0-.1Z"/>
    <path class="st9" d="M927.1,486.3c35.1,11.5,48.3,41,29.7,65.8-18.7,24.9-62.5,35.7-97.6,24.1-35.1-11.5-48.3-41-29.5-65.8,18.7-24.9,62.4-35.6,97.4-24.2h-.1c0,.1,0,.1,0,.1h0Z"/>
    <g>
      <path class="st23" d="M943.3,521.9c-8.3,9.7-30.1,35.1-37.4,43.8-13.1-4.7-38.2-13.5-52.6-18.6-4.7-1.6-7.7-2.7-7.7-2.7,0,0,2.3-2.7,5.8-6.8,7.4-8.7,25.9-30.2,31.5-36.8.2,0,.4.1.9.3,14.8,5.2,44.1,15.5,59.6,20.9h0Z"/>
      <path d="M881.6,555.1c-1.6-.1-2.7-1-1.8-2.2,1.7-2.3,3.9-4.4,5.6-6.7,7.4-9.2,1.1-30.1-15.6-22.3-.6.2-1.8,1.3-2.2,1.4,1.1-1.3,2.5-3.1,3.6-4.5,1.5-1.9,3.3-4.1,5.2-5.4.4-.3.8-.4,1.1-.4.5,0,1.1.5,1.6,1,3,3.6,5.5,7.1,10.4,9.7,7.2,3.6,24.1,7.6,32.2.3,2.4-1.9,1.1-4.2-.2-6.5,1.4,1.6,7.2,8.3,7.5,8.7.7,1.6-.7,2.9-2.7,2.7-7.1.2-13.8.4-20.6,3.1-8.8,2.7-27.2,15.7-11.5,20.1"/>
      <path d="M914.4,548.2c-1.6,2-2.2,3.7-5,4.4-2.7.5-5.5.5-8.3.7-7,.4-14-2.2-9.5-8.3,5.9-7.9,21.2-13.2,32.7-12.6,1.3.1,2.8,0,4.1-.1.1,0,0,.2-.2.4-.9,1-1.8,2.2-2.7,3.3-.9,1.3-2.5,2-4.2,2.1-6.8.6-11.6-.3-17.4,3.6-4.4,2.6-6.8,7.2,1.6,7.2s5,0,7.6-.4"/>
      <path d="M877.5,553.5c-.1-.2-2.7-3.2-3.5-4.2-1.2-1.6,0-2.9,1.4-4.3,2.2-2.4,4.6-4.7,4.5-7.6,0-3.1-1.4-7.1-6.3-6.8-2.7,0-4.5,1.8-5.6,3.6-.7,1.2-1.7,2.6-2.6,3.6-.2.2.3-.3.1-.1-.1,0-.4.7-.6.8-1-1.2-2.9-2.6-2.9-4.2.7-2.3,3.3-4.6,5.1-6.6,5.4-6.2,13.7-5.3,17.5,1.2,3.3,5.5,2.2,14.3-3.1,19.8-1.3,1.7-2.5,2.6-3.7,4.2"/>
      <path d="M884.7,519.9c-1.6-1.7-3-3.8-4.7-5.5,2.1-.3,4.2-.3,6.5-.4,1.7-.2,3,.2,4.1,1.3s2.6,3.3,3.6,4.5c8.1,7.3,25.8,4.8,12.2-6.5-.3-.1.5-.1,1-.2.5,0,1.3,0,2-.1,1.6,0,3.7-.4,4.7.7,21.5,20.3-19,17.1-29.2,6.4h-.1c0-.1,0,0,0,0Z"/>
      <path d="M911.2,539.8c1-.2,1.9-.3,2.9-.3h.1c.6,1,1.8,1.9,2.4,2.9,1.6,2.1.1,4.3-3.6,4.8s-8.3.6-9.5.3c-2.6-.5-1.8-2.6-.4-3.9s5-3.1,7.9-3.6h.3c0-.1,0-.1,0-.1Z"/>
      <path d="M877.6,534.2c1.3,2.4.7,5.5-1.4,7.8-2.4,0-6.3.7-8.3-.2s-1.6-1.9-1.2-3,3.9-4.8,4.8-5.6.4-.5.7-.6c2.4-1.4,4.4.1,5.2,1.6h.1Z"/>
      <path d="M903.6,513.5c.9.3,1.4.6,1.9,1.1.9.9,3.8,4.2,3.9,5.1.6,1.6-1.1,2.4-3.3,2.7-3.4.4-7.3-.9-9.4-2.5-1.7-1.3-1.5-1.3-1.4-1.4s0,0,.2-.3c.6-.7,2.7-3.2,3.3-3.9,1.3-.9,3.3-1.3,4.8-.8h0Z"/>
    </g>
  </g>
  <g>
    <path class="st8" d="M575,460.1l157.1,55.1c3.7,1.3,4.3-3.2,5.5,0,0,.6,2.2,8.3,2.4,8.6.4,2.6,0,5.8-1.9,8.6l-38.1,62.3c-4.1,6.9-13.9,10.7-21.5,8.1l-156.9-55.3c-3.6-1.3-6-3.6-7.3-6.5-.2-.6-2.2-7.7-2.2-8.3-.6-2.8,3.4-3.2,5.3-6.2l36.4-58.7c4.3-6.9,13.9-10.7,21.3-8.1v.4h0Z"/>
    <path class="st11" d="M577.1,458.9l8.8,3,106.2,139.7c-3.7,1.3-7.9,1.5-11.6.2l-156.9-55.3c-3.6-1.3-6-3.6-7.3-6.5-.2-.6-2.2-7.7-2.2-8.3-.6-2.8,3.4-3.2,5.3-6.2l36.4-58.7c4.3-6.9,13.9-10.5,21.3-8.1l.2.2h-.1,0Z"/>
    <path class="st6" d="M572.9,452.8l156.9,55.1c7.7,2.6,10.3,10.5,6,17.4l-37.9,62.5c-4.3,6.9-13.9,10.5-21.5,8.1l-156.9-55.1c-7.5-2.6-10.1-10.5-6-17.4l37.9-62.5c4.3-6.9,14-10.7,21.5-8.1h0Z"/>
    <path class="st2" d="M571.4,447.3l156.9,55.1c3.7,1.3,4.5-3.2,5.5,0,.2.6,2.2,8.3,2.4,8.6.6,2.6,0,5.8-1.9,8.6l-37.9,62.5c-4.3,6.9-14,10.5-21.5,8.1l-156.9-55.1c-3.6-1.3-6.2-3.7-7.3-6.5-.2-.6-2.2-7.7-2.4-8.3-.6-2.8,3.4-3.2,5.3-6.2l36.4-58.7c4.3-6.9,14-10.7,21.5-8.1h0Z"/>
    <path class="st11" d="M573.7,446.2l8.6,3,106.4,139.7c-3.7,1.3-7.9,1.5-11.6.2l-156.9-55.1c-3.6-1.3-6.2-3.7-7.3-6.5-.2-.6-2.2-7.7-2.4-8.3-.6-2.8,3.4-3.2,5.3-6.2l36.4-58.7c4.3-6.9,14-10.5,21.5-8.1h.2-.1,0Z"/>
    <path class="st6" d="M569.6,438.9l156.9,55.1c7.5,2.6,10.3,10.5,6,17.4l-37.9,62.5c-4.3,6.9-14,10.5-21.5,8.1l-156.9-55.1c-7.7-2.6-10.3-10.5-6-17.4l37.9-62.5c4.3-6.9,14-10.7,21.5-8.1h0Z"/>
    <path class="st16" d="M568.4,433.8l156.9,55.1c3.7,1.3,4.3-3.2,5.5,0,0,.6,2.2,8.3,2.4,8.6.6,2.6,0,5.8-1.9,8.8l-38.1,62.3c-4.1,6.9-13.9,10.7-21.5,8.1l-156.9-55.1c-3.6-1.3-6-3.6-7.3-6.5-.2-.6-2.2-7.7-2.2-8.3-.6-2.8,3.4-3.2,5.3-6.2l36.4-58.7c4.3-6.9,13.9-10.7,21.5-8.1h0Z"/>
    <path class="st11" d="M568.4,433.8l8.6,3,106.2,139.7c-3.7,1.3-7.9,1.5-11.6,0l-156.9-55.1c-3.6-1.3-6-3.6-7.3-6.5-.2-.6-2.2-7.7-2.2-8.3-.6-2.8,3.4-3.2,5.3-6.2l36.4-58.7c4.3-6.9,13.9-10.5,21.5-8.1l.2.2h-.1,0Z"/>
    <path class="st15" d="M566.2,426.5l156.9,55.1c7.7,2.6,10.3,10.5,6,17.4l-37.9,62.5c-4.1,6.9-13.9,10.5-21.5,8.1l-156.9-55.3c-7.5-2.6-10.1-10.3-6-17.3l37.9-62.5c4.3-6.9,14-10.7,21.5-8.1h0Z"/>
    <path class="st18" d="M573.1,435.5l127.3,44.8s1.7.6,1.9.8c12,4.7,23.3,9.2,15.8,21-.8,1.3-2,3.4-2.6,4.1l-24.4,40c-9.4,15.8-9.7,20.5-30.4,13.3-.6-.2-.8-.2-1.5-.4l-126.6-44.6c-1.1-.4-2.2-1-3.4-1.5-11.8-5.4-14.2-14.4-7.5-27,0-.2.2-.4.4-.6l22.1-36.4h0c10.9-16.3,12-18.7,28-13.7,0,0,1,.4,1,.2h0Z"/>
    <path class="st3" d="M621.7,446l40.9,14.4-50.4,88.3-40.9-14.4,50.4-88.3h0Z"/>
    <path class="st10" d="M583.2,566.6l40.9,14.4-12-32.3-40.9-14.4,12,32.3h0Z"/>
    <g>
      <rect class="st23" x="606.5" y="484" width="24.6" height="24.6" transform="translate(-77.8 875.6) rotate(-67.3)"/>
      <path d="M621.2,506.8l-5.1.6c-.6,0-1-.4-1-.8.6-1.5,1.5-3,1.7-4.7.6-2.6,0-6.2-1.5-8.5s-3.9-3.6-6.2-1.3l-.6.6s0-.4.2-.4c.6-1.3,1.1-2.8,1.7-4.1s.8-.8,1.3-.4c1.5,1.9,2.6,3.6,4.5,4.9s7.3,2.8,9.7.8,1.5-3.2.6-4.7l3.4,4.3c0,.4.2.8,0,1.1s-.4.2-.6.4c-1.3.2-2.6.2-3.9.6-3,.8-6.2,3.4-7.5,6s-1,4.9,1.9,5.7.6,0,1,0h.4,0Z"/>
      <path d="M629.4,497.4c-.2.4-.8.6-1.1.6-2.4.4-4.1,0-5.8,2.2s-1.1,3.7,1.1,3.6,1.9-.2,2.6-.4.4,0,.4,0c.2,0,0,0,0,.2-.6,1.1-.4,1.9-1.9,2.2s-3.4.6-4.3.4c-2-.4-2.6-2-1.9-3.9,1-3,4.1-5.7,7.1-6.4,3-.8,2.8-.4,4.1-.6s.4,0,.6-.2h0c-.2.8-.8,1.9-1.1,2.4l.2-.2h0Z"/>
      <path d="M615.1,494.6c1.1,2.4,1.5,5.8.8,8.5s-1,2.2-1.3,3.2,0,.2,0,.4l-1.5-1.9c-.2-.4-.4-.8-.4-1.1.4-1.1,1.3-2.4,1.5-3.7s-.6-4.5-2.4-4.5-1.9,2-2.4,3.2,0,.2-.2.4,0,.4,0,.6c-.4-.8-1.7-1.5-1.3-2.6s1.3-3.4,1.9-3.9c2-2.6,4.7-.6,5.8,1.9l-.4-.2h0Z"/>
      <path d="M614.2,489.7c-.8-1-1.3-1.9-2-2.6.8,0,1.3-.2,2-.2h1.1c.8.4,1.7,2.2,2.2,2.8,1,1.1,2.8,1.7,4.3,1.5s1.9-1.1,1.5-2.2-1.7-2.4-2-3,0,0,0,0h0c.4,0,1.7-.2,2,0s.4,0,.4,0c.4.2,1.5,1.9,1.9,2.2,1.3,1.7,2,3.9-.4,5.1s-8.8-.8-10.9-3.6h-.3Z"/>
      <path d="M625.1,499.1c.4,0,.6-.2,1-.2h0c.4.6.8,1,1.1,1.5.8,1,.4,2-1,2.4s-2.8.4-3.2.4c-1-.2-.8-1.3-.4-1.9s1.5-1.7,2.4-2v-.2Z"/>
      <path d="M612.9,497.1c.6,1.1.8,2.8,0,3.9-1,0-2,.6-2.8,0s-.8-1-.6-1.5,1-2.4,1.1-3,0-.2.2-.4c.8-.8,1.5,0,1.9.8l.2.2h0Z"/>
      <path d="M620.2,486.1c.4,0,.6.2.8.6.4.4,1.7,2,1.9,2.4.4.8,0,1.3-1,1.3-1.1.2-2.6-.4-3.6-1.1s-.6-.6-.6-.8,0,0,0,0c0-.4.8-1.7,1-2,.4-.4,1-.8,1.5-.6v.2h0Z"/>
    </g>
  </g>
  <g>
    <path class="st13" d="M946.8,488.3c2.2,7.1,4.9,13.5,6,20.7.8,12.3-2.5,21.8-10.3,32.7-16.6,21.5-43.8,34.3-75.6,36.2-28,.5-52.3-7.9-63.6-29l-1-2.5-4.3-13.1,1,2.5c11.7,22.1,37.9,30.4,67.3,28.7,22.9-2.1,40.9-9.1,57.8-21.8,11.4-9.4,18.3-18,22.6-30.7,1.8-6.9,2.4-11.7,1.3-18.7l-.4-2.5-.8-2.5h0Z"/>
    <path class="st0" d="M857.5,577.9c-23.4-1.6-44.4-10.6-54.2-29l-1-2.5-4.3-13.1,1,2.5c9.9,18.7,30.3,27.5,54.1,28.7l4.6,13.4h-.2Z"/>
    <path class="st4" d="M899.9,455.6c39.4,6,58.8,34.9,43.3,64.7-15.4,29.8-59.9,49.2-99.3,43.3-39.5-5.9-58.8-34.9-43.3-64.7,15.5-29.8,60.1-49.2,99.5-43.2h-.1Z"/>
    <path class="st9" d="M896.1,458.1c36.6,5.5,54.5,32.4,40.3,59.8-14.3,27.7-55.7,45.7-92.1,40-36.6-5.5-54.5-32.4-40-60,14.3-27.7,55.6-45.5,92-40.1h0c0,.1-.1.1-.1.1h0Z"/>
    <g>
      <path class="st23" d="M918.1,490.4c-6.5,11-23.8,39.7-29.6,49.5-13.7-2.4-39.9-7-55-9.6-4.9-.9-8-1.4-8-1.4,0,0,1.9-3,4.6-7.7,5.8-9.8,20.5-34.1,24.9-41.6.2,0,.4,0,.9.1,15.4,2.7,46.1,7.9,62.2,10.7h0Z"/>
      <path d="M862.7,533.4c-1.6.1-2.8-.6-2.1-1.9,1.3-2.5,3.2-5,4.5-7.6,5.8-10.3-3.9-29.8-19.2-19.4-.6.3-1.6,1.6-1.9,1.7.9-1.5,2-3.5,2.8-5,1.2-2.1,2.6-4.5,4.2-6.2.4-.4.7-.5,1-.6.5,0,1.2.3,1.9.7,3.6,3,6.6,6.2,11.9,7.9,7.7,2.4,25,3.6,31.7-5,2.1-2.3.4-4.4-1.3-6.3,1.6,1.3,8.5,7,8.8,7.3,1,1.4-.1,3-2.2,3.1-7,1.4-13.5,2.7-19.8,6.5-8.2,4.1-24.2,20-8,21.8"/>
      <path d="M894,521.2c-1.3,2.2-1.6,4-4.3,5.1-2.6,1-5.3,1.5-8.1,2-6.8,1.6-14.1.2-10.8-6.6,4.5-8.8,18.6-16.6,30.1-17.9,1.3,0,2.8-.4,4-.8.1,0,0,.2-.1.5-.7,1.2-1.4,2.5-2.1,3.6-.7,1.4-2.2,2.5-3.9,2.7-6.6,1.7-11.5,1.6-16.6,6.5-3.9,3.3-5.5,8.2,2.8,6.8,3-.4,5-.9,7.5-1.6"/>
      <path d="M858.4,532.6c-.1-.1-3.3-2.7-4.1-3.6-1.4-1.3-.4-2.9.7-4.5,1.9-2.7,3.8-5.3,3.1-8.3-.5-3-2.6-6.7-7.4-5.6-2.6.5-4.2,2.5-5,4.5-.5,1.3-1.3,2.9-1.9,3.9-.1.2.2-.4,0-.1,0,0-.2.8-.4.9-1.1-1-3.3-2.1-3.6-3.6.2-2.4,2.5-5.1,3.9-7.4,4.2-7.1,12.6-7.6,17.5-1.8,4.2,4.8,4.6,13.7.2,20-1,1.9-2,3-3,4.8"/>
      <path d="M860,498.2c-1.9-1.4-3.6-3.3-5.5-4.7,2-.7,4-1,6.3-1.5,1.6-.5,3-.3,4.2.7,1.5,1,3.1,2.8,4.3,3.9,9.2,5.9,26.2.4,10.9-8.5-.3,0,.5-.2.9-.4.5-.1,1.3-.3,2-.4,1.6-.2,3.6-1,4.8-.1,24.5,16.5-15.9,20-27.7,11.1h-.1c0-.1,0-.1,0-.1h0Z"/>
      <path d="M889.4,513.4c.9-.4,1.9-.6,2.8-.8h.1c.7.9,2,1.6,2.8,2.4,1.9,1.8.8,4.2-2.7,5.3s-8.1,1.9-9.3,1.9c-2.7,0-2.2-2.3-1.1-3.7s4.5-3.9,7.1-4.9h.3,0Z"/>
      <path d="M855.4,513.5c1.7,2.1,1.7,5.3-.1,7.9-2.4.4-6.1,1.8-8.2,1.1s-1.9-1.6-1.6-2.8c.3-1.2,3-5.3,3.8-6.3s.4-.6.6-.7c2.2-1.8,4.3-.6,5.4.7h.2Z"/>
      <path d="M877.6,488.7c1,.1,1.5.4,2.1.7,1,.7,4.4,3.5,4.8,4.4.8,1.4-.7,2.5-2.7,3.2-3.3,1-7.4.3-9.7-.9-1.9-1-1.7-1-1.6-1.2s0,0,.1-.3c.4-.7,2.2-3.6,2.6-4.4,1-1,3-1.9,4.5-1.6h0Z"/>
    </g>
  </g>
  <g>
    <path class="st13" d="M914.1,457c5.5,6,11,11.2,15.7,17.7,6.9,11.6,8.9,21.9,7.8,35.2-3.2,26.7-19.8,48.9-45.7,62.2-23.5,10.7-48.3,11.4-68.6-4.8l-2.2-1.9-10.3-11,2.2,1.9c21.2,17.1,47.4,15.4,71.7,3.2,18.3-10.3,30.1-23.6,37.9-42,5-13.1,6.4-24,3.6-37.7-1.9-7.3-3.9-12.1-8.4-18.5l-1.6-2.3-1.9-2.2h0Z"/>
    <path class="st0" d="M883.9,575.5c-20.6,6.9-43,5.9-60.6-8.2l-2.2-1.9-10.3-11,2.2,1.9c18,14.4,39.7,15.4,60.4,8l10.7,11.2h-.2Z"/>
    <path class="st4" d="M857.7,442.6c36.5-8.5,67.6,12.3,69.5,46.6,2.2,34.3-25.8,69.1-62.2,77.7-36.5,8.7-67.6-12.3-69.5-46.6s26-69.1,62.4-77.7h-.1Z"/>
    <path class="st7" d="M855.8,446.3c33.8-8,62.6,11.4,64.5,43,1.9,31.9-24,64.2-57.8,72-33.8,8-62.6-11.4-64.4-43.2-1.9-31.9,24-64,57.6-72h0v.2Z"/>
    <g>
      <path class="st23" d="M890.8,469.4v58.3c-12.8,2.7-37.3,7.8-51.5,10.7-4.6,1-7.5,1.6-7.5,1.6v-58.1c.2,0,.4,0,.8-.1,14.5-3,43.1-9.1,58.1-12.3h0Z"/>
      <path d="M865.7,531c-1.3.7-2.7.4-2.7-1-.1-2.9.1-5.9,0-8.9-.3-12-18.5-27.3-26.1-11.7-.3.4-.5,2.2-.7,2.4,0-1.7,0-4.1-.1-5.9,0-2.4-.1-5.3.4-7.5.1-.4.4-.8.6-.9.4-.1,1.1-.1,1.9,0,4.5,1.6,8.7,3.5,14,3.3,7.7-.4,23-5.7,24.4-16.4.5-3-1.9-4.3-4.4-5.6,2,.7,10.8,3.6,11.2,3.9,1.6,1,1.3,3-.2,3.8-5.2,3.9-10,7.6-13.4,13.4-4.9,6.9-10.3,28,4.3,23.9"/>
      <path d="M886,507.9c0,2.6.7,4.5-1,6.5-1.7,1.9-3.8,3.3-5.9,4.9-4.9,4-11.9,5.3-12.5-2.5-.7-10,7.4-22.7,16.4-28.2,1-.5,2.2-1.5,3-2.2.1,0,.1.1.1.5v4.3c.1,1.6-.6,3.1-1.9,4-4.8,4-8.9,5.8-10.8,12.3-1.6,4.6-.5,9.9,5.9,5.6,2.3-1.6,3.8-2.7,5.5-4.3"/>
      <path d="M861.7,531.7c-.2-.1-4.1-1.4-5.3-1.9-1.9-.8-1.8-2.6-1.7-4.5.1-3.3.5-6.5-1.6-9.1-2-2.7-5.6-5.5-9.1-2.7-1.9,1.4-2.2,3.9-1.9,6.2.2,1.4.4,3.2.4,4.5s0-.4,0-.2.1.9,0,1c-1.4-.5-3.9-.8-4.8-2.2-1-2.4-.4-5.9-.4-8.5,0-8.3,6.8-11.9,14-8,6,3.1,10.8,11.6,10.4,19.2,0,2.2-.2,3.6,0,5.6"/>
      <path d="M845.5,498c-2.3-.7-4.7-1.8-7.1-2.5,1.4-1.3,3-2.4,4.6-3.7,1.2-1,2.4-1.3,3.9-.9,1.8.4,4.1,1.6,5.6,2.2,10.8,2.3,22.4-9.1,5-12.1-.3,0,.3-.4.6-.7.4-.3.9-.7,1.4-1.1,1.2-.8,2.5-2.2,3.9-1.9,29.2,7-3.3,25.1-17.8,20.8h-.2Z"/>
      <path d="M878.2,502c.5-.7,1.3-1.3,1.9-1.8h.1c1,.5,2.5.7,3.6,1.3,2.5,1,2.8,3.7.4,6s-5.9,4.8-6.9,5.1c-2.3.9-3-1.4-2.8-3.2s1.8-5.3,3.6-7.3h.1Z"/>
      <path d="M849.4,514.4c2.5,1.4,4.1,4.5,3.9,7.6-1.8,1.3-4.2,3.9-6.4,4.1s-2.5-.9-2.8-2.2-.1-6.2,0-7.5,0-.7.1-.9c.9-2.5,3.3-2.2,5-1.3h.1,0Z"/>
      <path d="M855.6,482.6c.9-.1,1.4-.1,2.2,0,1.3.4,5.5,1.8,6.2,2.5,1.4,1,.7,2.7-.7,4.1-2.3,2.2-6,3-8.7,2.7s-1.9-.3-1.9-.5v-5.5c.4-1.4,1.6-2.8,3-3.2h0Z"/>
    </g>
  </g>
  <path class="st27" d="M959.3,125.8"/>
</svg>