<?xml version="1.0" encoding="UTF-8"?>
<svg id="Layer_1" xmlns="http://www.w3.org/2000/svg" version="1.1" xmlns:xlink="http://www.w3.org/1999/xlink" viewBox="0 0 1366 768">
  <!-- Generator: Adobe Illustrator 29.1.0, SVG Export Plug-In . SVG Version: 2.1.0 Build 142)  -->
  <defs>
    <style>
      .st0, .st1, .st2, .st3, .st4, .st5, .st6, .st7, .st8, .st9, .st10, .st11, .st12, .st13, .st14, .st15, .st16, .st17 {
        stroke: #000;
      }

      .st0, .st1, .st3, .st4, .st5, .st7, .st8, .st10, .st14 {
        stroke-width: 1.1px;
      }

      .st0, .st1, .st3, .st7, .st8, .st9, .st10, .st12, .st14, .st15, .st17 {
        fill-rule: evenodd;
      }

      .st0, .st1, .st3, .st8, .st9, .st12 {
        stroke-linejoin: bevel;
      }

      .st1 {
        fill: url(#linear-gradient);
      }

      .st2, .st6, .st11, .st13, .st16 {
        stroke-miterlimit: 10;
      }

      .st2, .st16 {
        fill: none;
      }

      .st3 {
        fill: url(#linear-gradient2);
      }

      .st4 {
        fill: url(#linear-gradient3);
      }

      .st5 {
        fill: url(#radial-gradient);
      }

      .st5, .st7, .st10, .st14 {
        stroke-linejoin: round;
      }

      .st18, .st19, .st20, .st12, .st17 {
        fill: #cfd3e5;
      }

      .st6 {
        stroke-width: 2px;
      }

      .st7 {
        fill: #00e983;
      }

      .st8 {
        fill: url(#linear-gradient1);
      }

      .st9, .st11, .st12, .st13, .st15, .st17 {
        stroke-width: 6px;
      }

      .st21 {
        fill: #feba09;
      }

      .st19 {
        isolation: isolate;
        opacity: .5;
      }

      .st20, .st22 {
        display: none;
      }

      .st11, .st15 {
        fill: #e5eaec;
      }

      .st13 {
        fill: #fff;
      }

      .st23 {
        fill: #38a0fb;
      }

      .st14 {
        fill: #00bf66;
      }

      .st16 {
        stroke-width: 5px;
      }

      .st24 {
        fill: #fdbe0a;
      }
    </style>
    <linearGradient id="linear-gradient" x1="557.2" y1="-305.3" x2="655.9" y2="-229.8" gradientTransform="translate(0 206) scale(1 -1)" gradientUnits="userSpaceOnUse">
      <stop offset="0" stop-color="#00bf66"/>
      <stop offset="1" stop-color="#00e983"/>
    </linearGradient>
    <linearGradient id="linear-gradient1" x1="554.1" y1="-294" x2="652.7" y2="-218.4" gradientTransform="translate(0 206) scale(1 -1)" gradientUnits="userSpaceOnUse">
      <stop offset="0" stop-color="#00bf66"/>
      <stop offset="1" stop-color="#00e983"/>
    </linearGradient>
    <linearGradient id="linear-gradient2" x1="551.4" y1="-281.9" x2="649.9" y2="-206.5" gradientTransform="translate(0 206) scale(1 -1)" gradientUnits="userSpaceOnUse">
      <stop offset="0" stop-color="#00bf66"/>
      <stop offset="1" stop-color="#00e983"/>
    </linearGradient>
    <radialGradient id="radial-gradient" cx="567" cy="464.6" fx="553.8" fy="505.9" r="43.5" gradientTransform="translate(0 2)" gradientUnits="userSpaceOnUse">
      <stop offset="0" stop-color="#fff"/>
      <stop offset="1" stop-color="#fff"/>
    </radialGradient>
    <linearGradient id="linear-gradient3" x1="549.7" y1="517.4" x2="556" y2="567.6" gradientTransform="translate(0 2)" gradientUnits="userSpaceOnUse">
      <stop offset="0" stop-color="#fff"/>
      <stop offset="1" stop-color="#fff"/>
    </linearGradient>
  </defs>
  <g>
    <path class="st19" d="M613.3,119.5h1.2c1.9.6,2.7,1.6,4,3.1.2,1.2.3,2.5.3,3.8v78.9c-.6,14.6,3.8,28,13.4,39.2,1.8,2.2,2.8,4,3,5.4-.3,2.3-.7,3.2-2.4,4.7-2.2.7-3.3.8-5.4-.2-11-8.6-17.3-24.2-19.2-37.6-.4-4.1-.2-8.2-.2-12.2v-80.1c.6-2.9,2.5-4.9,5.5-4.9h-.2,0Z"/>
    <path class="st24" d="M763,388.1c6.8,5.7,6.7,14.9,7.9,23,1.2,9.1,2.4,18.1,4,27.1,0,1.9-.2,3.8-.5,5.8h-14.2c-1.6-9.5-1.2-7.9-1.8-14.3s-1.3-12.7-2.3-19.1c-1-7.5-2.3-15.1-5.4-22-.3-.7-.4-1.4-.4-2.1,4.8-.8,8.4-1,12.6,1.6h.1Z"/>
    <path class="st21" d="M684.7,303.3h19.7v13.1c-.2-.7-.4-1.5-.5-2.2h-18.1c-.4.7-.7,1.4-1.1,2.2v-13.1h0Z"/>
    <path class="st2" d="M907,205.2"/>
    <path class="st11" d="M692.7,77.1l115.3-1.4s7.4-2.6,7.1,20.5l50.2,1.6s28.5-.5,28.7,38.3c.2,38.8-34.3,121.4-102.6,125.9,0,0-2.2-.3-3.9,2-31.5,43.1-77.6,39.6-77.6,39.6,0,0-5.2,74.8,52.1,78.3,16.5,1,19,64.4,19,64.4l-1,3-86.6,1.1"/>
    <path class="st11" d="M693.8,77.1l-115.3-1.4s-7.4-2.6-7.1,20.5l-50.2,1.6s-28.5-.5-28.7,38.3c-.2,38.8,34.3,121.4,102.6,125.9,0,0,2.2-.3,3.9,2,31.5,43.1,77.6,39.6,77.6,39.6,0,0,5.2,74.8-52.1,78.3-16.5,1-19,64.4-19,64.4l1,3,86.6,1.1"/>
    <path class="st18" d="M635.5,385.9c39.5,0,79.1-.1,118.6-.2,3.8,0,7.1,1.1,10.1,3.5.3.3.6.7.8,1,.3.3.6.6.9,1,3.8,5.9,4,13,5,19.7,1.5,11.3,3,22.3,4.7,33.7h-162.1c2.2-15.7,4.4-31.7,6.6-47.6,2.4-5.3,3.8-7.8,8.8-10.4,2.2-.7,4.3-.6,6.7-.6h0Z"/>
    <path class="st13" d="M804.7,231s57.8-18.8,57.5-103.5c0-4.8-55.9-2.7-55.9-2.7,0,0,1.1,100.8-1.6,106.2Z"/>
    <path class="st13" d="M585.1,233s-57.8-18.8-57.5-103.5c0-4.8,55.9-2.7,55.9-2.7,0,0-1.1,100.8,1.6,106.2Z"/>
    <path class="st18" d="M628,281c-4.8-.9,10.4,6.2,16.3,8.3,28.3,9.8,59,12.8,88.4,4.8,36.2-11.5,52.6-36.6,60.8-64.7,4.8-26.8,3.4-72.3,3.9-105.2v-17.8c0-1.6-.9-2.7-2.5-2.8-5.4-.6-11.9-.3-17.4-.3-1.8.2-5.6-.4-5.2,2.3,1.3,13.8,2.4,29.6,2.4,47.7-.8,35.6-2.2,83.7-29.7,108.1-33.9,27.6-78.6,31.1-116.8,19.6h-.2Z"/>
    <path class="st16" d="M881.2,312.2"/>
    <path class="st18" d="M796.4,96.7c1.2-1.9.9-5.5,1-8,0-2,0-4-1.2-5.5-1.3-1.4-3.5-1.1-5.4-1.2-4.3,0-10.1.2-14.4.3-2.3,0-4.4.7-4.8,3.4-.3,1.9-.3,4.6-.3,6.7s0,3,.8,4.3c1,2,4.2,1.6,7,1.6s7.1,0,10.5-.2c2.5,0,5.8,0,6.6-1.5h.2Z"/>
    <g>
      <rect class="st20" x="565.4" y="138.6" width="212" height="212"/>
      <path class="st18" d="M714.2,217.1l-16.1,9.1c-1.6.7-3.3,0-4.1-1.5-.5-5.8.5-11.8-.6-17.6-1.9-9.6-8.5-20.3-16.6-25.9s-17.9-6.3-22,3.9l-.9,2.9c0-.6,0-1.3.2-1.9.2-5.2-.4-10.9,0-16.1.2-2,1.4-3.7,3.6-3.2,7.2,4.1,13.4,8.5,21.9,9.8,10.1,1.6,27.9-.8,33.4-10.8,3.3-6.2.5-12.3-4.6-16.2l17,9.4c1,1,1.7,2.1,1.5,3.6s-.9,1.4-1.7,1.9c-3.9,2.5-8.3,4.3-12,7.1-8.6,6.6-15.8,19.4-16.2,30.3-.3,9,3.9,17.3,14,16s2.2-.6,3.3-.8h-.1Z"/>
      <path class="st18" d="M728.3,174.9c-.2,1.4-1.6,2.7-2.7,3.5-7.2,4.6-13.3,5.8-16.1,15.1-1.9,6.5,1.1,13.8,8.8,10.2,2.5-1.2,5.8-3.2,8.3-4.7s.8-.7,1.2-1c.8-.6.3.4.3.8,0,4.5,1.2,7-3,9.8s-10.1,6.3-14,7c-7.2,1.3-11.5-3.5-11.9-10.4-.7-11.2,6.1-24.3,14.8-31.1,3.9-3.1,8.6-4.9,12.7-7.6s1.1-.7,1.5-1.4c.5,0,0,.3,0,.4,0,2.6.4,7.3,0,9.6v-.2h.1Z"/>
      <path class="st18" d="M677.9,185.2c7.2,6.2,13.1,17.1,13.7,26.6s-.3,8.6,0,12.7.2.9.3,1.4l-7.5-4.1c-1.2-.7-2.6-2.1-2.8-3.6-.5-4.4.7-9.8-.4-14.2s-7.9-14.1-14.3-11.5-3.4,9.8-3.4,13.9-.2,1-.2,1.6.4,1.2.3,1.9c-2.5-2-7.5-3-7.8-6.7s-.3-12.6.6-15.8c3.3-11.6,14.5-7.9,21.4-2v-.2h.1Z"/>
      <path class="st18" d="M668.1,170.3c-3.6-2-7-4.5-10.8-6,2.2-1,4.2-2.5,6.4-3.7s2.4-1.5,3.9-1.4c2.6.1,8.7,4.9,11.6,6.1,4.7,2.1,11.7,2,16.1-.7s4.7-6.2,1.9-9.5-9-5.9-11-6.8-.4-.1-.6,0c0-.2.3-.3.4-.5,1.1-.8,5.2-3.2,6.4-3.4s1.1-.1,1.5,0c1.4.2,7.6,4,9.3,5,6.5,4,12.4,10,5.9,17.5-8.9,10.3-29.9,9.6-41,3.6v-.2h0Z"/>
      <path class="st18" d="M716.5,186.6c.9-.9,1.8-1.6,3-2.1h.3c1.7,1.1,3.7,2,5.4,3.1,3.6,2.4,4.2,6.5.5,9.1s-8.8,5.3-10.3,5.6c-3.4.5-4.4-3-4.1-5.7s2.7-7.5,5.3-9.9h-.1Z"/>
      <path class="st18" d="M673.5,196.1c3.6,2.9,6.2,8.1,5.9,12.8-2.8,1.3-6.2,4.6-9.5,4.1s-3.8-2.1-4.1-4-.3-9.4,0-11.2.3-1,.4-1.3c1.4-3.5,5.1-2.2,7.3-.4h0Z"/>
      <path class="st18" d="M682.8,150.2c1.3-.1,2.1.2,3.3.7,1.8.9,8.1,4.4,9.3,5.7,2,2,1.1,4.4-1,5.8-3.5,2.4-9.1,2.6-13,1.3s-2.7-1.2-2.9-1.5,0-.3-.2-.5c-.2-1.3-.2-6.5,0-7.7.4-2,2.4-3.7,4.4-3.8h.1Z"/>
    </g>
    <polygon class="st6" points="607.8 432.9 779.8 432.9 780.8 447.4 779.8 450.6 607.8 450.6 606.8 447.4 607.8 432.9"/>
  </g>
  <g>
    <path class="st1" d="M529.6,433.2l140.5,49.3c3.4,1.2,3.9-2.8,4.9,0,0,.5,2,7.4,2.2,7.7.3,2.3,0,5.2-1.7,7.7l-34,55.7c-3.7,6.2-12.4,9.5-19.3,7.2l-140.3-49.5c-3.2-1.2-5.3-3.2-6.5-5.9-.2-.5-2-6.9-2-7.4-.5-2.5,3-2.8,4.7-5.5l32.6-52.5c3.9-6.2,12.4-9.5,19.1-7.2v.3h0Z"/>
    <path class="st10" d="M531.4,432.2l7.9,2.7,94.9,124.9c-3.4,1.2-7,1.4-10.4.2l-140.3-49.5c-3.2-1.2-5.3-3.2-6.5-5.9-.2-.5-2-6.9-2-7.4-.5-2.5,3-2.8,4.7-5.5l32.6-52.5c3.9-6.2,12.4-9.4,19.1-7.2l.2.2h-.1,0Z"/>
    <path class="st7" d="M527.7,426.7l140.3,49.3c6.9,2.3,9.2,9.4,5.3,15.6l-33.9,55.9c-3.9,6.2-12.4,9.4-19.3,7.2l-140.3-49.3c-6.7-2.3-9-9.4-5.3-15.6l33.9-55.9c3.9-6.2,12.6-9.5,19.3-7.2h0Z"/>
    <path class="st8" d="M526.4,421.8l140.3,49.3c3.4,1.2,4-2.8,4.9,0,.2.5,2,7.4,2.2,7.7.5,2.3,0,5.2-1.7,7.7l-33.9,55.9c-3.9,6.2-12.6,9.4-19.3,7.2l-140.3-49.3c-3.2-1.2-5.5-3.4-6.5-5.9-.2-.5-2-6.9-2.2-7.4-.5-2.5,3-2.8,4.7-5.5l32.6-52.5c3.9-6.2,12.6-9.5,19.3-7.2h0Z"/>
    <path class="st10" d="M528.4,420.8l7.7,2.7,95.1,124.9c-3.4,1.2-7,1.4-10.4.2l-140.3-49.3c-3.2-1.2-5.5-3.4-6.5-5.9-.2-.5-2-6.9-2.2-7.4-.5-2.5,3-2.8,4.7-5.5l32.6-52.5c3.9-6.2,12.6-9.4,19.3-7.2h.2-.1,0Z"/>
    <path class="st7" d="M524.7,414.3l140.3,49.3c6.7,2.3,9.2,9.4,5.3,15.6l-33.9,55.9c-3.9,6.2-12.6,9.4-19.3,7.2l-140.3-49.3c-6.9-2.3-9.2-9.4-5.3-15.6l33.9-55.9c3.9-6.2,12.6-9.5,19.3-7.2h0Z"/>
    <path class="st3" d="M523.7,409.8l140.3,49.3c3.4,1.2,3.9-2.8,4.9,0,0,.5,2,7.4,2.2,7.7.5,2.3,0,5.2-1.7,7.9l-34,55.7c-3.7,6.2-12.4,9.5-19.3,7.2l-140.3-49.3c-3.2-1.2-5.3-3.2-6.5-5.9-.2-.5-2-6.9-2-7.4-.5-2.5,3-2.8,4.7-5.5l32.6-52.5c3.9-6.2,12.4-9.5,19.3-7.2h0Z"/>
    <path class="st10" d="M523.7,409.8l7.7,2.7,94.9,124.9c-3.4,1.2-7,1.4-10.4,0l-140.3-49.3c-3.2-1.2-5.3-3.2-6.5-5.9-.2-.5-2-6.9-2-7.4-.5-2.5,3-2.8,4.7-5.5l32.6-52.5c3.9-6.2,12.4-9.4,19.3-7.2l.2.2h-.1,0Z"/>
    <path class="st14" d="M521.7,403.2l140.3,49.3c6.9,2.3,9.2,9.4,5.3,15.6l-33.9,55.9c-3.7,6.2-12.4,9.4-19.3,7.2l-140.3-49.5c-6.7-2.3-9-9.2-5.3-15.5l33.9-55.9c3.9-6.2,12.6-9.5,19.3-7.2h0Z"/>
    <path class="st7" d="M527.9,411.2l113.9,40.1s1.5.5,1.7.7c10.7,4.2,20.8,8.2,14.1,18.8-.7,1.2-1.8,3-2.3,3.7l-21.8,35.7c-8.4,14.1-8.7,18.3-27.2,11.9-.5-.2-.7-.2-1.4-.3l-113.2-39.9c-1-.3-2-.9-3-1.4-10.5-4.8-12.7-12.8-6.7-24.1,0-.2.2-.3.3-.5l19.8-32.6h0c9.7-14.6,10.7-16.8,25-12.2,0,0,.9.3.9.2h0Z"/>
    <path class="st5" d="M571.3,420.7l36.5,12.9-45.1,79-36.5-12.9,45.1-79h0Z"/>
    <path class="st4" d="M537,528.5l36.5,12.9-10.7-28.9-36.5-12.9,10.7,28.9h0Z"/>
    <g>
      <rect class="st22" x="557.7" y="454.6" width="22" height="22" transform="translate(-80.3 810.5) rotate(-67.3)"/>
      <path d="M570.9,475l-4.5.5c-.5,0-.9-.3-.9-.7.5-1.4,1.4-2.7,1.5-4.2.5-2.3,0-5.5-1.4-7.6s-3.5-3.2-5.5-1.2l-.5.5s0-.3.2-.3c.5-1.2,1-2.5,1.5-3.7s.7-.7,1.2-.3c1.4,1.7,2.3,3.2,4,4.4s6.5,2.5,8.7.7,1.4-2.8.5-4.2l3,3.9c0,.3.2.7,0,1s-.3.2-.5.3c-1.2.2-2.3.2-3.5.5-2.7.7-5.5,3-6.7,5.3s-.9,4.4,1.7,5.1.5,0,.9,0h.3,0Z"/>
      <path d="M578.3,466.6c-.2.3-.7.5-1,.5-2.2.3-3.7,0-5.2,2s-1,3.4,1,3.2,1.7-.2,2.3-.3.3,0,.3,0c.2,0,0,0,0,.2-.5,1-.3,1.7-1.7,2s-3,.5-3.9.3c-1.8-.3-2.3-1.8-1.7-3.5.9-2.7,3.7-5.1,6.4-5.7,2.7-.7,2.5-.3,3.7-.5s.3,0,.5-.2h0c-.2.7-.7,1.7-1,2.2l.2-.2h0Z"/>
      <path d="M565.5,464.1c1,2.2,1.4,5.2.7,7.6s-.9,2-1.2,2.8,0,.2,0,.3l-1.4-1.7c-.2-.3-.3-.7-.3-1,.3-1,1.2-2.2,1.4-3.4s-.5-4-2.2-4-1.7,1.8-2.2,2.8,0,.2-.2.3,0,.3,0,.5c-.3-.7-1.5-1.4-1.2-2.3s1.2-3,1.7-3.5c1.8-2.3,4.2-.5,5.2,1.7l-.3-.2h0Z"/>
      <path d="M564.6,459.7c-.7-.9-1.2-1.7-1.8-2.3.7,0,1.2-.2,1.8-.2h1c.7.3,1.5,2,2,2.5.9,1,2.5,1.5,3.9,1.4s1.7-1,1.4-2-1.5-2.2-1.8-2.7,0,0,0,0h0c.3,0,1.5-.2,1.8,0s.3,0,.3,0c.3.2,1.4,1.7,1.7,2,1.2,1.5,1.8,3.5-.3,4.5s-7.9-.7-9.7-3.2h-.2,0Z"/>
      <path d="M574.4,468.1c.3,0,.5-.2.9-.2h0c.3.5.7.9,1,1.4.7.9.3,1.8-.9,2.2s-2.5.3-2.8.3c-.9-.2-.7-1.2-.3-1.7s1.4-1.5,2.2-1.8v-.2h0Z"/>
      <path d="M563.5,466.3c.5,1,.7,2.5,0,3.5-.9,0-1.8.5-2.5,0s-.7-.9-.5-1.4.9-2.2,1-2.7,0-.2.2-.3c.7-.7,1.4,0,1.7.7l.2.2h0Z"/>
      <path d="M570,456.5c.3,0,.5.2.7.5.3.3,1.5,1.8,1.7,2.2.3.7,0,1.2-.9,1.2-1,.2-2.3-.3-3.2-1s-.5-.5-.5-.7,0,0,0,0c0-.3.7-1.5.9-1.8.3-.3.9-.7,1.4-.5v.2h0Z"/>
    </g>
  </g>
  <g>
    <g>
      <path class="st12" d="M869.6,485.9c.9,6.2,2.2,11.7,2,17.8-1,10.1-5.1,17.4-13,25.3-16.5,15.2-40.5,22-66.7,19.1-22.9-3.4-41.6-13.7-48-32.5l-.6-2.2-1.7-11.3.6,2.2c6.5,19.7,26.7,30,51,32.8,18.9,1.5,34.7-1.8,50.2-9.8,10.6-6,17.5-12.2,22.6-21.9,2.5-5.4,3.6-9.2,3.7-15.1v-2.2l-.2-2.2h0Z"/>
      <path class="st9" d="M784.3,546.7c-18.9-4.6-34.8-14.8-40.3-31.1l-.6-2.2-1.7-11.3.6,2.2c5.5,16.7,21,26.6,40.2,30.9l1.9,11.6h-.1Z"/>
      <path class="st17" d="M835.8,452.7c31.4,10.3,43.2,36.7,26.4,58.9-16.7,22.3-55.7,31.9-87.1,21.6-31.4-10.2-43.2-36.7-26.4-58.8,16.8-22.2,55.9-31.9,87.2-21.5h-.1q0-.1,0-.1Z"/>
      <path class="st15" d="M832.4,454.2c29.1,9.5,40,34,24.6,54.5-15.5,20.6-51.8,29.6-80.8,19.9-29.1-9.5-40-34-24.4-54.5,15.5-20.6,51.7-29.5,80.7-20.1h-.1c0,.1,0,.1,0,.1h0Z"/>
      <g>
        <path class="st22" d="M845.9,483.6c-6.9,8.1-24.9,29.1-31,36.3-10.8-3.9-31.6-11.2-43.6-15.4-3.9-1.4-6.4-2.3-6.4-2.3,0,0,1.9-2.3,4.8-5.7,6.1-7.2,21.5-25,26.1-30.5.2,0,.4.1.7.2,12.2,4.3,36.5,12.9,49.3,17.3h0Z"/>
        <path d="M794.7,511.1c-1.4-.1-2.2-.9-1.5-1.8,1.4-1.9,3.3-3.6,4.7-5.5,6.2-7.6.9-24.9-12.9-18.5-.5.2-1.5,1.1-1.8,1.2.9-1.1,2.1-2.6,3-3.8,1.2-1.5,2.7-3.4,4.3-4.5.4-.2.7-.4.9-.3.4,0,.9.4,1.4.9,2.5,3,4.6,5.9,8.6,8.1,6,3,20,6.3,26.6.2,2-1.6.9-3.5-.2-5.4,1.2,1.3,6,6.9,6.2,7.2.6,1.3-.6,2.4-2.2,2.3-5.9.2-11.4.4-17,2.6-7.3,2.2-22.5,13-9.5,16.7"/>
        <path d="M821.9,505.5c-1.3,1.7-1.8,3.1-4.2,3.6-2.2.4-4.6.4-6.9.6-5.8.4-11.6-1.8-7.9-6.9,4.9-6.5,17.5-10.9,27.1-10.5,1,.1,2.3,0,3.4-.1.1,0,0,.2-.2.4-.7.9-1.5,1.8-2.2,2.7-.7,1-2.1,1.7-3.5,1.7-5.6.5-9.6-.2-14.5,3-3.6,2.2-5.7,6,1.4,6s4.2,0,6.3-.3"/>
        <path d="M791.3,509.8c-.1-.2-2.3-2.6-2.9-3.4-1-1.3,0-2.4,1.2-3.6,1.8-2,3.8-3.9,3.7-6.3,0-2.6-1.2-5.8-5.2-5.6-2.2,0-3.8,1.5-4.7,3-.6,1-1.4,2.2-2.2,3-.2.2.2-.2.1-.1-.1,0-.3.6-.5.7-.8-1-2.4-2.2-2.4-3.4.6-1.9,2.8-3.8,4.2-5.5,4.5-5.2,11.4-4.4,14.5,1,2.8,4.6,1.8,11.9-2.6,16.4-1.1,1.4-2.1,2.2-3.1,3.4"/>
        <path d="M797.3,482c-1.3-1.4-2.5-3.1-3.9-4.6,1.7-.2,3.4-.2,5.4-.4,1.4-.2,2.5.2,3.4,1.1s2.2,2.8,3,3.8c6.7,6,21.3,3.9,10.1-5.4-.2-.1.4-.1.8-.2.4,0,1,0,1.7-.1,1.4,0,3.1-.3,3.9.6,17.8,16.9-15.7,14.1-24.2,5.3h-.1c0-.1,0,0,0,0Z"/>
        <path d="M819.2,498.4c.8-.2,1.6-.2,2.4-.2h.1c.5.9,1.5,1.6,2,2.4,1.3,1.7.1,3.6-3,3.9s-6.9.5-7.9.2c-2.2-.4-1.5-2.2-.4-3.2s4.1-2.6,6.5-3h.2c0-.1,0-.1,0-.1h0Z"/>
        <path d="M791.4,493.8c1,2,.6,4.6-1.2,6.5-2,0-5.2.6-6.9-.2s-1.4-1.6-1-2.5,3.2-3.9,4-4.6.4-.4.6-.5c2-1.2,3.6.1,4.3,1.4h.1Z"/>
        <path d="M813,476.7c.7.2,1.2.5,1.6.9.7.7,3.1,3.4,3.3,4.2.5,1.3-.9,2-2.7,2.2-2.8.3-6-.7-7.8-2.1-1.4-1-1.2-1-1.2-1.2s0,0,.2-.2c.5-.6,2.3-2.6,2.8-3.2,1-.7,2.7-1.1,3.9-.7h0Z"/>
      </g>
    </g>
    <g>
      <path class="st12" d="M848.8,455.8c1.8,5.9,4.1,11.2,5,17.2.7,10.2-2.1,18-8.5,27.1-13.8,17.8-36.3,28.4-62.6,30-23.2.4-43.4-6.5-52.7-24l-.9-2-3.6-10.8.9,2c9.7,18.3,31.4,25.2,55.8,23.8,18.9-1.7,33.9-7.6,47.9-18.1,9.5-7.7,15.2-14.9,18.7-25.4,1.5-5.7,2-9.7,1.1-15.5l-.3-2.1-.7-2.1h0Z"/>
      <path class="st9" d="M774.8,530c-19.4-1.4-36.8-8.8-44.9-24l-.9-2-3.6-10.8.9,2c8.2,15.5,25.1,22.8,44.8,23.8l3.8,11.1h-.2Z"/>
      <path class="st17" d="M809.9,428.8c32.7,5,48.7,28.9,35.9,53.6-12.7,24.7-49.6,40.8-82.3,35.9-32.7-4.9-48.7-28.9-35.9-53.6s49.8-40.7,82.4-35.8h-.1Z"/>
      <path class="st15" d="M806.8,430.8c30.3,4.6,45.1,26.8,33.4,49.6-11.8,22.9-46.1,37.8-76.3,33.2-30.3-4.6-45.1-26.8-33.2-49.7,11.8-22.9,46.1-37.7,76.2-33.2h0c0,.1-.1.1-.1.1h0Z"/>
      <g>
        <path class="st22" d="M825,457.5c-5.4,9.1-19.7,32.8-24.5,41-11.3-2-33-5.8-45.6-7.9-4.1-.7-6.6-1.2-6.6-1.2,0,0,1.5-2.5,3.8-6.4,4.8-8.1,17-28.2,20.6-34.4.2,0,.4,0,.7.1,12.8,2.2,38.2,6.6,51.5,8.9h0Z"/>
        <path d="M779.1,493.2c-1.4.1-2.3-.5-1.7-1.5,1.1-2.1,2.6-4.1,3.7-6.3,4.8-8.5-3.3-24.7-15.9-16.1-.5.2-1.3,1.4-1.5,1.4.7-1.2,1.7-2.9,2.3-4.2,1-1.7,2.2-3.8,3.5-5.2.3-.3.6-.4.9-.5.4,0,1,.2,1.5.6,3,2.5,5.5,5.1,9.8,6.5,6.4,2,20.7,3,26.3-4.2,1.7-1.9.3-3.6-1.1-5.2,1.4,1,7,5.8,7.3,6,.8,1.2-.1,2.5-1.8,2.6-5.8,1.2-11.2,2.3-16.4,5.4-6.8,3.4-20.1,16.5-6.6,18.1"/>
        <path d="M805,483.1c-1,1.8-1.3,3.3-3.6,4.2-2.2.8-4.4,1.2-6.7,1.7-5.6,1.4-11.7.2-8.9-5.5,3.7-7.3,15.4-13.7,25-14.8,1,0,2.3-.4,3.3-.7.1,0,0,.2-.1.4-.6,1-1.2,2.1-1.7,3-.6,1.2-1.8,2-3.2,2.3-5.5,1.4-9.5,1.4-13.8,5.4-3.2,2.8-4.6,6.8,2.3,5.7,2.5-.4,4.1-.7,6.2-1.4"/>
        <path d="M775.5,492.5c-.1-.1-2.7-2.2-3.4-3-1.2-1.1-.4-2.4.6-3.7,1.5-2.3,3.1-4.4,2.6-6.9-.4-2.5-2.2-5.5-6.1-4.7-2.2.4-3.4,2.1-4.1,3.8-.4,1-1,2.4-1.6,3.3-.1.2.2-.3,0-.1,0,0-.2.7-.4.7-.9-.8-2.7-1.7-3-3,.2-2,2.1-4.2,3.3-6.1,3.5-5.8,10.5-6.3,14.5-1.5,3.4,4,3.8,11.4.2,16.6-.9,1.6-1.7,2.5-2.5,3.9"/>
        <path d="M776.8,464c-1.5-1.2-3-2.7-4.6-3.9,1.7-.6,3.3-.8,5.2-1.2,1.4-.4,2.5-.2,3.5.6,1.2.9,2.6,2.3,3.6,3.2,7.6,4.9,21.7.3,9-7-.2,0,.4-.2.7-.3.4-.1,1-.2,1.7-.4,1.3-.2,3-.9,3.9-.1,20.3,13.7-13.2,16.6-22.9,9.2h-.1c0-.1,0-.1,0-.1h0Z"/>
        <path d="M801.2,476.6c.7-.4,1.5-.5,2.3-.7h.1c.6.7,1.7,1.3,2.3,2,1.5,1.5.7,3.5-2.3,4.4s-6.7,1.6-7.7,1.5c-2.2,0-1.8-1.9-.9-3.1s3.7-3.2,5.9-4.1h.2,0Z"/>
        <path d="M773,476.7c1.4,1.7,1.4,4.4-.1,6.5-2,.4-5,1.5-6.8.9s-1.6-1.4-1.4-2.3c.2-1,2.5-4.4,3.1-5.2s.3-.5.5-.6c1.8-1.5,3.6-.5,4.5.6h.2Z"/>
        <path d="M791.4,456.2c.8.1,1.2.3,1.7.6.9.6,3.6,2.9,3.9,3.6.7,1.2-.6,2.1-2.3,2.6-2.8.8-6.1.2-8.1-.7-1.6-.8-1.4-.8-1.4-1s0,0,.1-.2c.4-.6,1.8-3,2.2-3.6.9-.9,2.5-1.5,3.8-1.4h0Z"/>
      </g>
    </g>
    <g>
      <path class="st12" d="M821.6,429.9c4.6,5,9.1,9.3,13,14.7,5.7,9.6,7.4,18.1,6.5,29.2-2.6,22.1-16.4,40.5-37.8,51.5-19.4,8.9-40,9.4-56.8-4l-1.8-1.6-8.5-9.1,1.8,1.6c17.5,14.1,39.3,12.8,59.4,2.6,15.2-8.5,24.9-19.6,31.4-34.8,4.1-10.9,5.3-19.9,3-31.2-1.6-6-3.3-10-7-15.3l-1.4-1.9-1.6-1.8h0Z"/>
      <path class="st0" d="M796.6,528.1c-17.1,5.7-35.6,4.9-50.2-6.8l-1.8-1.6-8.5-9.1,1.8,1.6c14.9,11.9,32.8,12.8,50.1,6.6l8.9,9.3h-.2Z"/>
      <path class="st17" d="M775,418c30.2-7.1,56,10.1,57.6,38.6,1.8,28.4-21.3,57.3-51.5,64.3-30.2,7.2-56-10.1-57.6-38.6s21.5-57.3,51.7-64.3h-.1Z"/>
      <path class="st15" d="M773.4,421c28-6.6,51.8,9.4,53.4,35.6,1.6,26.4-19.9,53.1-47.9,59.7-28,6.6-51.8-9.4-53.3-35.8-1.6-26.4,19.9-53,47.7-59.7h0v.2Z"/>
      <g>
        <path class="st22" d="M802.4,440.2v48.3c-10.6,2.2-30.9,6.5-42.6,8.9-3.8.8-6.2,1.3-6.2,1.3v-48.2c.2,0,.4,0,.7-.1,12-2.5,35.7-7.6,48.2-10.1h0Z"/>
        <path d="M781.6,491.2c-1,.6-2.2.4-2.3-.9-.1-2.4.1-4.9,0-7.4-.2-10-15.3-22.6-21.6-9.7-.2.4-.4,1.8-.6,2,0-1.4,0-3.4-.1-4.9,0-2-.1-4.4.4-6.2.1-.4.3-.7.5-.7.4-.1.9-.1,1.6,0,3.8,1.4,7.2,2.9,11.6,2.7,6.4-.4,19.1-4.7,20.2-13.6.4-2.5-1.5-3.6-3.6-4.7,1.7.6,8.9,3,9.3,3.2,1.3.8,1.1,2.5-.2,3.1-4.3,3.2-8.3,6.3-11.1,11.1-4.1,5.7-8.5,23.2,3.6,19.8"/>
        <path d="M798.4,472.1c0,2.2.6,3.7-.9,5.4-1.4,1.5-3.1,2.8-4.9,4.1-4.1,3.3-9.8,4.4-10.3-2-.6-8.3,6.1-18.8,13.6-23.4.9-.4,1.8-1.2,2.5-1.8.1,0,.1.1.1.4v3.6c.1,1.3-.5,2.6-1.5,3.3-3.9,3.3-7.4,4.8-9,10.1-1.3,3.8-.4,8.2,4.9,4.6,1.9-1.3,3.1-2.2,4.6-3.6"/>
        <path d="M778.2,491.7c-.2-.1-3.4-1.2-4.4-1.6-1.6-.7-1.5-2.2-1.4-3.8.1-2.7.4-5.4-1.3-7.6-1.7-2.3-4.6-4.6-7.5-2.3-1.6,1.2-1.8,3.3-1.6,5.1.2,1.2.3,2.6.3,3.7s0-.4,0-.2.1.7,0,.9c-1.2-.4-3.2-.7-4-1.8-.8-2-.4-4.9-.4-7.1,0-6.9,5.7-9.8,11.6-6.6,5,2.6,9,9.6,8.6,15.9,0,1.8-.2,3,0,4.7"/>
        <path d="M764.8,463.9c-1.9-.6-3.9-1.5-5.8-2.1,1.2-1.1,2.5-2,3.8-3.1,1-.9,2-1.1,3.3-.7,1.5.4,3.4,1.4,4.7,1.8,8.9,1.9,18.6-7.6,4.1-10-.2,0,.2-.4.5-.6.3-.2.7-.6,1.2-.9,1-.7,2.1-1.8,3.3-1.5,24.2,5.8-2.8,20.8-14.8,17.2h-.2Z"/>
        <path d="M791.9,467.1c.4-.6,1-1,1.6-1.5h.1c.9.4,2.1.6,3,1,2.1.9,2.3,3.1.3,5s-4.9,4-5.7,4.2c-1.9.7-2.5-1.2-2.3-2.6s1.5-4.4,3-6h.1Z"/>
        <path d="M768.1,477.5c2.1,1.2,3.4,3.7,3.3,6.3-1.5,1-3.5,3.3-5.3,3.4s-2.1-.7-2.3-1.8-.1-5.2,0-6.2,0-.6.1-.7c.7-2.1,2.8-1.8,4.1-1h.1,0Z"/>
        <path d="M773.2,451.1c.7-.1,1.2-.1,1.8,0,1,.3,4.6,1.5,5.2,2.1,1.2.9.6,2.2-.6,3.4-1.9,1.8-5,2.5-7.2,2.2s-1.6-.2-1.6-.4v-4.6c.3-1.2,1.4-2.3,2.5-2.6h0Z"/>
      </g>
    </g>
  </g>
  <path class="st23" d="M959.3,125.8"/>
</svg>