<?xml version="1.0" encoding="UTF-8"?>
<svg id="Layer_1" xmlns="http://www.w3.org/2000/svg" version="1.1" viewBox="0 0 1366 768">
  <!-- Generator: Adobe Illustrator 29.1.0, SVG Export Plug-In . SVG Version: 2.1.0 Build 142)  -->
  <defs>
    <style>
      .st0 {
        fill: #ece4cf;
      }

      .st1, .st2, .st3, .st4, .st5, .st6, .st7, .st8, .st9, .st10, .st11 {
        stroke: #000;
      }

      .st1, .st3, .st5, .st8, .st9, .st10, .st11 {
        stroke-miterlimit: 10;
      }

      .st1, .st4, .st6, .st7, .st9 {
        stroke-width: 6px;
      }

      .st1, .st10 {
        fill: #c26600;
      }

      .st2 {
        stroke-width: 1.1px;
      }

      .st2, .st4, .st6, .st7 {
        fill-rule: evenodd;
      }

      .st2, .st6 {
        stroke-linejoin: bevel;
      }

      .st12 {
        fill: #afa586;
      }

      .st3, .st8, .st11 {
        fill: none;
      }

      .st13, .st14 {
        fill: #593800;
      }

      .st4, .st6, .st15 {
        fill: #fdbf09;
      }

      .st16, .st14, .st17 {
        display: none;
      }

      .st16, .st18 {
        fill: #d67000;
      }

      .st5, .st8, .st10 {
        stroke-width: 2px;
      }

      .st7 {
        fill: #fdd322;
      }

      .st19 {
        fill: #feba09;
      }

      .st20 {
        fill: #fefae1;
      }

      .st9 {
        fill: #fff;
      }

      .st21 {
        fill: #38a0fb;
      }

      .st11 {
        stroke-width: 5px;
      }

      .st22 {
        fill: #fdbe0a;
      }

      .st23 {
        fill: #fed224;
      }

      .st24 {
        fill: #030504;
      }
    </style>
  </defs>
  <path class="st23" d="M569.3,404.2c39.5,0,79.1-.1,118.6-.2,3.8,0,7.1,1.1,10.1,3.5.3.3.6.7.8,1,.3.3.6.6.9,1,3.8,5.9,4,13,5,19.7,1.5,11.3,3,22.3,4.7,33.7h-162.1c2.2-15.7,4.4-31.7,6.6-47.6,2.4-5.3,3.8-7.8,8.8-10.4,2.2-.7,4.3-.6,6.7-.6h0Z"/>
  <path class="st15" d="M618.5,321.6h19.7c.9,25.5,5.2,53.1,24.4,71.7,2.5,2.1,5.2,3.8,7.9,5.5-3,1-6.2.5-9.3.6h-73.9v-1.1c.9-.7,1.8-1.3,2.7-1.9,23.1-17,27.4-48,28.5-74.7h0Z"/>
  <path class="st20" d="M547.1,137.8h1.2c1.9.6,2.7,1.6,4,3.1.2,1.2.3,2.5.3,3.8v78.9c-.6,14.6,3.8,28,13.4,39.2,1.8,2.2,2.8,4,3,5.4-.3,2.3-.7,3.2-2.4,4.7-2.2.7-3.3.8-5.4-.2-11-8.6-17.3-24.2-19.2-37.6-.4-4.1-.2-8.2-.2-12.2v-80.1c.6-2.9,2.5-4.9,5.5-4.9h-.2Z"/>
  <path class="st22" d="M696.8,406.4c6.8,5.7,6.7,14.9,7.9,23,1.2,9.1,2.4,18.1,4,27.1,0,1.9-.2,3.8-.5,5.8h-14.2c-1.6-9.5-1.2-7.9-1.8-14.3s-1.3-12.7-2.3-19.1c-1-7.5-2.3-15.1-5.4-22-.3-.7-.4-1.4-.4-2.1,4.8-.8,8.4-1,12.6,1.6h.1Z"/>
  <path class="st19" d="M618.5,321.6h19.7v13.1c-.2-.7-.4-1.5-.5-2.2h-18.1c-.4.7-.7,1.4-1.1,2.2v-13.1h0Z"/>
  <path class="st3" d="M840.8,223.5"/>
  <path class="st1" d="M627.9,468.7h-.7l86.6-1.1,1-3s-2.5-63.4-19-64.4c-57.3-3.5-52.1-78.3-52.1-78.3,0,0,46.1,3.5,77.6-39.6,1.7-2.3,3.9-2,3.9-2,68.3-4.5,102.8-87.1,102.6-125.9-.2-38.8-28.7-38.3-28.7-38.3l-50.2-1.6c.3-23.1-7.1-20.5-7.1-20.5l-115.3,1.4"/>
  <path class="st1" d="M628.9,468.7h.7l-86.6-1.1-1-3s2.5-63.4,19-64.4c57.3-3.5,52.1-78.3,52.1-78.3,0,0-46.1,3.5-77.6-39.6-1.7-2.3-3.9-2-3.9-2-68.3-4.5-102.8-87.1-102.6-125.9.2-38.8,28.7-38.3,28.7-38.3l50.2-1.6c-.3-23.1,7.1-20.5,7.1-20.5l115.3,1.4"/>
  <path class="st10" d="M611.4,321.9"/>
  <path class="st10" d="M628.3,95.4"/>
  <path class="st9" d="M738.5,249.3s57.8-18.8,57.5-103.5c0-4.8-55.9-2.7-55.9-2.7,0,0,1.1,100.8-1.6,106.2Z"/>
  <path class="st9" d="M518.9,251.3s-57.8-18.8-57.5-103.5c0-4.8,55.9-2.7,55.9-2.7,0,0-1.1,100.8,1.6,106.2Z"/>
  <path class="st18" d="M561.8,299.3c-4.8-.9,10.4,6.2,16.3,8.3,28.3,9.8,59,12.8,88.4,4.8,36.2-11.5,52.6-36.6,60.8-64.7,4.8-26.8,3.4-72.3,3.9-105.2v-17.8c0-1.6-.9-2.7-2.5-2.8-5.4-.6-11.9-.3-17.4-.3-1.8.2-5.6-.4-5.2,2.3,1.3,13.8,2.4,29.6,2.4,47.7-.8,35.6-2.2,83.7-29.7,108.1-33.9,27.6-78.6,31.1-116.8,19.6h-.2Z"/>
  <path class="st11" d="M815,330.5"/>
  <path class="st18" d="M730.2,115c1.2-1.9.9-5.5,1-8,0-2,0-4-1.2-5.5-1.3-1.4-3.5-1.1-5.4-1.2-4.3,0-10.1.2-14.4.3-2.3,0-4.4.7-4.8,3.4-.3,1.9-.3,4.6-.3,6.7s0,3,.8,4.3c1,2,4.2,1.6,7,1.6s7.1,0,10.5-.2c2.5,0,5.8,0,6.6-1.5h.2Z"/>
  <g>
    <rect class="st16" x="499.2" y="156.9" width="212" height="212"/>
    <path class="st18" d="M648,235.4l-16.1,9.1c-1.6.7-3.3,0-4.1-1.5-.5-5.8.5-11.8-.6-17.6-1.9-9.6-8.5-20.3-16.6-25.9s-17.9-6.3-22,3.9l-.9,2.9c0-.6,0-1.3.2-1.9.2-5.2-.4-10.9,0-16.1.2-2,1.4-3.7,3.6-3.2,7.2,4.1,13.4,8.5,21.9,9.8,10.1,1.6,27.9-.8,33.4-10.8,3.3-6.2.5-12.3-4.6-16.2l17,9.4c1,1,1.7,2.1,1.5,3.6s-.9,1.4-1.7,1.9c-3.9,2.5-8.3,4.3-12,7.1-8.6,6.6-15.8,19.4-16.2,30.3-.3,9,3.9,17.3,14,16s2.2-.6,3.3-.8h-.1Z"/>
    <path class="st18" d="M662.1,193.2c-.2,1.4-1.6,2.7-2.7,3.5-7.2,4.6-13.3,5.8-16.1,15.1-1.9,6.5,1.1,13.8,8.8,10.2,2.5-1.2,5.8-3.2,8.3-4.7s.8-.7,1.2-1c.8-.6.3.4.3.8,0,4.5,1.2,7-3,9.8s-10.1,6.3-14,7c-7.2,1.3-11.5-3.5-11.9-10.4-.7-11.2,6.1-24.3,14.8-31.1,3.9-3.1,8.6-4.9,12.7-7.6s1.1-.7,1.5-1.4c.5,0,0,.3,0,.4,0,2.6.4,7.3,0,9.6v-.2Z"/>
    <path class="st18" d="M611.7,203.5c7.2,6.2,13.1,17.1,13.7,26.6s-.3,8.6,0,12.7.2.9.3,1.4l-7.5-4.1c-1.2-.7-2.6-2.1-2.8-3.6-.5-4.4.7-9.8-.4-14.2s-7.9-14.1-14.3-11.5-3.4,9.8-3.4,13.9-.2,1-.2,1.6.4,1.2.3,1.9c-2.5-2-7.5-3-7.8-6.7s-.3-12.6.6-15.8c3.3-11.6,14.5-7.9,21.4-2v-.2Z"/>
    <path class="st18" d="M601.9,188.6c-3.6-2-7-4.5-10.8-6,2.2-1,4.2-2.5,6.4-3.7s2.4-1.5,3.9-1.4c2.6.1,8.7,4.9,11.6,6.1,4.7,2.1,11.7,2,16.1-.7s4.7-6.2,1.9-9.5-9-5.9-11-6.8-.4-.1-.6,0c0-.2.3-.3.4-.5,1.1-.8,5.2-3.2,6.4-3.4s1.1-.1,1.5,0c1.4.2,7.6,4,9.3,5,6.5,4,12.4,10,5.9,17.5-8.9,10.3-29.9,9.6-41,3.6v-.2Z"/>
    <path class="st18" d="M650.3,204.9c.9-.9,1.8-1.6,3-2.1h.3c1.7,1.1,3.7,2,5.4,3.1,3.6,2.4,4.2,6.5.5,9.1s-8.8,5.3-10.3,5.6c-3.4.5-4.4-3-4.1-5.7s2.7-7.5,5.3-9.9h-.1Z"/>
    <path class="st18" d="M607.3,214.4c3.6,2.9,6.2,8.1,5.9,12.8-2.8,1.3-6.2,4.6-9.5,4.1s-3.8-2.1-4.1-4-.3-9.4,0-11.2.3-1,.4-1.3c1.4-3.5,5.1-2.2,7.3-.4h0Z"/>
    <path class="st18" d="M616.6,168.5c1.3-.1,2.1.2,3.3.7,1.8.9,8.1,4.4,9.3,5.7,2,2,1.1,4.4-1,5.8-3.5,2.4-9.1,2.6-13,1.3s-2.7-1.2-2.9-1.5,0-.3-.2-.5c-.2-1.3-.2-6.5,0-7.7.4-2,2.4-3.7,4.4-3.8h.1Z"/>
  </g>
  <polygon class="st5" points="541.6 451.2 713.6 451.2 714.6 465.7 713.6 468.9 541.6 468.9 540.6 465.7 541.6 451.2"/>
  <g>
    <path class="st6" d="M844.7,498.2c1.1,7.9,2.8,15.1,2.6,23-1.4,13.1-6.6,22.5-16.8,32.6-21.4,19.6-52.3,28.4-86.2,24.6-29.6-4.4-53.8-17.7-62-41.9l-.7-2.8-2.2-14.5.7,2.8c8.4,25.4,34.5,38.8,65.9,42.3,24.5,1.9,44.8-2.3,64.8-12.7,13.7-7.8,22.6-15.7,29.2-28.3,3.2-6.9,4.6-11.9,4.8-19.5v-2.8l-.3-2.8h0Z"/>
    <path class="st2" d="M734.6,576.6c-24.4-5.9-45-19.1-52-40.2l-.7-2.8-2.2-14.5.7,2.8c7.1,21.5,27.1,34.4,52,40l2.5,14.9h-.2v-.2Z"/>
    <path class="st4" d="M801.1,455.3c40.5,13.3,55.8,47.3,34.1,76-21.5,28.8-72,41.2-112.5,27.9-40.6-13.2-55.8-47.3-34.1-75.9,21.7-28.7,72.2-41.1,112.6-27.8h-.2v-.2Z"/>
    <path class="st7" d="M796.7,457.2c37.6,12.3,51.6,43.8,31.8,70.4-20,26.6-66.9,38.2-104.4,25.7-37.6-12.3-51.6-43.8-31.5-70.4,20-26.6,66.8-38.1,104.2-25.9l-.2.2h0Z"/>
    <g>
      <path class="st17" d="M814.1,495.2c-8.9,10.4-32.2,37.6-40,46.9-14-5-40.8-14.5-56.3-19.9-5-1.7-8.3-2.9-8.3-2.9,0,0,2.5-2.9,6.2-7.3,7.9-9.3,27.7-32.3,33.7-39.4.2,0,.5.2,1,.3,15.8,5.6,47.2,16.6,63.7,22.4h0Z"/>
      <path d="M748,530.7c-1.7-.2-2.9-1.1-1.9-2.4,1.8-2.5,4.2-4.7,6-7.1,7.9-9.9,1.2-32.2-16.7-23.9-.6.2-1.9,1.4-2.3,1.5,1.2-1.4,2.7-3.3,3.9-4.8,1.6-2,3.5-4.4,5.6-5.8.5-.3.9-.5,1.2-.4.6,0,1.2.6,1.7,1.1,3.2,3.9,5.9,7.6,11.1,10.4,7.7,3.9,25.8,8.2,34.4.3,2.5-2.1,1.2-4.5-.2-6.9,1.5,1.7,7.7,8.9,8,9.3.8,1.7-.7,3.1-2.9,2.9-7.6.2-14.8.5-22,3.3-9.4,2.9-29.1,16.8-12.3,21.5"/>
      <path d="M783.1,523.4c-1.7,2.1-2.4,4-5.4,4.7-2.9.6-5.9.6-8.9.7-7.5.5-14.9-2.3-10.2-8.9,6.3-8.4,22.6-14.1,35-13.5,1.4.2,3,0,4.4-.2.2,0,0,.2-.2.5-1,1.1-1.9,2.4-2.9,3.5-1,1.4-2.7,2.1-4.5,2.2-7.2.6-12.4-.3-18.7,3.8-4.7,2.8-7.3,7.7,1.7,7.7s5.4,0,8.2-.4"/>
      <path d="M743.6,529.1c-.2-.2-2.9-3.4-3.7-4.4-1.3-1.7,0-3.1,1.5-4.6,2.4-2.5,4.9-5,4.8-8.2,0-3.3-1.5-7.5-6.8-7.2-2.9,0-4.8,1.9-6,3.9-.8,1.3-1.8,2.8-2.8,3.8-.2.2.3-.3.2-.2-.2,0-.4.8-.6.9-1-1.3-3.1-2.8-3.1-4.4.7-2.5,3.6-4.9,5.5-7.1,5.8-6.7,14.7-5.7,18.7,1.3,3.6,5.9,2.4,15.3-3.3,21.2-1.4,1.8-2.7,2.8-4,4.4"/>
      <path d="M751.3,493.1c-1.7-1.8-3.2-4.1-5-5.9,2.2-.3,4.4-.3,6.9-.5,1.8-.2,3.2.2,4.4,1.4s2.8,3.6,3.9,4.8c8.7,7.8,27.6,5.1,13-7-.3-.2.6-.2,1-.2.6,0,1.4,0,2.1-.2,1.7,0,4-.4,5,.7,23,21.8-20.3,18.3-31.2,6.8l-.2-.2h0Z"/>
      <path d="M779.7,514.4c1-.2,2.1-.3,3.1-.3h.2c.6,1.1,1.9,2.1,2.5,3.1,1.7,2.2.2,4.6-3.8,5.1s-8.9.6-10.2.3c-2.8-.6-1.9-2.8-.5-4.1s5.3-3.3,8.4-3.9h.3v-.2Z"/>
      <path d="M743.8,508.4c1.4,2.5.8,5.9-1.5,8.3-2.5,0-6.8.8-8.9-.2s-1.7-2.1-1.3-3.3,4.1-5.1,5.2-6,.5-.6.8-.6c2.5-1.5,4.7.2,5.6,1.7h.2Z"/>
      <path d="M771.6,486.2c1,.3,1.5.6,2.1,1.2,1,1,4.1,4.4,4.2,5.5.6,1.7-1.2,2.5-3.5,2.9-3.7.4-7.8-1-10.1-2.7-1.8-1.4-1.6-1.4-1.5-1.5s0,0,.2-.3c.6-.7,2.9-3.4,3.6-4.1,1.4-1,3.5-1.4,5.1-.9h0Z"/>
    </g>
  </g>
  <g>
    <path class="st6" d="M817.8,459.3c2.4,7.6,5.2,14.5,6.4,22.2.9,13.2-2.7,23.3-11,35-17.8,23-46.9,36.7-80.9,38.7-29.9.6-56-8.4-68.1-31l-1.1-2.6-4.6-14,1.1,2.6c12.6,23.7,40.5,32.5,72,30.7,24.5-2.2,43.8-9.8,61.8-23.4,12.2-10,19.6-19.3,24.1-32.8,1.9-7.4,2.5-12.5,1.4-20l-.4-2.7-.9-2.7h0Z"/>
    <path class="st2" d="M722.3,555.1c-25-1.7-47.5-11.4-58-31l-1.1-2.6-4.6-14,1.1,2.6c10.6,20,32.4,29.4,57.9,30.7l4.9,14.3h-.2Z"/>
    <path class="st4" d="M767.6,424.4c42.2,6.4,62.9,37.3,46.3,69.2-16.4,31.9-64.1,52.7-106.3,46.3-42.3-6.3-62.9-37.3-46.3-69.2,16.6-31.9,64.3-52.6,106.4-46.2h-.2Z"/>
    <path class="st7" d="M763.6,427c39.2,5.9,58.3,34.6,43.1,64-15.3,29.6-59.6,48.9-98.6,42.8-39.2-5.9-58.3-34.6-42.8-64.2,15.3-29.6,59.5-48.7,98.4-42.9v.2h-.2Z"/>
    <g>
      <path class="st17" d="M787.1,461.5c-7,11.8-25.4,42.4-31.7,52.9-14.6-2.5-42.7-7.5-58.9-10.2-5.2-1-8.6-1.5-8.6-1.5,0,0,2-3.3,4.9-8.3,6.2-10.5,21.9-36.5,26.6-44.5.2,0,.5,0,1,.2,16.5,2.9,49.3,8.5,66.6,11.4h0Z"/>
      <path d="M727.8,507.6c-1.7.2-3-.6-2.2-2,1.4-2.7,3.4-5.3,4.8-8.1,6.2-11-4.2-31.9-20.5-20.7-.6.3-1.7,1.7-2,1.8,1-1.6,2.1-3.7,3-5.4,1.3-2.2,2.8-4.8,4.5-6.7.4-.4.8-.6,1.1-.6.6,0,1.3.3,2,.8,3.8,3.3,7.1,6.6,12.7,8.4,8.3,2.5,26.8,3.8,33.9-5.4,2.2-2.5.4-4.7-1.4-6.8,1.7,1.4,9.1,7.5,9.5,7.8,1,1.5-.2,3.2-2.3,3.3-7.5,1.5-14.5,2.9-21.1,7-8.8,4.4-25.9,21.4-8.6,23.4"/>
      <path d="M761.3,494.5c-1.4,2.4-1.7,4.3-4.6,5.5-2.8,1-5.7,1.6-8.7,2.1-7.2,1.7-15.1.2-11.5-7.1,4.8-9.4,19.9-17.7,32.3-19.1,1.4,0,3-.5,4.3-.9.2,0,0,.2-.2.6-.7,1.3-1.5,2.7-2.2,3.9-.7,1.5-2.3,2.6-4.1,2.9-7.1,1.8-12.3,1.7-17.8,6.9-4.1,3.6-5.9,8.8,3,7.3,3.3-.5,5.3-1,8-1.7"/>
      <path d="M723.2,506.7c-.2-.2-3.5-2.9-4.4-3.8-1.5-1.4-.5-3.1.7-4.8,2-2.9,4.1-5.7,3.3-8.9-.6-3.3-2.8-7.1-7.9-6-2.8.6-4.4,2.7-5.3,4.8-.6,1.4-1.4,3.1-2.1,4.2-.2.2.2-.4,0-.2,0,0-.2.9-.5,1-1.2-1-3.5-2.2-3.8-3.9.2-2.5,2.7-5.5,4.2-7.9,4.5-7.5,13.5-8.1,18.7-1.9,4.4,5.2,4.9,14.7.2,21.4-1.1,2.1-2.1,3.2-3.2,5.1"/>
      <path d="M724.9,469.9c-2-1.5-3.8-3.5-5.9-5,2.1-.7,4.3-1,6.8-1.6,1.7-.6,3.2-.3,4.5.7,1.6,1.1,3.3,3,4.6,4.1,9.9,6.3,28,.4,11.7-9.1-.3,0,.6-.2,1-.4.6-.2,1.4-.3,2.1-.5,1.7-.2,3.8-1.1,5.1-.2,26.2,17.6-17,21.4-29.6,11.9l-.2-.2h0Z"/>
      <path d="M756.4,486.2c1-.5,2-.6,3-.9h.2c.8,1,2.1,1.7,3,2.5,2,1.9.9,4.5-2.9,5.6s-8.7,2.1-9.9,2c-2.9,0-2.3-2.5-1.2-4s4.8-4.1,7.6-5.2h.3,0Z"/>
      <path d="M720,486.2c1.8,2.2,1.8,5.6-.2,8.4-2.5.5-6.5,1.9-8.8,1.2s-2.1-1.7-1.7-3c.3-1.3,3.2-5.7,4.1-6.8s.4-.6.6-.7c2.3-1.9,4.6-.6,5.8.8h.2Z"/>
      <path d="M743.7,459.8c1,.2,1.6.4,2.2.8,1.1.8,4.7,3.7,5.1,4.7.9,1.5-.7,2.7-2.9,3.4-3.6,1-7.9.3-10.4-1-2.1-1-1.8-1-1.7-1.3s0,0,.2-.3c.5-.8,2.3-3.9,2.8-4.7,1.1-1.1,3.2-2,4.8-1.7h0Z"/>
    </g>
  </g>
  <g>
    <path class="st6" d="M782.8,425.8c5.9,6.4,11.8,12,16.8,19,7.4,12.4,9.5,23.4,8.3,37.7-3.4,28.5-21.1,52.3-48.9,66.6-25.1,11.4-51.7,12.2-73.4-5.2l-2.3-2.1-11-11.8,2.3,2.1c22.6,18.3,50.8,16.5,76.7,3.4,19.6-11,32.2-25.3,40.5-44.9,5.3-14.1,6.8-25.7,3.8-40.4-2.1-7.8-4.2-12.9-9-19.8l-1.7-2.5-2.1-2.3h0Z"/>
    <path class="st2" d="M750.5,552.7c-22.1,7.4-46,6.3-64.8-8.7l-2.3-2.1-11-11.8,2.3,2.1c19.2,15.4,42.4,16.5,64.7,8.6l11.4,12h-.2Z"/>
    <path class="st4" d="M722.5,410.5c39-9.1,72.3,13.1,74.4,49.8,2.3,36.7-27.6,74-66.6,83.1-39,9.3-72.3-13.1-74.4-49.8-2.1-36.7,27.8-74,66.7-83.1h-.2Z"/>
    <path class="st7" d="M720.4,414.4c36.1-8.6,67,12.2,69,46,2.1,34.1-25.7,68.6-61.8,77.1-36.1,8.6-67-12.2-68.9-46.2-2.1-34.1,25.7-68.5,61.6-77.1v.2h0Z"/>
    <g>
      <path class="st17" d="M757.9,439.1v62.4c-13.7,2.9-40,8.3-55,11.4-4.9,1-8,1.7-8,1.7v-62.2c.2,0,.5,0,.9-.2,15.5-3.3,46.1-9.8,62.2-13.1h0Z"/>
      <path d="M731.1,505c-1.4.8-2.9.5-2.9-1.1-.2-3.1.2-6.4,0-9.5-.3-12.9-19.8-29.2-27.9-12.6-.3.5-.6,2.3-.7,2.5,0-1.8,0-4.4-.2-6.3,0-2.5-.2-5.7.5-8,.2-.5.4-.9.6-1,.5-.2,1.2-.2,2.1,0,4.8,1.7,9.3,3.7,15,3.5,8.3-.5,24.6-6.1,26.1-17.6.6-3.2-2-4.6-4.7-6,2.1.7,11.5,3.9,12,4.1,1.7,1,1.4,3.2-.2,4.1-5.6,4.1-10.7,8.1-14.4,14.4-5.2,7.4-11,29.9,4.6,25.6"/>
      <path d="M752.8,480.3c0,2.8.8,4.8-1.1,7-1.8,2-4.1,3.6-6.3,5.2-5.2,4.3-12.7,5.7-13.3-2.6-.7-10.7,7.9-24.3,17.6-30.2,1.1-.6,2.3-1.6,3.2-2.4.2,0,.2.2.2.6,0,1.5,0,3.2,0,4.6.2,1.7-.6,3.3-2,4.3-5.1,4.3-9.5,6.2-11.6,13.1-1.7,4.9-.6,10.6,6.3,6,2.5-1.7,4.1-2.9,5.9-4.6"/>
      <path d="M726.7,505.7c-.2-.2-4.4-1.5-5.6-2.1-2.1-.9-1.9-2.8-1.8-4.8.2-3.5.6-7-1.7-9.8-2.1-2.9-6-5.9-9.7-2.9-2.1,1.5-2.4,4.2-2.1,6.6.2,1.5.4,3.4.4,4.8s0-.5,0-.2.2,1,0,1.1c-1.5-.6-4.1-.9-5.2-2.4-1-2.5-.5-6.3-.5-9.1,0-8.9,7.3-12.7,14.9-8.6,6.4,3.3,11.6,12.4,11.1,20.6,0,2.4-.2,3.8,0,6"/>
      <path d="M709.4,469.7c-2.5-.8-5-1.9-7.5-2.7,1.5-1.4,3.2-2.5,4.9-4,1.3-1.1,2.5-1.4,4.2-1,1.9.5,4.4,1.7,6,2.3,11.5,2.5,24-9.8,5.3-12.9-.3,0,.3-.5.6-.7.4-.3,1-.8,1.5-1.2,1.3-.9,2.7-2.4,4.2-2,31.2,7.5-3.6,26.8-19.1,22.2h-.2Z"/>
      <path d="M744.4,473.9c.6-.8,1.4-1.4,2.1-1.9h.2c1.1.6,2.7.8,3.8,1.4,2.7,1.1,3,4,.4,6.4s-6.3,5.2-7.4,5.5c-2.5,1-3.3-1.5-3-3.4s1.9-5.7,3.8-7.8l.2-.2h0Z"/>
      <path d="M713.6,487.3c2.7,1.5,4.4,4.8,4.2,8.2-1.9,1.4-4.5,4.2-6.8,4.4s-2.7-1-3-2.3-.2-6.7,0-8,0-.8.2-1c1-2.7,3.6-2.3,5.3-1.4h.2,0Z"/>
      <path d="M720.3,453.2c1-.2,1.5-.2,2.3,0,1.4.4,5.9,1.9,6.7,2.7,1.5,1.1.8,2.9-.8,4.4-2.5,2.3-6.4,3.2-9.3,2.9s-2.1-.3-2.1-.6v-5.9c.4-1.5,1.7-3,3.3-3.4h0Z"/>
    </g>
  </g>
  <path class="st21" d="M959.3,125.8"/>
  <path class="st5" d="M408,301"/>
  <path class="st8" d="M607.6,551.8"/>
  <g>
    <path class="st0" d="M485.1,233.3c17.6,0,34.8,4.5,51.8,8.5,4.4,1,8.8,2.4,12.5,5.1,6.9,4.5,10.3,12.8,6.7,20.6-3.8,8.5-10.3,15.5-16.4,22.4-7.8,8.7-15.3,17.7-22.5,26.9-1.8,2.2-1.9,4.3-.3,6.5,1.3,2.1,2.4,4.4,3,6.8.4,2.1,1.5,3.9,3.8,4.1,19.8,2.6,40.7,10.1,53.6,26,1.6,2.1,2.8,4.4,3.3,7,1.5,8.5-7.9,13.2-15.1,13.8-2.6.3-3.6.9-1.7,3.3,11.6,12.9,18.8,29.1,23.1,45.8.9,3.2,1.8,6.3,3,9.3,1.2,2.9,2.9,5.6,4.4,8.3,8.5,15,14.4,30.5,17.9,47.4,1.3,6.5,2.8,12.9,5.3,19,2.3,5.6,5.4,11,7.7,16.6,6,13.4,9.2,29.9.7,42.9-5.7,8.4-15.2,13.3-24.9,15.4-10.6,2-21.6.9-32.3,1.3-7.1,0-14.1.8-20.8,3.2-1.3.5-2.7,1-4.1,1.5-19.4,8.4-40.9,9.6-61.8,9.6-10.1,0-20.2.2-30.2-1-12.8-1.4-25.2-4.8-37.6-7.9-6.5-1.5-12.9-2.2-19.6-2.2-10.7-.1-21.3.7-32,.6-12.1.3-25-.8-35.1-8.2-8.6-5.7-13.5-15.7-13.5-25.9,0-7,1.3-14.1,5.7-19.8,1.6-2,3.8-3.7,3.4-6.5-7.7-30,9.6-54.5,25.8-78,.8-1.3,1.7-2.5,2.3-3.9,1.2-2.6,1.6-5.5,2.1-8.3,1.7-10.7,4.5-21.2,9-31,5.7-12.8,14.6-24.2,24.6-33.9,5.5-5.3,11.3-10.2,16.9-15.3,5.3-4.6,10.4-9.5,15.4-14.5,2.1-2.1,4.2-4.1,6.2-6.3,1-1.1,2-2.5,1.9-3.9,0-1.6-.9-3.1-1.3-4.6-.7-2.2-.8-4.5-.1-6.7.5-1.9,1.7-3.3,1.5-5-.2-1.1-1-2-1.9-2.8-3.1-2.8-6.1-5.6-9.1-8.5-7-6.4-13.7-12.6-20.6-19.2-5.8-5.4-8.2-9.4-8.5-15-.8-6.1,1.7-13,5.8-17.7,8.4-10.2,20-19.3,33.6-19.9,4.8-.2,9.4.2,14.1,1.3,1.9.4,4,.9,6,1.2,9,1.6,15.7-1.7,23.5-5.7,4.5-2.2,9.6-2.8,14.6-2.8h0Z"/>
    <path class="st24" d="M485.1,233.3c17.6,0,34.8,4.5,51.8,8.5,4.4,1,8.8,2.4,12.5,5.1,6.9,4.5,10.3,12.8,6.7,20.6-3.8,8.5-10.3,15.5-16.4,22.4-7.8,8.7-15.3,17.7-22.5,26.9-1.8,2.2-1.9,4.3-.3,6.5,1.3,2.1,2.4,4.4,3,6.8.4,2.1,1.5,3.9,3.8,4.1,19.8,2.6,40.7,10.1,53.6,26,1.6,2.1,2.8,4.4,3.3,7,1.5,8.5-7.9,13.2-15.1,13.8-2.6.3-3.6.9-1.7,3.3,11.6,12.9,18.8,29.1,23.1,45.8.9,3.2,1.8,6.3,3,9.3,1.2,2.9,2.9,5.6,4.4,8.3,8.5,15,14.4,30.5,17.9,47.4,1.3,6.5,2.8,12.9,5.3,19,2.3,5.6,5.4,11,7.7,16.6,6,13.4,9.2,29.9.7,42.9-5.7,8.4-15.2,13.3-24.9,15.4-10.6,2-21.6.9-32.3,1.3-7.1,0-14.1.8-20.8,3.2-1.3.5-2.7,1-4.1,1.5-19.4,8.4-40.9,9.6-61.8,9.6-10.1,0-20.2.2-30.2-1-12.8-1.4-25.2-4.8-37.6-7.9-6.5-1.5-12.9-2.2-19.6-2.2-10.7-.1-21.3.7-32,.6-12.1.3-25-.8-35.1-8.2-8.6-5.7-13.5-15.7-13.5-25.9,0-7,1.3-14.1,5.7-19.8,1.6-2,3.8-3.7,3.4-6.5-7.7-30,9.6-54.5,25.8-78,.8-1.3,1.7-2.5,2.3-3.9,1.2-2.6,1.6-5.5,2.1-8.3,1.7-10.7,4.5-21.2,9-31,5.7-12.8,14.6-24.2,24.6-33.9,5.5-5.3,11.3-10.2,16.9-15.3,5.3-4.6,10.4-9.5,15.4-14.5,2.1-2.1,4.2-4.1,6.2-6.3,1-1.1,2-2.5,1.9-3.9,0-1.6-.9-3.1-1.3-4.6-.7-2.2-.8-4.5-.1-6.7.5-1.9,1.7-3.3,1.5-5-.2-1.1-1-2-1.9-2.8-3.1-2.8-6.1-5.6-9.1-8.5-7-6.4-13.7-12.6-20.6-19.2-5.8-5.4-8.2-9.4-8.5-15-.8-6.1,1.7-13,5.8-17.7,8.4-10.2,20-19.3,33.6-19.9,4.8-.2,9.4.2,14.1,1.3,1.9.4,4,.9,6,1.2,9,1.6,15.7-1.7,23.5-5.7,4.5-2.2,9.6-2.8,14.6-2.8h0ZM434.4,343.4c-15.4,18-34.9,32.4-51.6,49.2-37.1,41.5-20.5,91.4,10.2,130.7-14.3-7.3-26-29.9-31.8-45-.4-1.7-2-4.3-2.5-1.1-.8,4-.5,9.5-1.8,13.2-.9.9-1.1-1.7-1.3-2.3-1.2-6.1-1.8-12.4-2.2-18.7-.2-.8,0-2.6-1-2.7-15.5,18.8-28.7,44.9-20,69.6,2.6,9.1,8.8,17.7,8.2,27.5-1.5,11.1-15.2,0-11.6-2.8,6,1.4,2.1-5.3,1.3-8.3-3.1-10.9-6.3-6.7-7.9,1.6-1.7,8.7,1.7,17.7,8.3,23.5,19.3,16.4,57.2,2.6,81.5,8.9,15.3,3.6,30.4,8.1,46.1,9.2,18.1.4,36,.9,54-1.2,20.6-2.5,40.9-10.9,58-22.7,1.3-.4,4.9-3.9,5.3-1.7-.7,4.3-12.1,10.5-9.1,11.1,17.7,1.1,40.5,3.5,52.7-12.1,12-19.8-5.6-40.2-11.7-58.9-2.5-5.6-2.5,12.8-3.4,14.3-1.8,6.4-1-10.5-1.2-11.8.7-20.7,0-34.3-10.5-52.8-1.5-3.1-2.4-2.5-2.6.6.9,6.9-8.8,64.1-7.3,29.6,3.8-53.6-6.3-92.5-51-125-7.8-5.1,6.1,9.3,7.1,10.6,1.4,2,18.7,18.9,12.9,19.1-7.9-.5-15.6-3.4-22.1-7.9-13.3-9.8-19.9-25.8-29.4-38.8-2.1-3.3-8.2-3.2-9.4.8-.5,2.6.7,5.6,1.1,8.1.4,2.3-1,.5-2-1-1.9-3.3-5.2-9.9-9.5-5.5-2.3,3.3-1.6,8.5-4.5,11.7-6.9,7.4,4-11.6-4.2-12.5-7-1.4-7.6,9.2-12.9,12-6.5,4.5,1-6.5,1.2-8.6,1.5-3.9-3.5-4.8-6.5-4.2-2.8.6-3.9,3.7-5.3,5.9-5.1,8.7-12.4,16.7-21.5,21.2-1.1.5-1.9.6-1.2-.5,1.3-3,23.2-22.1,11.6-19.9-11,3.8,1.1-5.4,1.5-9.3.3-1.9-1.9-3.9-3.8-3.1h0Z"/>
    <path class="st12" d="M434.3,343.2c1.6-.7,3.8.4,3.9,2.2-.3,3.4-4,6.2-5.7,9.1-.8,1.2-1,2.2,1,1.7,3-.7,8.8-3.1,5.7,2.5-3.4,6.5-9.9,10.9-14.1,16.8-.7,1.2.2,1,1.2.5,9.8-5.2,17.1-13.3,22.7-22.9,1.5-3,3.6-4.9,7.2-4.2,7.6.7,1.5,8.3,0,12.1-1.3,3,1.1,1.9,2.4.9,2.3-1.7,4.1-4,5.6-6.5,1.1-1.8,1.8-3.9,3.6-4.9,2.4-1.4,6.2-.6,6.9,2.3.7,2.8-.2,5.9-1,8.5-1.3,3.6.6,3,2.2,1,1.6-1.9,2.4-4.3,2.9-6.8.4-1.8.5-3.9,1.8-5.2,5.9-4.5,8,5.6,11.2,8.2.3.1.3-.2.3-.4-.7-5.5-4.7-11.6,4.1-12.1,4.1.4,5.7,4.9,7.8,7.8,2.1,3.3,4.2,6.6,6.4,9.9,2.8,4.3,5.6,8.7,8.8,12.7.5.6,5.2,6.4,1.7,3.9-2.2-1.8-4-4.2-5.6-6.6-.6-1-2.7-3.6-2-.6,6,15.1,15.8,28.4,23.7,42.4.8,1.7.4,2.2-1.2.9-11.8-10.3-20.2-24-28.1-37.4-2.3-4-4.5-8.1-6.7-12.1-.9-1.5-1.8-3.4-3.2-4.5-2-1.3-4.8-.5-7.2-1.2-3.4-.8-4.2,2.1-5.7,4.4-2.5,3.3-3.9-1.2-4.3-3.3-1.1-5.3-3.8,5.8-8.7,6.1-3.9.1-2.1-5.8-2.8-7.8-1.4-2.5-6.1,1.9-7.5,2.9-5.2,4.3-9.2,10.4-12.4,16.4-5.6,9.9,2.4-16.3,3-17.7,2.1-6.7-4.5,2.3-5.6,3.6-3.5,4.4-7.2,8.6-11.2,12.6-6.6,5.7-13.4,11.8-21,16.2-3.9.9-3-2.9-6.5,3.9-11,20.5-16.7,42.4-14.1,65.7,1.3,12.7-8.3-10.4-10.4-11.8-1.1-.9-1.1.4-1.1,1.7,2.3,28.9,13,56.7,32,78.8,2,2.4.7,3.9-2.1,3.6-14.4-1.4-27.8-12.7-39.1-21.2-2.5-1.9-2.5-.7-1,1.5,5.9,9.4,15.3,16,23.2,23.6,2,2.1,5,3.9,6.1,6.5-2.2,3.6-22.1-10.1-25.1-12.3-1.1-.4-7.2-6.6-5.4-2.4,6,11.5,13.7,23.4,25.5,29.7,26.6,11.4,55.6,19.8,84.7,19.9,36.8.2,74.9-8.2,106.9-26.7,3-2,2.7-.6,1.2,1.6-1.3,2-2.8,4-4.4,5.9-1.3,1.6-2.9,3.3-2.7,5.1,1.4,5.2,11.7,8,16.4,8.4,3.4.3,6.9.2,10.3-.1.6,0,1.1,0,1.5,0,.7,0,1,.2.9.5-.4.6-1.8,1.5-2.8,1.8-7.2,3.1-15,4.2-22.9,4-1.7-.3-20.3.8-19-1.5.5-.9,2-2,3.3-3,1.9-1.5,3.8-3.3,5.2-5.2.6-.5,1.8-2.8.3-2.6-1.6,0-4,2-5.7,2.9-16.9,10.3-35.1,19.3-54.9,21.9-10.7,1.7-21.5,1.8-32.3,1.8-12,0-24,.3-35.8-1.7-13.9-1.8-27.2-7-41-9-15-1.4-30.6.2-45.5.8-4.1.2-9.7.3-13.1,0-7.3-.4-11-3.4-16.6-8.2-4.6-3.7-7.8-9-8.8-14.9-.3-1.7-.4-3.3-.4-5-.2-2.6,2.8-17.8,6.6-10.2.8,2.3,5.6,11.7,3.8,12.8-1.2.6-3.2-.9-3.9.4,0,4.1,6.4,9.1,10.2,6.4,6.8-6.2-4.6-24.8-6.1-32.7-4.5-15.1-2.7-31.9,4.8-45.8,3.8-7.4,8.5-14.2,13.2-21,3.5-5.3,2.7,1.3,2.7,3.8,0,6.7.5,9.7,2.3,15.7.1.8.7,1.9,1.1,2.3.7,0,.8-1.4.9-2,.8-3.9.8-7.9,1.5-11.8.6-2,1.5-.5,2,.7,5.8,15.3,13.8,30.2,25.8,41.6,10.7,9.5,5.6,2.5,1-3.6-14.3-19.5-25.4-42.7-26.3-67.2,0-22,9.5-43.8,24.9-59.3,8.1-8.1,17.3-15.1,25.6-22.9,5.7-5.3,11.4-10.6,16.8-16.2,2.3-2,3.3-5.1,6-6.5h0Z"/>
    <path class="st0" d="M497.1,259.1c1.2-.3,2.6.7,3.6,1.4,1.3.9,2.7,1.8,4.1,2.3,2.7.9,5.5,1,8.3,1.4,7.5.8,14.7,3.1,21.7,5.8,2.3.9,6.9,2.3,7.4,4.5.2,1-.8,2.5-1.6,3.5-2.1,2.7-4.3,5.3-6.5,7.9-6.8,8.2-13.8,16.2-20.2,24.7-1.5,1.9-3,3.8-4.4,5.6-1.5,1.9-3.5,4.2-6.1,3.7-3.3-.8.5-6.1,1.2-8,.9-1.9,1.9-3.8,2.9-5.7,2.4-4.6,5.2-8.9,7.3-13.6,1-2.1,3-7.1-1.2-3.6-9.2,7.4-14.4,19.5-19.3,29.9-1.5,2.9-4.8,3.6-7.7,4.1-3.3.6-6.6,1.3-10,1.5-2.5.3-4.4-.7-5.4-3-2.7-5.7-4.3-11.9-5.5-18.1-.7-3-.8-6.3-1.8-9.2-.4-.8-.7-.2-.8.6-1.3,9.2-.8,18.7,3.4,27,.4,1,.9,2.2-.3,2.7-1.5.5-4.2.6-5.8-.3-1.2-.7-2-2-2.7-3.2-1.1-2-2.2-3.9-3.2-5.9-4.6-8.5-9-17.3-12.5-26.4-.6-1.5-1.1-3.1-1.9-4.4-1.8-2.8-2.1.2-1.8,1.8,1.1,12,7.1,22.7,12.5,33.2.6,1.5,2.4,4.2.2,4.7-4.1.5-7-6.2-9.1-9.1-3-4.5-6.4-9-9.5-13.3-1.6-2.1-2.9-4.5-4.8-6.4-1.7-1.6-1.7.1-1.2,1.5.7,2.4,1.8,4.6,3,6.7,2.8,5.1,7.4,9.5,8.7,15.3.6,3.1-.8,3.4-2.8,1.3-2-2.1-4.1-4.2-6.3-6.2-3.8-3.4-7.3-7.1-11.1-10.5-1.4-1.3-2.7-2.6-4.1-3.9-3.2-3.2-6.8-6.2-9.9-9.5-1.3-1.3-2.7-2.7-3.9-4-1-1.3-3.3-3.3-1.5-4.5.7-.4,1.5-.7,2.3-.9,2.6-.7,5.1-1.6,7.5-2.6,4-1.6,7.7-4,11.7-5.7,5.5-2.3,11.9-3.4,17.6-1.1,13.4,6.6,29.9,8.8,44.3,3.8,1.8-.6,3.6-1.5,5.2-2.6,3.7-2.6,5.9-6.3,7.7-10.3.5-1.1,1-2.5,2.2-2.9h0Z"/>
    <path class="st12" d="M517,245.3c1,1.7-.2,4.7-.6,6.7-.6,2.2-1.1,4.5-3.5,4.7-3.5.2-7,0-10.5,0-4,0-7.9.9-10.7,4-7.9,9.4-17.9,10.5-29.4,9.9-7.3-.5-14.2-3.5-21.1-5.8-8.9-3.2-18.4-1.5-26.9,2.6-3.6,1.7-6.9,3.9-10.6,5.4-1.8.7-3.7,1.2-5.7,1.3-.7,0-1.5,0-2.2-.3-2.4-1.3.2-5.8,1.3-7.6,8-11,20.5-20.2,34.6-19.4,5.7.3,11.1,2.3,16.7,3.5,4.8,1,9.6.4,14.1-1.4,3-1.1,5.8-2.9,8.7-4.4,13-6.5,30.1-4,44.2-.3.8.3,1.4.6,1.7,1.2h0Z"/>
    <path class="st13" d="M511.3,339.7c.2-.4,1.8-.4,2.5-.4,20.2.2,41.4,6.8,56.2,20.5,1.3,1.1,2.8,2.4,3.8,3.5,1.9,2.1,2.4,4.9,1.2,7.4-2.7,4.5-10.1,5.4-14.9,4.5-8.7-1.8-13.4-10.4-19.8-15.7-8.1-6.8-16.8-13-26.4-17.8-.6-.3-1.3-.7-1.8-1-.6-.4-.9-.7-.8-.9h0Z"/>
    <path class="st12" d="M416.8,274.4c.8.2,1.4,1.1,1.8,1.9,2.4,4.2,5.3,7.9,8.6,11.5,3.3,3.4,6,7.4,10,10,1.9,1.1,1.5-.9,1.3-2.1-.5-2.8-1-5.5-.7-8.3.4-2.8,1.1-.8,1.4.6.5,2.5,1,4.9,1.6,7.4,1.9,8.3,6.6,15.8,10.1,23.5.5,1,1,2,1.3,3,.2.6.3,1.2,0,1.7-.7,1.1-2.1.8-3.3.1-2.7-1.8-4.1-5-5.9-7.5-2.9-4.6-6.3-9-9.4-13.3-1.2-1.7-2.5-3.4-3.7-5.2-.8-1.1-1.9-3-3.2-3.3-.8.2-.2,1.8,0,2.4,1.9,6.5,6.3,11.3,9.7,17,.8,1.4,3.5,7.1,1.6,7.9-.6.2-1.7-.8-2.2-1.3-2.1-2.2-4.2-4.4-6.5-6.4-4.1-3.7-7.9-7.7-12-11.3-3.5-3.3-6.9-6.7-10.4-9.9-2.2-2.2-4.3-4.3-6.5-6.6-1-1.2-2.3-2.4-2.7-3.8-.1-1.2,1.6-1.7,2.6-2,4.7-1.3,9-3,13.3-5.3.9-.5,1.9-1,2.9-.8h0Z"/>
    <path class="st13" d="M507.2,326.6c.6.4.9,1.1,1,1.8.1,2.6-1.7,4.9-3.7,6.5-9.4,7.4-22.4,9.4-34.1,9.6-4.3,0-8.7,0-13-.6-2.9-.4-5.8-1.2-8.7-1.9-3.3-.9-7.5-1.9-10.6-3.2-2.1-.9-3.1-1.9-4.3-3.5-.9-1.2-2.6-5.3.3-4.8,1.6.5,3.2,1.4,4.9,1.9,5.9,1.9,12.2,2,18.2,2.6,6.7.5,13.5.3,20.1-.6.2,0,0,0-.5,0-.3,0-.9,0-1.4,0-8.4,0-17.3.8-25.3-2.1-.6-.3-1.8-.8-1.5-1.4,1.1-.8,4-.4,5.5-.3,10.7.9,21.5.2,32.1-1.9,4.8-.8,16.8-4,20.8-2h0Z"/>
    <path class="st0" d="M517.1,245.3c.7,1,.3,2.5-.8,3.1-.8.4-1.8.4-2.7.3-4.4-.4-8.9-1.1-13.3-1.7-5.1-.8-10.2-1.6-15.4-1.6-4,0-8.5,1-10.7,4.6-2.1,3.8-1,8.7-1.6,12.9-.2,1.8-1.9,2.2-3.5,2.1-2.8,0-5.5-.7-8.1-1.7-7.7-3-14.2-8.8-22.3-10.8-11.3-3.2-22.4,3.3-31.5,9.5-1.7,1.1-5.2,4.3-6.3,1.2-.4-2.9,2.9-4.9,4.7-6.6,6.9-5.8,14.6-9.8,23.7-9.9,6.7-.1,12.9,2.3,19.3,3.6,4.8.9,9.6.2,14.1-1.6,2.9-1.1,5.5-2.9,8.3-4.3,13-6.5,30.1-3.9,44.1-.3.8.3,1.4.6,1.8,1.1h0Z"/>
    <path class="st0" d="M524.7,245.1c.7-.5,1.7-.6,2.6-.5,7.6.8,16.1,2.2,21.5,7.9,2,2.1,3.2,5,2.6,8-.5,2.4-2,6.1-3.9,7.5-2.2,1.3-4.5-1-6.5-1.9-5.3-2.8-11.1-4.8-16.8-6.8-1.3-.4-2.6-1.1-2.7-2.6,0-.5,0-1.2.2-1.7.6-2.4,1.3-4.8,1.8-7.3.2-.9.5-2,1.2-2.5h0Z"/>
    <g>
      <rect class="st14" x="339.4" y="418.9" width="226" height="226"/>
      <path class="st13" d="M498.1,502.7l-17.2,9.7c-1.7.7-3.5,0-4.4-1.6-.5-6.2.5-12.6-.6-18.8-2-10.2-9.1-21.6-17.7-27.6s-19.1-6.7-23.5,4.2l-1,3.1c-.1-.6.1-1.4.2-2,.2-5.5-.4-11.6,0-17.2.2-2.1,1.5-3.9,3.8-3.4,7.7,4.4,14.3,9.1,23.3,10.4,10.8,1.7,29.7-.9,35.6-11.5,3.5-6.6.5-13.1-4.9-17.3l18.1,10c1.1,1.1,1.8,2.2,1.6,3.8s-1,1.5-1.8,2c-4.2,2.7-8.8,4.6-12.8,7.6-9.2,7-16.8,20.7-17.3,32.3-.3,9.6,4.2,18.4,14.9,17.1s2.3-.6,3.5-.9h-.1Z"/>
      <path class="st13" d="M513.1,457.6c-.2,1.5-1.7,2.9-2.9,3.7-7.7,4.9-14.2,6.2-17.2,16.1-2,6.9,1.2,14.7,9.4,10.9,2.7-1.3,6.2-3.4,8.8-5s.9-.7,1.3-1.1c.9-.6.3.4.3.9-.1,4.8,1.3,7.5-3.2,10.4s-10.8,6.7-14.9,7.5c-7.7,1.4-12.3-3.7-12.7-11.1-.7-11.9,6.5-25.9,15.8-33.2,4.2-3.3,9.2-5.2,13.5-8.1s1.2-.7,1.6-1.5c.5,0,0,.3,0,.4,0,2.8.4,7.8,0,10.2v-.2Z"/>
      <path class="st13" d="M459.4,468.6c7.7,6.6,14,18.2,14.6,28.4s-.3,9.2,0,13.5.2,1,.3,1.5l-8-4.4c-1.3-.7-2.8-2.2-3-3.8-.5-4.7.7-10.4-.4-15.1s-8.4-15-15.2-12.3-3.6,10.4-3.6,14.8-.2,1.1-.2,1.7.4,1.3.3,2c-2.7-2.1-8-3.2-8.3-7.1s-.3-13.4.6-16.8c3.5-12.4,15.5-8.4,22.8-2.1v-.2Z"/>
      <path class="st13" d="M449,452.7c-3.8-2.1-7.5-4.8-11.5-6.4,2.3-1.1,4.5-2.7,6.8-3.9s2.6-1.6,4.2-1.5c2.8.1,9.3,5.2,12.4,6.5,5,2.2,12.5,2.1,17.2-.7s5-6.6,2-10.1-9.6-6.3-11.7-7.2-.4-.1-.6,0c0-.2.3-.3.4-.5,1.2-.9,5.5-3.4,6.8-3.6s1.2-.1,1.6,0c1.5.2,8.1,4.3,9.9,5.3,6.9,4.3,13.2,10.7,6.3,18.7-9.5,11-31.9,10.2-43.7,3.8v-.2Z"/>
      <path class="st13" d="M500.5,469.9c1-1,1.9-1.7,3.2-2.2h.3c1.8,1.2,3.9,2.1,5.8,3.3,3.8,2.6,4.5,6.9.5,9.7s-9.4,5.7-11,6c-3.6.5-4.7-3.2-4.4-6.1s2.9-8,5.7-10.6h-.1Z"/>
      <path class="st13" d="M454.7,480.2c3.8,3.1,6.6,8.6,6.3,13.6-3,1.4-6.6,4.9-10.1,4.4s-4.1-2.2-4.4-4.3-.3-10,0-11.9.3-1.1.4-1.4c1.5-3.7,5.4-2.3,7.8-.4h0Z"/>
      <path class="st13" d="M464.6,431.1c1.4-.1,2.2.2,3.5.7,1.9,1,8.6,4.7,9.9,6.1,2.1,2.1,1.2,4.7-1.1,6.2-3.7,2.6-9.7,2.8-13.9,1.4s-2.9-1.3-3.1-1.6-.1-.3-.2-.5c-.2-1.4-.2-6.9,0-8.2.4-2.1,2.6-3.9,4.7-4.1h.1Z"/>
    </g>
  </g>
</svg>