<?xml version="1.0" standalone="no"?>
<!DOCTYPE svg PUBLIC "-//W3C//DTD SVG 20010904//EN"
 "http://www.w3.org/TR/2001/REC-SVG-20010904/DTD/svg10.dtd">
<svg version="1.0" xmlns="http://www.w3.org/2000/svg"
 width="1920.000000pt" height="1080.000000pt" viewBox="0 0 1920.000000 1080.000000"
 preserveAspectRatio="xMidYMid meet">

<g transform="translate(0.000000,1080.000000) scale(0.100000,-0.100000)"
fill="#000000" stroke="none">
<path d="M9590 8433 c-33 -3 -40 -7 -30 -14 11 -7 1 -8 -29 -3 -28 4 -41 3
-37 -4 8 -13 -63 -24 -105 -16 -19 4 -30 3 -26 -2 5 -5 -6 -13 -22 -19 -49
-16 -41 -30 19 -32 88 -4 117 -12 150 -39 41 -35 43 -98 4 -144 -29 -34 -92
-70 -124 -70 -11 0 -96 27 -188 61 -204 74 -274 89 -405 89 -176 0 -393 -13
-372 -22 13 -5 1 -7 -35 -6 -30 2 -64 -3 -75 -9 -16 -9 -8 -11 45 -8 52 3 57
2 25 -4 -35 -7 -29 -8 40 -10 44 -1 97 -8 118 -15 23 -9 39 -10 43 -4 9 15 -7
26 -46 31 -19 3 -7 4 27 3 35 -1 66 -6 70 -10 4 -4 0 -21 -10 -37 l-17 -30 28
19 c41 29 59 38 45 22 -8 -9 -4 -18 19 -39 27 -24 29 -30 18 -50 -8 -16 -9
-26 -2 -33 18 -18 0 -39 -57 -65 -31 -14 -50 -28 -43 -30 8 -3 -12 -16 -44
-29 -124 -50 -288 -188 -364 -305 -52 -81 -66 -145 -51 -234 20 -116 69 -182
149 -205 86 -24 391 1 568 46 l102 25 43 -22 c130 -65 193 -122 279 -249 146
-218 160 -277 84 -354 -35 -35 -146 -88 -229 -110 -141 -36 -577 -118 -657
-123 -177 -12 -299 63 -360 218 -18 48 -20 74 -19 219 0 91 5 181 10 200 6 24
7 -5 4 -90 -13 -307 53 -431 253 -481 27 -7 58 -18 69 -25 65 -39 257 -11 512
76 281 96 338 135 338 234 -1 61 -27 111 -106 206 -98 118 -164 145 -419 175
-122 14 -144 14 -215 0 -163 -31 -195 -50 -210 -125 -9 -40 -21 -51 -51 -44
-12 3 -28 -1 -37 -11 -15 -14 -18 -14 -38 6 -29 29 -54 88 -84 200 -20 74 -25
118 -25 206 0 124 14 179 70 267 17 27 30 49 28 51 -6 5 -137 45 -218 66 -107
28 -251 32 -275 8 -9 -9 -17 -24 -19 -33 -1 -10 -9 -22 -17 -27 -10 -8 -7 -8
11 -3 l25 7 -19 -22 c-20 -22 -20 -22 0 -27 20 -5 20 -6 -3 -52 -32 -66 -40
-121 -48 -327 -8 -202 10 -445 47 -645 27 -146 63 -207 143 -239 17 -6 40 -27
52 -46 38 -58 140 -99 278 -111 48 -4 121 1 229 16 87 11 160 20 162 18 2 -2
-28 -12 -67 -22 -39 -10 -69 -20 -67 -22 4 -4 202 18 328 37 59 8 134 7 338
-6 144 -8 277 -18 293 -22 27 -5 29 -7 14 -16 -11 -6 -90 -7 -209 -2 -359 13
-986 -64 -1113 -136 -58 -32 -90 -35 -177 -17 -45 9 -66 19 -99 52 -75 74
-218 385 -242 524 -4 24 -9 42 -11 39 -10 -10 31 -242 57 -322 39 -117 187
-420 251 -511 27 -40 77 -100 111 -134 34 -34 62 -67 62 -73 0 -6 24 -24 54
-39 89 -47 211 -33 341 39 60 33 20 0 -50 -41 -74 -43 -134 -66 -174 -66 -81
0 -232 116 -331 255 -24 33 -81 134 -128 225 -95 185 -174 324 -223 388 -18
24 -40 67 -50 95 -18 59 -40 97 -54 97 -5 0 -18 -17 -29 -37 -19 -38 -19 -38
-26 -12 -3 14 0 45 9 69 8 24 13 46 11 48 -2 3 -27 -19 -55 -47 -54 -56 -68
-51 -23 8 l28 36 -38 -23 c-47 -27 -57 -28 -26 -2 13 11 17 18 9 15 -15 -5
-49 10 -40 18 3 2 31 18 63 36 60 34 101 83 115 137 5 20 -2 67 -25 154 -17
69 -32 120 -32 114 -1 -7 -22 -15 -48 -19 -50 -7 -49 -6 -148 -117 -22 -23
-45 -42 -51 -40 -7 1 -22 -10 -34 -25 -11 -16 -44 -54 -73 -87 -57 -64 -107
-135 -107 -152 0 -29 44 -114 59 -114 14 0 14 -2 1 -10 -19 -12 -12 -17 41
-35 36 -12 38 -14 12 -10 -47 6 -41 -9 12 -34 42 -20 64 -38 30 -25 -27 11
-16 -11 26 -51 22 -22 61 -76 86 -120 25 -44 58 -98 73 -120 15 -22 66 -106
114 -188 47 -81 105 -171 128 -200 24 -29 85 -127 137 -219 114 -202 177 -288
245 -334 84 -57 104 -49 201 74 22 28 54 56 70 63 17 7 34 15 39 17 4 2 5 -13
2 -34 -5 -27 -2 -45 8 -59 15 -20 15 -20 51 0 21 11 67 56 103 102 96 121 264
238 397 278 62 18 259 56 465 90 355 58 602 131 800 236 90 48 55 17 -47 -42
-147 -84 -357 -145 -723 -209 -240 -43 -423 -85 -495 -115 -22 -10 -50 -18
-62 -20 -32 -3 -105 -49 -166 -104 -57 -53 -122 -143 -203 -280 -89 -152 -162
-214 -254 -215 -61 -1 -114 27 -180 94 -73 72 -126 155 -245 380 -114 217
-127 239 -176 305 -20 28 -61 91 -90 140 -123 211 -264 399 -385 515 -64 61
-60 52 11 -26 17 -18 41 -47 54 -64 28 -38 34 -32 -96 -96 -51 -25 -93 -50
-93 -56 0 -5 -6 -6 -12 -2 -10 6 -10 5 -1 -8 7 -8 10 -18 6 -21 -3 -4 -1 -7 6
-7 6 0 11 -6 10 -12 -5 -38 3 -59 29 -72 23 -13 24 -15 7 -17 -13 0 -7 -5 15
-12 l35 -10 -30 -6 c-28 -6 -26 -7 22 -19 36 -9 50 -18 47 -27 -3 -8 13 -26
40 -45 25 -17 53 -45 62 -63 9 -18 53 -84 98 -147 45 -63 98 -142 117 -175 59
-97 221 -425 314 -635 177 -399 251 -497 394 -522 147 -25 214 -28 271 -14 31
8 108 22 171 31 127 17 305 73 434 135 173 83 272 172 403 360 82 120 130 173
205 229 77 58 205 123 228 116 13 -4 50 10 107 40 80 44 85 45 60 18 -16 -16
-28 -32 -28 -36 0 -11 69 26 210 112 69 43 139 85 155 95 59 35 -6 -13 -170
-126 -187 -130 -274 -198 -398 -310 -49 -46 -94 -83 -98 -82 -5 1 -18 2 -30 3
-16 1 -19 5 -13 24 9 29 59 104 97 145 40 42 27 41 -32 -2 -66 -49 -145 -135
-230 -251 -134 -183 -234 -270 -395 -345 -125 -59 -640 -228 -716 -236 -70 -7
-134 5 -245 47 -47 17 -75 38 -131 94 -77 77 -128 170 -249 450 -31 72 -61
134 -66 140 -5 5 -9 15 -9 23 0 8 -9 26 -20 42 -11 15 -17 30 -13 34 3 3 1 6
-6 6 -7 0 -9 5 -6 10 3 6 2 10 -3 10 -4 0 -16 17 -26 38 -34 73 -180 328 -227
397 -149 220 -335 368 -464 369 -77 1 -92 -16 -85 -93 5 -49 13 -71 53 -128
26 -37 47 -76 47 -84 0 -9 -9 -37 -20 -61 -26 -59 -46 -152 -59 -267 -11 -99
-24 -129 -47 -110 -11 9 -14 7 -15 -7 -1 -14 -3 -13 -9 6 -4 14 -8 19 -9 13
-1 -7 -10 -13 -21 -13 -27 0 -33 -45 -28 -186 4 -94 8 -119 24 -141 16 -21 46
-45 61 -48 1 -1 16 -70 33 -155 35 -173 96 -367 138 -443 16 -29 53 -105 82
-169 l52 -118 62 -29 c113 -53 170 -76 184 -76 22 0 71 -95 86 -167 13 -62 13
-62 20 -28 11 52 47 150 55 147 3 -1 17 8 30 20 31 28 85 55 89 43 2 -5 21 -1
42 10 20 10 40 17 43 14 3 -3 27 10 53 30 26 20 51 36 55 36 5 0 9 -22 9 -48
0 -26 5 -53 12 -60 16 -16 61 -15 103 2 73 31 208 185 221 252 6 35 20 40 37
13 7 -11 0 -28 -27 -64 -21 -26 -56 -82 -79 -123 -29 -54 -69 -103 -138 -172
-53 -52 -99 -105 -103 -118 -9 -27 -21 -28 -82 -2 -65 28 -126 41 -200 41 -83
1 -100 -6 -113 -43 -23 -67 -5 -140 21 -83 16 35 57 55 110 54 l43 -2 -45 -6
c-60 -9 -86 -25 -94 -56 -10 -39 8 -92 59 -173 25 -39 45 -78 45 -85 0 -21 67
-86 95 -93 27 -7 181 1 242 12 l32 6 -6 -49 c-7 -62 8 -92 76 -156 127 -119
581 -366 674 -367 27 0 32 9 29 51 -1 11 8 15 31 15 18 0 41 4 52 8 11 5 2 -5
-21 -20 -25 -18 -39 -35 -36 -43 3 -8 -3 -20 -14 -28 -16 -12 -14 -13 22 -13
49 0 115 39 167 100 l37 44 33 -31 c45 -43 182 -140 239 -169 55 -28 78 -30
78 -8 0 24 24 11 34 -19 13 -35 2 -44 -34 -30 -49 18 -34 6 33 -29 l62 -33
170 1 c176 0 205 4 515 65 323 64 502 110 691 179 388 141 757 375 905 573 31
42 43 67 43 90 -1 18 6 52 15 76 20 55 20 108 0 206 -9 42 -14 78 -12 79 347
272 613 532 723 706 36 57 151 319 174 395 25 84 61 290 61 350 0 49 -32 222
-57 305 l-16 55 -14 -55 c-23 -91 -95 -312 -99 -307 -3 2 7 44 21 93 28 96 28
137 -2 200 -14 28 -31 42 -88 69 -38 18 -96 42 -129 54 l-58 22 7 -28 c35
-138 44 -274 25 -388 -6 -37 -7 -27 -3 40 6 109 -10 232 -37 285 -11 21 -36
51 -55 66 -25 19 -35 34 -35 53 0 16 -17 49 -41 82 -78 104 -95 153 -69 196
16 26 25 31 76 36 62 5 179 52 203 81 12 14 10 17 -18 27 -22 8 -30 16 -27 26
4 9 -5 19 -24 27 -36 15 -29 26 14 26 17 0 26 4 20 8 -20 13 -25 59 -8 72 12
10 12 15 2 21 -9 6 -8 10 5 15 23 8 22 31 -2 44 -16 8 -25 5 -48 -15 -26 -22
-26 -24 -7 -25 17 0 20 -5 17 -37 -4 -53 -16 -59 -57 -28 -32 24 -43 27 -135
28 -90 1 -99 2 -91 17 6 11 28 20 59 24 27 3 60 15 74 26 29 23 53 26 60 8 3
-10 14 -8 43 7 45 24 53 40 23 48 -12 3 -18 10 -14 16 7 13 -57 77 -86 86 -10
3 -27 2 -37 -4 -21 -11 -162 -193 -162 -209 0 -6 -6 -15 -13 -19 -7 -4 -31
-37 -52 -73 -54 -89 -106 -159 -146 -195 l-33 -30 27 37 c14 20 47 67 73 105
26 37 54 77 63 88 9 11 -5 1 -31 -23 -100 -90 -95 -34 8 93 36 44 86 111 111
149 25 38 72 101 105 139 45 53 57 73 52 89 -6 20 -4 21 45 14 50 -7 51 -6 71
26 11 18 20 46 20 61 0 15 7 41 15 57 15 29 15 30 -6 30 -17 0 -20 5 -16 21 3
12 -1 28 -11 38 -9 10 -21 25 -27 34 -5 8 -37 53 -71 99 -33 46 -96 133 -139
193 -116 163 -184 253 -196 260 -5 4 -75 83 -155 177 -170 197 -272 303 -366
377 -74 57 -90 77 -32 37 157 -106 448 -431 772 -862 104 -137 214 -276 243
-307 l54 -57 45 8 c40 7 45 11 42 33 -1 13 -18 47 -37 74 -120 172 -173 252
-230 345 -36 58 -74 121 -86 140 -13 19 -18 31 -12 25 6 -5 55 -77 108 -160
53 -82 101 -154 107 -160 21 -20 -97 200 -152 284 -65 100 -167 214 -183 204
-5 -3 -7 -1 -4 4 4 6 -11 27 -33 47 -45 40 -63 48 -34 14 10 -13 -35 31 -101
96 -179 179 -266 237 -430 289 -44 14 -97 33 -117 41 -45 19 -61 20 -53 4 4
-7 0 -6 -7 2 -7 8 -49 33 -93 55 -44 22 -136 77 -204 123 -68 46 -145 93 -170
106 -91 46 -226 90 -281 92 -30 1 -91 9 -135 17 -76 16 -394 21 -525 10z m594
-54 c-3 -6 0 -15 7 -20 11 -7 11 -9 1 -9 -33 0 46 -90 134 -150 39 -27 139
-94 155 -105 9 -5 35 -23 59 -40 23 -16 53 -37 66 -46 13 -8 34 -27 48 -42 15
-16 31 -24 40 -21 19 7 20 -6 5 -38 -6 -13 -30 -31 -57 -42 -27 -12 -82 -53
-131 -99 l-86 -80 -5 67 c-4 59 -8 69 -35 91 -16 13 -35 24 -41 25 -18 0 -47
-38 -40 -55 14 -38 -118 94 -145 145 -16 30 -39 66 -50 80 -20 25 -20 24 1
-18 39 -79 90 -338 90 -455 0 -85 -17 -41 -29 73 -11 117 -66 321 -105 397
-14 26 -50 75 -81 107 -53 57 -54 60 -38 78 28 31 157 127 199 148 47 23 47
23 38 9z m201 -66 c15 -16 38 -50 52 -77 l25 -49 -40 32 c-56 44 -102 121 -73
121 4 0 21 -12 36 -27z m-640 -130 c11 -14 10 -20 -4 -30 -14 -11 -10 -12 24
-7 l40 7 -25 -21 -25 -21 37 -15 c21 -9 42 -16 48 -16 5 0 10 -7 10 -15 0 -8
-9 -15 -19 -15 -42 0 -41 -4 107 -280 28 -52 57 -95 64 -95 32 0 78 -230 78
-395 0 -111 -20 -203 -57 -272 -59 -109 -136 -138 -194 -75 -16 17 -32 43 -35
57 -3 14 -12 40 -20 59 l-15 33 34 -35 c18 -20 39 -47 45 -61 25 -54 88 -22
133 67 40 79 59 170 59 292 0 96 -15 233 -26 244 -11 11 -21 -22 -34 -105 -6
-46 -15 -86 -20 -89 -4 -2 -15 24 -25 60 -21 80 -63 170 -99 212 -19 22 -52
41 -112 64 -81 31 -124 65 -124 99 0 8 -13 11 -40 8 -27 -2 -40 0 -40 9 0 24
-18 22 -59 -8 -31 -22 -40 -33 -32 -43 6 -6 8 -21 5 -32 -3 -12 9 -36 37 -69
22 -27 55 -77 72 -110 46 -87 51 -105 21 -65 -15 19 -53 60 -85 90 -70 68
-125 156 -108 176 6 7 8 17 5 22 -3 6 9 15 27 22 39 16 77 49 77 67 0 17 43
96 77 141 13 17 22 36 19 41 -8 12 82 87 125 106 43 18 40 18 54 -2z m1065
-276 l35 -65 -18 -69 c-9 -37 -21 -106 -26 -153 -6 -47 -15 -134 -22 -195 -17
-165 -52 -314 -108 -470 -60 -168 -66 -164 -11 9 82 258 92 317 120 664 l21
252 -20 46 c-12 25 -42 66 -68 92 l-48 45 55 -45 c37 -30 67 -67 90 -111z
m-1767 84 c33 -21 92 -90 84 -97 -6 -6 -103 41 -110 53 -10 18 -17 63 -10 63
5 0 21 -9 36 -19z m-111 -82 c29 -6 89 -28 133 -49 229 -110 276 -297 114
-451 -42 -40 -171 -119 -195 -119 -4 0 26 23 68 50 42 28 90 68 107 89 56 71
87 160 60 176 -6 4 -8 13 -5 21 3 8 -1 14 -12 15 -32 2 -37 4 -65 23 -22 15
-36 17 -75 11 -26 -4 -62 -8 -81 -9 l-35 -1 -20 84 c-27 109 -47 126 -148 126
-87 0 -103 -15 -113 -111 -13 -122 11 -215 89 -334 23 -36 50 -77 59 -92 23
-37 46 -35 87 7 32 33 36 34 47 18 22 -29 15 -43 -29 -62 -88 -37 -99 -36
-155 22 -106 110 -202 281 -229 407 -17 85 -20 90 -42 90 -30 0 45 41 131 71
91 32 209 39 309 18z m1758 -76 c0 -30 -46 -116 -74 -143 -27 -24 -28 -25 -42
-6 -8 11 -14 26 -14 34 0 8 -6 12 -15 8 -41 -15 17 59 73 95 53 33 72 36 72
12z m29 -70 c-5 -21 -9 -113 -9 -204 0 -159 -14 -288 -42 -382 -17 -58 -20
-37 -4 34 32 143 31 214 -11 432 -7 35 33 144 56 150 9 3 17 5 17 6 1 0 -2
-16 -7 -36z m528 -235 c89 -85 164 -260 148 -346 -7 -37 -48 -104 -83 -135
-26 -24 -74 -25 -109 -2 -45 30 -131 123 -155 168 -45 84 -17 252 54 333 45
51 76 47 145 -18z m598 -84 c9 -15 12 -23 6 -20 -11 7 -35 46 -28 46 3 0 12
-12 22 -26z m36 -51 c13 -16 12 -17 -3 -4 -17 13 -22 21 -14 21 2 0 10 -8 17
-17z m-3114 -169 c-3 -3 -12 -4 -19 -1 -8 3 -5 6 6 6 11 1 17 -2 13 -5z m-54
-11 c-7 -2 -19 -2 -25 0 -7 3 -2 5 12 5 14 0 19 -2 13 -5z m-190 -19 c77 9
141 15 143 13 8 -7 -194 -37 -251 -37 -31 0 -71 7 -90 14 -51 21 -43 26 12 8
43 -14 59 -14 186 2z m3149 -100 c85 -43 164 -100 186 -136 20 -30 20 -34 5
-45 -11 -8 -35 -10 -73 -6 -49 5 -69 1 -140 -26 -45 -18 -92 -31 -104 -29 -24
3 -24 6 -13 168 9 133 16 136 139 74z m-1056 -65 c-19 -52 -59 -170 -90 -263
-87 -261 -168 -416 -283 -541 -25 -27 -38 -39 -29 -25 9 14 42 62 72 108 91
135 123 214 168 412 9 43 36 103 79 177 35 62 74 140 87 173 12 33 24 59 26
57 3 -2 -11 -46 -30 -98z m776 -316 c109 -189 172 -272 209 -280 36 -7 45 -19
51 -63 3 -19 8 -43 13 -52 11 -26 -14 -23 -60 8 -81 53 -186 205 -246 358 -18
44 -47 111 -66 148 -72 147 -15 78 99 -119z m-4001 114 c-6 -6 -11 -21 -11
-33 0 -24 -19 -44 -21 -22 -2 18 -1 21 6 40 4 11 1 17 -10 20 -15 3 -14 7 6
32 l23 29 9 -27 c6 -19 6 -31 -2 -39z m2683 -356 c-9 -23 -18 -40 -20 -38 -2
2 4 22 13 45 9 23 18 40 20 38 2 -2 -4 -22 -13 -45z m-1994 -211 c8 -5 11 -10
5 -10 -5 0 -17 5 -25 10 -8 5 -10 10 -5 10 6 0 17 -5 25 -10z m527 -6 c-3 -3
-12 -4 -19 -1 -8 3 -5 6 6 6 11 1 17 -2 13 -5z m-334 -31 c-13 -2 -33 -2 -45
0 -13 2 -3 4 22 4 25 0 35 -2 23 -4z m1217 -248 c0 -9 -189 -64 -293 -85 -138
-27 -164 -20 -32 9 55 13 147 35 205 51 114 31 120 32 120 25z m-433 -111 c-3
-3 -12 -4 -19 -1 -8 3 -5 6 6 6 11 1 17 -2 13 -5z m708 -314 c-95 -45 -283
-115 -290 -108 -4 4 365 155 380 156 6 0 -35 -21 -90 -48z m2245 -88 c0 -4
-29 -22 -64 -39 -35 -17 -120 -78 -188 -136 -69 -57 -140 -114 -157 -126 -53
-38 -44 -18 12 26 29 22 104 84 167 138 118 101 230 168 230 137z m-4726 -119
c-4 -27 -8 -56 -9 -65 -2 -25 -15 -35 -16 -12 -2 30 0 46 13 87 15 51 21 47
12 -10z m4865 -168 c0 -60 -8 -150 -21 -225 -11 -69 -21 -141 -21 -160 0 -19
-2 -29 -5 -21 -2 7 -17 -24 -31 -70 -48 -148 -155 -339 -251 -449 l-31 -35 25
51 c14 28 46 98 71 155 25 57 68 138 95 179 59 90 94 172 120 283 25 109 42
283 36 371 -4 47 -3 63 3 46 5 -14 9 -70 10 -125z m-3640 102 c0 -12 -15 -62
-32 -112 -26 -72 -36 -91 -53 -93 -61 -9 -13 189 54 227 22 12 32 5 31 -22z
m1748 -99 c-14 -18 -23 -38 -20 -44 6 -16 -213 -251 -281 -302 -31 -24 -56
-40 -56 -37 0 15 75 118 141 194 57 66 223 221 237 221 2 0 -8 -15 -21 -32z
m2018 -19 c45 -76 10 -288 -79 -472 -41 -86 -88 -148 -102 -134 -3 3 5 45 19
94 36 126 66 270 83 402 21 160 37 182 79 110z m-4996 -128 c2 -132 5 -155 32
-236 43 -129 125 -289 174 -340 52 -53 133 -85 215 -85 32 0 70 4 83 9 19 8
29 6 41 -7 14 -17 10 -19 -67 -32 -45 -8 -116 -15 -158 -15 -67 0 -80 3 -112
27 -50 39 -115 149 -182 308 -32 74 -61 139 -66 145 -14 14 -11 -53 5 -112 8
-29 11 -53 8 -53 -4 0 -22 21 -41 46 -37 49 -50 58 -98 68 -29 7 -32 5 -36
-21 -2 -15 -5 -3 -5 27 -3 127 43 275 116 375 22 30 36 40 59 41 l29 2 3 -147z
m1662 112 c-12 -20 -14 -14 -5 12 4 9 9 14 11 11 3 -2 0 -13 -6 -23z m3438
-92 c-7 -23 -14 -39 -16 -37 -3 2 1 23 8 45 7 23 14 39 16 37 3 -2 -1 -23 -8
-45z m-721 -89 c4 -39 5 -69 2 -67 -4 3 -10 26 -13 52 -3 26 -9 64 -12 83 -5
26 -4 31 4 19 6 -9 14 -48 19 -87z m686 -26 c-3 -15 -8 -25 -11 -23 -2 3 -1
17 3 31 3 15 8 25 11 23 2 -3 1 -17 -3 -31z m-1683 -43 c6 -16 14 -62 18 -103
l6 -75 33 -3 c19 -2 47 1 63 7 47 16 36 -4 -58 -103 -49 -50 -130 -138 -181
-194 -52 -56 -97 -100 -101 -97 -4 2 -7 37 -6 77 2 57 13 106 53 224 58 175
90 243 128 273 33 26 32 26 45 -6z m1099 -230 c19 -41 22 -60 18 -144 -3 -92
-6 -102 -50 -191 -26 -52 -57 -103 -69 -113 l-23 -20 22 35 c11 20 37 74 57
120 57 133 59 219 7 359 -13 34 18 -3 38 -46z m-838 -170 c-4 -21 -2 -25 12
-20 9 4 23 10 31 13 9 4 15 1 15 -7 0 -19 -61 -127 -145 -255 -69 -105 -78
-115 -134 -144 -33 -16 -74 -30 -90 -30 -29 0 -61 22 -61 41 0 36 63 115 208
262 92 92 167 167 168 167 1 0 -1 -12 -4 -27z m545 -94 c7 -24 18 -63 23 -87
8 -30 18 -46 36 -54 39 -18 31 -52 -28 -114 -70 -74 -93 -87 -267 -144 -122
-41 -163 -50 -219 -50 -81 0 -100 14 -109 80 -6 46 -9 43 99 116 37 25 98 80
137 123 78 86 169 158 233 183 55 21 78 8 95 -53z m-1307 -53 c0 -26 -116
-190 -183 -258 -36 -37 -83 -76 -106 -87 -71 -37 -142 -21 -126 28 4 13 26 28
61 41 30 11 79 35 108 54 52 33 193 168 223 214 18 26 23 28 23 8z m-672 -62
c2 -11 -6 -28 -18 -39 -20 -18 -24 -18 -194 6 -96 13 -172 26 -169 29 6 6 293
28 343 26 27 -1 36 -6 38 -22z m-2194 -84 c12 0 28 -5 36 -10 11 -7 6 -10 -21
-10 -29 0 -46 9 -80 40 l-44 41 44 -31 c24 -16 53 -30 65 -30z m3086 -34 c0
-2 -8 -10 -17 -17 -16 -13 -17 -12 -4 4 13 16 21 21 21 13z m-2661 -43 l94 -6
-39 -13 c-21 -8 -52 -14 -69 -14 -46 0 -128 24 -133 39 -4 11 2 12 24 7 16 -4
71 -10 123 -13z m1771 -3 c27 -27 26 -92 -3 -150 -17 -33 -34 -51 -67 -67
-100 -49 -357 -79 -453 -52 -49 13 -77 45 -77 86 0 62 59 70 140 18 47 -30 63
-35 115 -35 102 0 186 53 231 144 17 34 62 76 82 76 6 0 21 -9 32 -20z m-2071
-20 c11 -24 11 -24 -3 -6 -9 11 -16 24 -16 30 0 12 5 7 19 -24z m2921 17 c0
-2 -12 -14 -27 -28 l-28 -24 24 28 c23 25 31 32 31 24z m-1679 -169 c14 9 25
9 39 2 13 -7 33 -7 62 -1 23 6 44 8 46 6 7 -7 -50 -95 -61 -95 -30 0 -116 51
-137 80 l-23 33 27 -19 c23 -14 32 -15 47 -6z m-389 -64 c117 -42 349 -162
391 -202 43 -42 44 -48 18 -123 -11 -30 -21 -85 -22 -122 -1 -36 -5 -64 -9
-62 -4 2 -22 -12 -41 -31 -51 -53 -105 -78 -169 -78 -47 0 -71 8 -160 53 -57
30 -136 75 -175 101 -93 63 -187 164 -203 218 -14 46 -8 104 14 138 23 38 100
94 156 114 72 26 114 25 200 -6z m2355 -180 c-3 -3 -12 -4 -19 -1 -8 3 -5 6 6
6 11 1 17 -2 13 -5z m-1146 -48 c66 -14 173 -55 166 -63 -3 -2 -28 6 -57 17
-29 11 -100 26 -159 32 -58 6 -115 14 -126 19 -35 14 105 10 176 -5z m480 -97
c-5 -26 -9 -34 -10 -19 -1 27 9 73 15 67 2 -2 0 -23 -5 -48z m-2331 -39 c22
-11 40 -23 40 -25 0 -5 -79 32 -89 41 -11 10 14 2 49 -16z m2429 -26 c35 -45
23 -61 -17 -24 -22 21 -30 50 -13 50 5 0 19 -12 30 -26z m-92 -6 c-3 -8 -6 -5
-6 6 -1 11 2 17 5 13 3 -3 4 -12 1 -19z m1213 8 c0 -2 -8 -10 -17 -17 -16 -13
-17 -12 -4 4 13 16 21 21 21 13z m-3460 -32 c0 -2 -9 0 -20 6 -11 6 -20 13
-20 16 0 2 9 0 20 -6 11 -6 20 -13 20 -16z m3615 17 c-6 -5 -62 -48 -125 -96
-82 -61 -164 -111 -284 -171 -93 -46 -171 -83 -173 -80 -6 6 49 38 173 100 62
31 176 101 255 156 78 55 147 100 153 100 6 0 6 -3 1 -9z m-200 -21 c-10 -17
-168 -117 -244 -155 -84 -42 -205 -76 -265 -74 -34 1 -30 3 22 10 131 17 257
70 407 173 86 59 89 61 80 46z m-3365 -26 c0 -2 -9 0 -20 6 -11 6 -20 13 -20
16 0 2 9 0 20 -6 11 -6 20 -13 20 -16z m50 -30 c0 -2 -9 0 -20 6 -11 6 -20 13
-20 16 0 2 9 0 20 -6 11 -6 20 -13 20 -16z m1074 -32 c54 -20 98 -41 98 -47
-1 -15 -90 -35 -169 -38 -80 -2 -120 17 -138 67 -8 23 -6 30 10 42 31 23 94
15 199 -24z m2420 10 c5 -8 -43 -42 -204 -142 -47 -29 -116 -73 -154 -98 -145
-93 -365 -196 -383 -178 -4 3 0 6 8 6 25 0 122 50 174 89 27 21 120 78 205
126 85 49 195 115 244 147 90 59 101 64 110 50z m-3374 -48 c0 -2 -9 0 -20 6
-11 6 -20 13 -20 16 0 2 9 0 20 -6 11 -6 20 -13 20 -16z m70 -40 c0 -2 -13 2
-30 11 -16 9 -30 18 -30 21 0 2 14 -2 30 -11 17 -9 30 -18 30 -21z m1298 -9
c28 -25 66 -52 85 -60 30 -12 143 -27 297 -39 25 -1 -45 -1 -155 1 -239 5
-403 18 -438 34 -33 15 -59 53 -51 73 7 19 70 34 150 35 60 1 64 -1 112 -44z
m2009 -44 c37 -25 49 -28 90 -23 45 5 47 4 33 -12 -17 -21 -100 -76 -168 -110
-58 -29 -160 -62 -222 -71 -39 -6 -55 -17 -120 -84 -87 -88 -172 -135 -310
-171 -73 -19 -126 -23 -375 -30 -159 -5 -351 -12 -426 -16 -158 -8 -200 1
-230 50 -53 87 14 120 76 37 53 -71 68 -73 450 -62 232 7 329 13 385 26 146
34 209 75 235 155 20 59 56 92 145 133 36 16 79 40 97 53 70 53 250 154 273
154 14 0 44 -13 67 -29z m-854 2 c-7 -2 -21 -2 -30 0 -10 3 -4 5 12 5 17 0 24
-2 18 -5z m75 -10 c-10 -2 -26 -2 -35 0 -10 3 -2 5 17 5 19 0 27 -2 18 -5z
m-751 -59 c-3 -3 -12 -4 -19 -1 -8 3 -5 6 6 6 11 1 17 -2 13 -5z m933 -58 c0
-2 -7 -7 -16 -10 -8 -3 -12 -2 -9 4 6 10 25 14 25 6z m-1699 -127 c43 -37 49
-39 115 -39 l69 -1 -24 -19 c-19 -17 -38 -20 -117 -20 -97 0 -147 13 -173 43
-29 36 16 91 64 79 11 -3 40 -22 66 -43z m497 -5 c24 -11 82 -19 167 -24 l130
-7 -192 -1 c-197 -2 -223 1 -223 23 0 28 63 33 118 9z m1039 -30 c-3 -3 -12
-4 -19 -1 -8 3 -5 6 6 6 11 1 17 -2 13 -5z m-700 -10 c-3 -3 -12 -4 -19 -1 -8
3 -5 6 6 6 11 1 17 -2 13 -5z m656 -1 c-7 -2 -21 -2 -30 0 -10 3 -4 5 12 5 17
0 24 -2 18 -5z m-60 -10 c-7 -2 -21 -2 -30 0 -10 3 -4 5 12 5 17 0 24 -2 18
-5z m-1127 -326 c-11 -7 -36 -27 -57 -45 -36 -32 -38 -32 -48 -13 -14 26 -14
31 3 25 8 -3 36 6 63 20 50 26 72 33 39 13z m179 -37 c-4 -12 -9 -19 -12 -17
-3 3 -2 15 2 27 4 12 9 19 12 17 3 -3 2 -15 -2 -27z"/>
<path d="M7475 7338 c-11 -18 -18 -37 -16 -43 2 -5 4 -26 6 -45 1 -19 14 -66
28 -105 33 -90 42 -71 34 73 -6 107 -14 152 -26 152 -4 0 -15 -15 -26 -32z"/>
<path d="M12234 6636 c-22 -22 -68 -56 -101 -75 l-62 -34 56 -69 c31 -38 69
-76 84 -84 32 -16 75 -19 84 -4 3 6 21 10 39 10 38 0 56 15 56 48 0 21 -104
254 -112 251 -2 -1 -21 -20 -44 -43z"/>
<path d="M12300 5983 c0 -10 -9 -32 -19 -50 -16 -26 -29 -33 -78 -43 -140 -28
-197 -56 -209 -105 -6 -25 28 -95 46 -95 26 0 61 27 76 59 9 20 22 39 27 43 6
3 22 -19 37 -50 35 -74 52 -88 133 -109 63 -16 69 -17 94 -1 48 28 63 58 73
145 15 135 -2 164 -118 204 -67 23 -62 23 -62 2z"/>
<path d="M8150 5211 c0 -17 26 -24 47 -12 16 9 16 10 1 11 -9 0 -23 3 -32 6
-9 3 -16 1 -16 -5z"/>
<path d="M11688 3462 c-5 -82 -35 -165 -84 -229 -14 -18 -22 -33 -18 -33 14 0
84 62 79 70 -6 9 12 23 33 26 17 3 29 14 15 14 -6 0 -4 21 5 57 11 47 12 67 2
115 -7 32 -16 58 -20 58 -4 0 -9 -35 -12 -78z"/>
<path d="M7330 3456 c0 -8 4 -17 9 -20 5 -4 7 3 4 14 -6 23 -13 26 -13 6z"/>
</g>
</svg>
