<?xml version="1.0" encoding="UTF-8"?>
<svg width="200" height="200" viewBox="0 0 200 200" fill="none" xmlns="http://www.w3.org/2000/svg">
  <!-- Money stack -->
  <rect x="40" y="120" width="120" height="20" rx="5" fill="#4ade80" />
  <rect x="40" y="110" width="120" height="20" rx="5" fill="#22c55e" />
  <rect x="40" y="100" width="120" height="20" rx="5" fill="#16a34a" />
  <rect x="40" y="90" width="120" height="20" rx="5" fill="#4ade80" />
  <rect x="40" y="80" width="120" height="20" rx="5" fill="#22c55e" />
  <rect x="40" y="70" width="120" height="20" rx="5" fill="#16a34a" />
  <rect x="40" y="60" width="120" height="20" rx="5" fill="#4ade80" />
  
  <!-- White band -->
  <rect x="80" y="120" width="40" height="20" fill="#f8fafc" />
  <rect x="80" y="110" width="40" height="20" fill="#f1f5f9" />
  <rect x="80" y="100" width="40" height="20" fill="#e2e8f0" />
  <rect x="80" y="90" width="40" height="20" fill="#f8fafc" />
  <rect x="80" y="80" width="40" height="20" fill="#f1f5f9" />
  <rect x="80" y="70" width="40" height="20" fill="#e2e8f0" />
  <rect x="80" y="60" width="40" height="20" fill="#f8fafc" />
  
  <!-- Dollar sign -->
  <path d="M100 70 L100 110 M90 80 L110 80 M90 100 L110 100" stroke="#16a34a" stroke-width="3" />
</svg>
