<?xml version="1.0" encoding="UTF-8"?>
<svg width="200" height="200" viewBox="0 0 200 200" fill="none" xmlns="http://www.w3.org/2000/svg">
  <!-- Head -->
  <circle cx="100" cy="80" r="50" fill="#FFD7B5"/>
  
  <!-- Hair -->
  <path d="M60 70C60 50 75 30 100 30C125 30 140 50 140 70V80C140 80 130 100 100 100C70 100 60 80 60 80V70Z" fill="#6EE7B7"/>
  
  <!-- Eyes -->
  <circle cx="80" cy="75" r="5" fill="#333333"/>
  <circle cx="120" cy="75" r="5" fill="#333333"/>
  
  <!-- Smile -->
  <path d="M85 95C90 105 110 105 115 95" stroke="#333333" stroke-width="3" stroke-linecap="round"/>
  
  <!-- Body -->
  <path d="M70 130V180H130V130C130 130 115 140 100 140C85 140 70 130 70 130Z" fill="#6EE7B7"/>
  
  <!-- Design elements -->
  <circle cx="90" cy="155" r="10" fill="#111827"/>
  <circle cx="110" cy="155" r="10" fill="white"/>
  <path d="M90 155L110 155" stroke="#6EE7B7" stroke-width="2"/>
</svg>
