<?xml version="1.0" encoding="UTF-8"?>
<svg width="200" height="200" viewBox="0 0 200 200" fill="none" xmlns="http://www.w3.org/2000/svg">
  <!-- Head -->
  <circle cx="100" cy="80" r="50" fill="#FFD7B5"/>
  
  <!-- Hair -->
  <path d="M60 60C60 40 75 30 100 30C125 30 140 40 140 60V70C140 70 130 80 100 80C70 80 60 70 60 70V60Z" fill="#60A5FA"/>
  
  <!-- Glasses -->
  <rect x="75" y="70" width="20" height="10" rx="5" fill="#333333"/>
  <rect x="105" y="70" width="20" height="10" rx="5" fill="#333333"/>
  <line x1="95" y1="75" x2="105" y2="75" stroke="#333333" stroke-width="2"/>
  
  <!-- Smile -->
  <path d="M85 95C90 105 110 105 115 95" stroke="#333333" stroke-width="3" stroke-linecap="round"/>
  
  <!-- Body -->
  <path d="M70 130V180H130V130C130 130 115 140 100 140C85 140 70 130 70 130Z" fill="#60A5FA"/>
  
  <!-- Judge elements -->
  <rect x="85" y="110" width="30" height="10" rx="5" fill="#111827"/>
  <path d="M85 120L100 130L115 120" stroke="#111827" stroke-width="3"/>
</svg>
