<?xml version="1.0" encoding="UTF-8"?>
<svg width="200" height="200" viewBox="0 0 200 200" fill="none" xmlns="http://www.w3.org/2000/svg">
  <!-- Head -->
  <circle cx="100" cy="80" r="50" fill="#FFD7B5"/>
  
  <!-- Hair -->
  <path d="M60 60C60 40 75 30 100 30C125 30 140 40 140 60V70C140 70 130 80 100 80C70 80 60 70 60 70V60Z" fill="#F87171"/>
  
  <!-- Eyes -->
  <circle cx="80" cy="75" r="5" fill="#333333"/>
  <circle cx="120" cy="75" r="5" fill="#333333"/>
  
  <!-- Smile -->
  <path d="M85 95C90 105 110 105 115 95" stroke="#333333" stroke-width="3" stroke-linecap="round"/>
  
  <!-- Body -->
  <path d="M70 130V180H130V130C130 130 115 140 100 140C85 140 70 130 70 130Z" fill="#F87171"/>
  
  <!-- Mentor elements -->
  <circle cx="100" cy="115" r="10" fill="#111827"/>
  <path d="M90 115L110 115M100 105L100 125" stroke="white" stroke-width="2"/>
</svg>
