<svg xmlns="http://www.w3.org/2000/svg" width="174" height="27" viewBox="0 0 174 27" fill="none">
  <path d="M133.221 17.3661C133.221 19.1136 131.783 20.5336 130.018 20.5336C128.253 20.5336 126.814 19.1116 126.814 17.3661V9.6322C126.814 7.88472 128.252 6.46465 130.018 6.46465C131.785 6.46465 133.221 7.88665 133.221 9.6322V9.72713H135.672V9.6322C135.672 6.54989 133.136 4.04297 130.016 4.04297C126.897 4.04297 124.363 6.54989 124.363 9.6322V17.3583C124.363 20.4406 126.899 22.9476 130.016 22.9476C133.134 22.9476 135.666 20.4426 135.67 17.3661V17.2634H133.219V17.3661H133.221Z" fill="white"/>
  <path d="M145.96 9.03955C143.362 9.03955 141.227 11.0524 141.102 13.6252V18.362C141.229 20.9348 143.362 22.9477 145.96 22.9477C148.558 22.9477 150.693 20.931 150.819 18.3562V13.6194C150.693 11.0524 148.558 9.03955 145.96 9.03955ZM148.363 18.0869C148.339 19.4353 147.284 20.4931 145.96 20.4931C144.637 20.4931 143.581 19.4373 143.556 18.0889V13.9023C143.556 12.5752 144.635 11.4961 145.96 11.4961C147.286 11.4961 148.363 12.5752 148.363 13.9023V18.0869Z" fill="white"/>
  <path d="M139.338 4.04297H136.893V22.6415H139.338V4.04297Z" fill="white"/>
  <path d="M71.9859 9.03955H69.541V22.6416H71.9859V9.03955Z" fill="white"/>
  <path d="M67.1022 4.04297H64.6572V22.6415H67.1022V4.04297Z" fill="white"/>
  <path d="M58.4919 4.04491H55.4832L50.5449 22.6182L50.5391 22.6415H52.9801L54.2917 17.707L59.6911 17.7225L60.9949 22.626L60.9988 22.6395H63.4398L58.4977 4.05653L58.4938 4.04297L58.4919 4.04491ZM59.0421 15.2873H54.9349L56.9885 7.56506L59.0421 15.2873Z" fill="white"/>
  <path d="M159.85 18.3427C159.85 19.6717 158.769 20.7527 157.44 20.7527C156.111 20.7527 155.03 19.6717 155.03 18.3427V9.03955H152.585V18.7418C152.585 21.0608 154.472 22.9477 156.791 22.9477C157.217 22.9477 157.639 22.8838 158.044 22.7579C158.281 22.6881 158.507 22.5932 158.717 22.477C159.092 22.2832 159.435 22.0372 159.732 21.7446L159.836 21.642V22.6416H162.303V9.03955H159.848V18.3427H159.85Z" fill="white"/>
  <path d="M71.9859 4.04297H69.541V6.48789H71.9859V4.04297Z" fill="white"/>
  <path d="M79.9172 9.02827C78.8129 9.02827 77.7667 9.45449 76.9743 10.2314L76.8697 10.334V4.04736H74.4248V22.6458H76.8697V21.6462L76.9743 21.7489C77.7667 22.5238 78.8109 22.952 79.9172 22.952C82.2381 22.952 84.1251 21.065 84.1251 18.744V13.2381C84.1251 10.9172 82.2381 9.03021 79.9172 9.03021M81.7111 13.6837V18.2965C81.7111 19.6294 80.6282 20.7124 79.2953 20.7124C77.9624 20.7124 76.8794 19.6294 76.8794 18.2965V13.6837C76.8794 12.3527 77.9624 11.2678 79.2953 11.2678C80.6282 11.2678 81.7111 12.3508 81.7111 13.6837Z" fill="white"/>
  <path d="M102.677 9.02681C101.573 9.02681 100.527 9.45302 99.7361 10.2299L99.6314 10.3326V4.0459H97.1865V22.6444H99.6314V21.6447L99.7361 21.7474C100.528 22.5223 101.573 22.9505 102.677 22.9505C104.998 22.9505 106.885 21.0635 106.885 18.7426V13.2367C106.885 10.9157 104.998 9.02874 102.677 9.02874M104.471 13.6822V18.2951C104.471 19.6279 103.388 20.7109 102.055 20.7109C100.722 20.7109 99.6392 19.6279 99.6392 18.2951V13.6822C99.6392 12.3513 100.722 11.2664 102.055 11.2664C103.388 11.2664 104.471 12.3493 104.471 13.6822Z" fill="white"/>
  <path d="M171.323 4.04343V10.3301L171.218 10.2274C170.426 9.45249 169.382 9.02433 168.275 9.02433C165.956 9.02433 164.067 10.9113 164.067 13.2322V18.7401V18.7537C164.067 21.0649 165.958 22.9441 168.277 22.9441C169.382 22.9441 170.428 22.5179 171.22 21.741L171.325 21.6384V22.638H173.77V4.03955H171.325L171.323 4.04343ZM171.313 13.6817V18.2945C171.313 19.6274 170.23 20.7104 168.897 20.7104C167.564 20.7104 166.481 19.6274 166.481 18.2945V13.6817C166.481 12.3507 167.564 11.2658 168.897 11.2658C170.23 11.2658 171.313 12.3488 171.313 13.6817Z" fill="white"/>
  <path d="M95.4322 13.6411C95.4245 13.4939 95.409 13.3389 95.3819 13.1665L95.3703 13.0987C95.2463 12.3605 94.9653 11.6747 94.5333 11.0625C93.6673 9.85361 92.3461 9.11355 90.9066 9.03605C90.8698 9.03605 90.709 9.02637 90.6238 9.02637C89.4827 9.02637 88.3764 9.42546 87.5046 10.1481C86.6348 10.8707 86.04 11.8839 85.8308 13.0037L85.8269 13.027H88.2195V13.0115C88.4423 11.8859 89.4342 11.0664 90.5811 11.0664C91.205 11.0664 91.7978 11.3066 92.2492 11.7425C92.7006 12.1784 92.9621 12.7596 92.9873 13.3815L92.9912 14.5226H89.5234C87.2024 14.5226 85.3174 16.4096 85.3174 18.7286C85.3174 20.6814 86.6561 22.3243 88.4636 22.7951C88.483 22.8009 88.5043 22.8047 88.5256 22.8106C88.6031 22.8299 88.6806 22.8474 88.7581 22.8609C88.8511 22.8784 88.948 22.8939 89.0506 22.9055C89.07 22.9074 89.0913 22.9113 89.1107 22.9132C89.3102 22.9345 89.5234 22.9481 89.7442 22.9481C90.3254 22.9481 90.8485 22.8667 91.2127 22.735C91.8327 22.5374 92.4042 22.2003 92.8827 21.7315L92.9873 21.6288V22.6284H95.4322V21.003V13.6411ZM89.9748 16.3786H92.9544V18.0989C92.9486 19.4047 92.0167 20.5264 90.7361 20.7686C90.5463 20.8112 90.368 20.8325 90.1937 20.8325C89.7675 20.8325 89.3529 20.7163 88.9576 20.4857C88.8433 20.4257 88.7407 20.3598 88.6457 20.2862C88.5004 20.1719 88.3764 20.0498 88.268 19.9104L88.2428 19.8774C87.9483 19.4899 87.7933 19.0366 87.7933 18.5639C87.7933 17.3589 88.7736 16.3805 89.9767 16.3805" fill="white"/>
  <path d="M118.223 13.6543C118.215 13.5071 118.2 13.3521 118.173 13.1797L118.161 13.1118C118.037 12.3737 117.756 11.6879 117.324 11.0757C116.458 9.86486 115.137 9.12673 113.698 9.04924C113.661 9.04924 113.5 9.03955 113.413 9.03955C112.274 9.03955 111.166 9.43864 110.294 10.1613C109.424 10.8839 108.829 11.8971 108.62 13.0169L108.616 13.0402H111.009V13.0247C111.233 11.8991 112.223 11.0796 113.37 11.0796C113.994 11.0796 114.587 11.3198 115.04 11.7557C115.492 12.1916 115.753 12.7728 115.778 13.3928V14.5358H112.312C109.993 14.5358 108.106 16.4228 108.106 18.7418C108.106 20.6946 109.447 22.3375 111.255 22.8082C111.274 22.8141 111.295 22.8179 111.317 22.8237C111.394 22.8431 111.472 22.8605 111.549 22.8741C111.642 22.8915 111.739 22.907 111.842 22.9187C111.861 22.9187 111.882 22.9245 111.902 22.9264C112.101 22.9477 112.314 22.9613 112.535 22.9613C113.116 22.9613 113.639 22.8799 114.004 22.7482C114.624 22.5506 115.195 22.2135 115.674 21.7446L115.778 21.642V22.6416H118.223V21.0162V13.6543ZM112.766 16.3898H115.745V18.1082C115.74 19.414 114.808 20.5377 113.529 20.7779C113.339 20.8205 113.161 20.8418 112.987 20.8418C112.56 20.8418 112.144 20.7256 111.751 20.4951C111.636 20.435 111.536 20.3691 111.439 20.2955C111.293 20.1812 111.169 20.0592 111.061 19.9197L111.036 19.8867C110.741 19.4993 110.586 19.0459 110.586 18.5732C110.586 17.3701 111.567 16.3898 112.77 16.3898" fill="white"/>
  <path d="M27.58 11.8936H13.9082V14.9759H27.58V11.8936Z" fill="white"/>
  <path d="M34.4283 0.708969H25.3828L27.5662 3.79709L34.1609 5.81774C35.3834 6.20327 36.1602 7.33662 36.1525 8.5552C36.1525 8.55714 36.1525 8.56102 36.1525 8.56295V18.4395C36.1525 18.4395 36.1525 18.4434 36.1525 18.4473C36.1602 19.6659 35.3834 20.7992 34.1609 21.1847L27.5662 23.2054L25.3828 26.2935H34.4283C38.2022 26.2935 41.2613 23.2344 41.2613 19.4605V7.54004C41.2613 3.76609 38.2022 0.707031 34.4283 0.707031" fill="white"/>
  <path d="M7.05957 0.708969H16.105L13.9216 3.79709L7.32692 5.81774C6.10446 6.20327 5.32758 7.33662 5.33533 8.5552C5.33533 8.55714 5.33533 8.56102 5.33533 8.56295V18.4395C5.33533 18.4395 5.33533 18.4434 5.33533 18.4473C5.32758 19.6659 6.10446 20.7992 7.32692 21.1847L13.9216 23.2054L16.105 26.2935H7.05957C3.28563 26.2935 0.226562 23.2344 0.226562 19.4605V7.54004C0.226562 3.76609 3.28563 0.707031 7.05957 0.707031" fill="white"/>
</svg>
