<svg xmlns="http://www.w3.org/2000/svg" width="374" height="100" viewBox="0 0 374 100" fill="none">
  <g clip-path="url(#clip0_4066_11751)">
    <path d="M0.0742188 58.7277C0.0742188 42.926 7.18857 28.2222 15.7002 16.6843H18.3266C13.4087 23.2612 3.89431 37.0521 2.39484 54.162C2.39484 54.162 18.3266 41.1375 41.0428 54.162C63.759 67.1863 79.6909 54.162 79.6909 54.162C78.1912 37.0521 68.6768 23.2612 63.759 16.6843H66.3854C74.897 28.2222 82.0114 42.926 82.0114 58.7277C82.0114 79.7287 65.2864 99.6779 41.0428 99.6779C16.7991 99.6779 0.0742188 79.7287 0.0742188 58.7277Z" fill="white"/>
    <path d="M56.0503 0.282959L62.0998 8.48352H19.1348L25.1843 0.282959H56.0503Z" fill="white"/>
    <path d="M365.085 83.3689C362.418 83.3689 360.067 82.829 358.036 81.7493C356.004 80.606 354.416 79.0498 353.272 77.0809C352.192 75.1118 351.652 72.8251 351.652 70.2211V42.0199H343.84V33.5405H351.652L352.89 20.2021H360.799V33.5405H373.375V42.0199H360.799V69.4588C360.799 70.9832 361.307 72.2535 362.322 73.2698C363.339 74.2861 364.641 74.7942 366.229 74.7942H373.375V83.3689H365.085Z" fill="white"/>
    <path d="M321.098 84.3217C316.397 84.3217 312.268 83.3055 308.711 81.2729C305.219 79.2404 302.487 76.3188 300.517 72.5077C298.613 68.6333 297.66 63.9331 297.66 58.4072C297.66 53.0083 298.613 48.3716 300.517 44.4971C302.487 40.5591 305.219 37.6056 308.711 35.6367C312.206 33.6042 316.238 32.5879 320.812 32.5879C325.639 32.5879 329.767 33.7311 333.197 36.0178C336.69 38.2407 339.326 41.1943 341.105 44.8782C342.883 48.5621 343.773 52.4367 343.773 56.5016C343.773 57.4544 343.709 58.3755 343.581 59.2647C343.519 60.1539 343.423 60.8843 343.296 61.4559H303.853V53.834H334.722C334.404 51.5474 333.706 49.4197 332.626 47.4506C331.547 45.4181 329.99 43.7985 327.958 42.5917C325.989 41.3849 323.607 40.7814 320.812 40.7814C317.699 40.7814 315.094 41.5437 313 43.0681C310.903 44.5289 309.347 46.5297 308.33 49.0704C307.315 51.6109 306.806 54.5644 306.806 57.9308C306.806 61.8052 307.346 65.1082 308.426 67.8393C309.57 70.5705 311.22 72.6348 313.381 74.0321C315.54 75.4294 318.112 76.1281 321.098 76.1281C323.828 76.1281 326.116 75.5884 327.958 74.5085C329.798 73.3653 331.386 71.7138 332.72 69.5542H342.535C341.518 72.603 340.026 75.2389 338.057 77.462C336.087 79.6216 333.674 81.3048 330.815 82.5116C327.958 83.7184 324.718 84.3217 321.098 84.3217Z" fill="white"/>
    <path d="M257.459 83.369V16.677H266.605V56.5016L288.518 33.5406H299.571L276.514 57.8355L301 83.369H289.757L266.605 59.3599V83.369H257.459Z" fill="white"/>
    <path d="M230.697 84.3217C225.998 84.3217 221.87 83.3055 218.313 81.2729C214.82 79.2404 212.088 76.3188 210.119 72.5077C208.214 68.6333 207.26 63.9331 207.26 58.4072C207.26 52.9448 208.214 48.2764 210.119 44.4018C212.088 40.5274 214.82 37.6056 218.313 35.6367C221.87 33.6042 225.998 32.5879 230.697 32.5879C234.319 32.5879 237.558 33.2231 240.417 34.4934C243.274 35.7002 245.687 37.4468 247.656 39.7334C249.626 41.9565 251.118 44.6242 252.135 47.7365H242.607C241.338 45.4498 239.717 43.7666 237.749 42.6869C235.78 41.5437 233.429 40.9719 230.697 40.9719C227.903 40.9719 225.427 41.6389 223.266 42.9727C221.107 44.3066 219.423 46.3073 218.217 48.975C217.01 51.5792 216.408 54.7232 216.408 58.4072C216.408 62.1546 217.01 65.3622 218.217 68.0298C219.423 70.6341 221.107 72.603 223.266 73.9369C225.427 75.2708 227.903 75.9376 230.697 75.9376C233.429 75.9376 235.78 75.366 237.749 74.2226C239.717 73.0794 241.338 71.3645 242.607 69.0778H252.135C251.118 72.2537 249.626 74.9849 247.656 77.2714C245.687 79.4945 243.274 81.2412 240.417 82.5116C237.558 83.7184 234.319 84.3217 230.697 84.3217Z" fill="white"/>
    <path d="M178.554 84.3217C174.999 84.3217 171.79 83.5277 168.933 81.9398C166.138 80.2885 163.946 77.9383 162.358 74.8895C160.771 71.7772 159.977 68.1887 159.977 64.1236V33.5405H169.122V63.552C169.122 66.156 169.568 68.3792 170.456 70.2211C171.41 72.0631 172.744 73.4922 174.459 74.5085C176.174 75.4611 178.175 75.9375 180.461 75.9375C182.747 75.9375 184.779 75.3978 186.558 74.3179C188.4 73.1747 189.83 71.6503 190.845 69.7447C191.925 67.8392 192.464 65.7751 192.464 63.552V33.5405H201.706V83.369H194.085L192.941 76.9855H192.464C190.876 79.5262 188.844 81.4 186.367 82.6068C183.954 83.7501 181.35 84.3217 178.554 84.3217Z" fill="white"/>
    <path d="M104.945 83.369V16.677H134.194C138.323 16.677 141.88 17.4392 144.865 18.9636C147.851 20.4245 150.105 22.5523 151.63 25.3469C153.218 28.1416 154.012 31.4446 154.012 35.2555C154.012 38.3678 153.218 41.2261 151.63 43.8301C150.042 46.4344 147.977 48.3397 145.437 49.5465C148.105 50.6264 150.359 52.5636 152.201 55.3583C154.043 58.1531 154.964 61.2971 154.964 64.7905C154.964 68.6014 154.17 71.9042 152.582 74.6989C151.058 77.4937 148.803 79.6532 145.818 81.1776C142.833 82.6384 139.276 83.369 135.147 83.369H104.945ZM134.194 74.5084C136.291 74.5084 138.133 74.0956 139.72 73.2698C141.372 72.4441 142.642 71.2692 143.531 69.7446C144.421 68.2203 144.865 66.4101 144.865 64.3141C144.865 61.1383 143.881 58.6611 141.912 56.8827C140.006 55.0407 137.434 54.1197 134.194 54.1197H115.044V74.5084H134.194ZM133.242 45.9261C135.338 45.9261 137.18 45.5133 138.768 44.6876C140.419 43.8618 141.689 42.6869 142.579 41.1625C143.468 39.6381 143.913 37.8278 143.913 35.7318C143.913 32.556 142.928 30.0788 140.959 28.3004C139.054 26.4584 136.481 25.5375 133.242 25.5375H115.044V45.9261H133.242Z" fill="white"/>
  </g>
</svg>
