<svg xmlns="http://www.w3.org/2000/svg" width="166" height="61" viewBox="0 0 166 61" fill="none">
  <g clip-path="url(#clip0_4069_13891)">
    <path d="M43.6196 44.9037L51.98 50.6756L60.182 44.8509L60.1889 1.9667L51.9525 7.57786V40.859L43.6196 35.1422L35.2614 40.836L35.2752 19.2435L27.0778 24.919L27.064 51.4543L10.4143 39.8576V30.2867L22.4244 38.7091V28.8649L10.4372 20.4953V13.1408L25.764 23.7591L33.9086 18.1502L8.75595 0.735596L0.485062 6.49605H0.480469V44.1802H0.487359L22.661 59.5138L43.6196 44.9037Z" fill="white"></path>
    <path d="M86.6933 42.4465C86.6933 43.1126 86.4338 43.4089 85.3589 44.2243C82.5797 46.3351 80.6182 47.3732 77.7656 47.3732C73.0617 47.3732 70.6523 43.3722 70.6523 39.1873C70.6523 31.3712 76.3576 27.8157 81.2476 27.8157C83.8039 27.8157 85.9515 29.1111 86.1743 31.0382C87.0999 30.8521 87.7683 30.5926 88.4711 30.186L88.6571 30.4088L87.9911 31.5205C87.6948 32.0028 87.3985 32.2624 86.6566 32.4461L73.9873 35.8179C73.9138 36.5965 73.838 37.2626 73.838 38.1147C73.838 42.9679 75.8018 45.3382 79.5433 45.3382C82.0997 45.3382 85.0626 43.1517 86.6933 41.4865V42.4488V42.4465ZM82.9886 31.3345C82.9886 30.186 82.0629 29.0744 80.2484 29.0744C77.7656 29.0744 74.9887 31.1852 74.0998 35.1862L74.1733 35.2597L75.285 34.1113C75.3952 34.0011 75.5445 33.9253 75.6548 33.8885L82.9886 31.888V31.3322V31.3345Z" fill="white"></path>
    <path d="M125.532 42.1129C124.606 43.6678 123.754 45.6316 123.642 47.0763C122.9 47.1498 122.011 47.4829 121.235 47.8917C119.939 42.779 118.752 37.6685 117.16 32.9255C115.049 37.6295 113.196 42.3724 111.751 47.0763C110.972 47.0763 110.01 47.4094 109.307 47.8917C106.863 37.1494 105.566 32.7418 104.64 31.0008C104.084 29.9626 103.641 29.8156 103.232 29.8156C103.009 29.8156 102.862 29.8891 102.75 29.9259L102.527 29.4436C105.267 28.1849 106.156 27.8128 106.787 27.8128C107.27 27.8128 107.566 28.0356 107.787 29.0347L111.046 44.5177H111.119L115.38 31.8851C115.676 30.9595 115.936 29.958 116.195 28.9957C117.194 28.5501 118.047 28.07 119.011 27.551L122.9 44.5154H122.973C123.159 43.9963 123.752 42.5516 124.344 41.4032C128.456 33.4377 128.752 32.0688 128.752 31.327C128.752 30.2888 127.79 29.9557 126.605 29.9557C124.9 29.9557 124.531 30.252 123.605 31.3637L123.123 31.1042L124.641 28.8441C124.937 28.3985 126.196 28.1022 128.568 28.1022C130.755 28.1022 131.94 28.8441 131.94 30.3255C131.94 30.8814 131.495 32.0298 129.347 35.6588L125.532 42.1037V42.1129Z" fill="white"></path>
    <path d="M141.005 45.4491L138.412 46.7836C137.486 47.2659 137.227 47.3762 136.93 47.3762C136.597 47.3762 136.411 47.1166 136.411 46.7468C136.411 46.3013 136.448 45.5984 136.521 44.6728L137.114 36.6706C137.224 35.2994 137.3 34.1143 137.3 33.4482C137.3 30.7081 135.559 30.7816 135.559 30.1155C135.559 29.5964 135.855 29.5597 136.634 29.3001C139.004 28.5215 140.006 27.8187 140.412 27.8187C140.709 27.8187 140.819 28.0047 140.819 28.301C140.819 28.5973 140.745 29.1531 140.633 30.0787L139.225 42.5253C139.151 43.1546 139.078 44.0435 139.078 44.7118C139.078 45.1184 139.225 45.4537 139.448 45.4537C139.781 45.4537 140.15 45.2677 140.782 44.9714L141.005 45.4537V45.4491ZM139.043 25.2232C138.71 25.3702 138.524 25.4093 138.377 25.4093C138.191 25.4093 138.044 25.299 138.044 24.9637C138.044 24.7409 138.081 24.4079 138.081 24.2218L138.191 23.1469C138.265 22.4441 138.302 22.3315 138.933 22.1087L140.229 21.6632C140.562 21.5529 140.711 21.5139 140.821 21.5139C141.044 21.5139 141.228 21.6241 141.228 21.9204C141.228 22.1432 141.228 22.4762 141.191 22.699L141.081 23.8107C141.044 24.293 140.931 24.4033 140.562 24.5526L139.043 25.2186V25.2232Z" fill="white"></path>
    <path d="M147.25 37.6668C147.36 35.8156 147.473 34.1848 147.473 33.629C147.473 30.0367 145.805 31.0359 145.805 30.0367C145.805 29.6302 146.065 29.6302 146.694 29.4074C149.177 28.5185 149.694 27.8157 150.213 27.8157C150.656 27.8157 150.805 28.1855 150.805 29.9633V30.9256C152.879 29.1479 155.25 28.1097 157.955 28.1097C161.031 28.1097 163.808 29.4051 163.808 32.9629C163.808 33.5555 163.771 34.7039 163.622 36.0751L162.88 43.7052C162.806 44.2978 162.806 44.7434 162.806 44.9639C162.806 45.3704 163.029 45.5197 163.325 45.5197C163.585 45.5197 163.732 45.4094 164.028 45.2601L164.398 45.0374L164.658 45.5564L162.064 46.8909C161.619 47.1137 161.026 47.3732 160.657 47.3732C160.287 47.3732 160.137 47.1137 160.137 46.7071C160.101 46.4109 160.174 45.855 160.211 45.0764L160.73 37.15C160.804 36.1877 160.84 35.4458 160.84 35.0025C160.84 31.447 159.618 29.9655 156.024 29.9655C152.801 29.9655 150.652 32.3359 150.355 35.1518L149.244 46.1536C149.207 46.3764 148.911 46.5234 148.428 46.7462L147.576 47.1527C147.28 47.302 147.057 47.3755 146.834 47.3755C146.687 47.3755 146.575 47.2285 146.575 46.969C146.575 46.5992 146.724 45.4508 146.797 44.2656L147.243 37.6714L147.25 37.6668Z" fill="white"></path>
    <path d="M101.365 27.5965L100.988 28.3131C99.0236 27.484 97.2366 25.7889 95.6197 23.228C92.5442 26.7697 90.4977 28.5382 89.4802 28.5382H88.8164C92.9324 23.4163 94.9788 20.226 94.9559 18.9696L95.3326 18.593C96.1571 18.9696 96.6716 19.5852 96.876 20.4396C97.8085 23.0764 99.3061 25.4628 101.365 27.5965Z" fill="white"></path>
  </g>
</svg>
