<svg xmlns="http://www.w3.org/2000/svg" width="154" height="33" viewBox="0 0 154 33" fill="none">
  <path fill-rule="evenodd" clip-rule="evenodd" d="M22.6627 0.0984326C20.7792 0.244796 18.4783 0.538634 17.269 0.787238C13.8642 1.48726 11.1995 2.97499 8.85806 5.48327L8.07706 6.31993L7.35578 6.17792C6.21177 5.95268 5.85485 5.92014 4.53785 5.92116C3.11212 5.92228 1.87988 6.07532 1.65044 6.27989C1.4179 6.48705 1.08239 7.11191 0.901844 7.67401C0.788125 8.02772 0.75289 8.37968 0.776471 8.92537C0.822268 9.98605 1.1769 10.7377 2.03803 11.5988C2.63849 12.1994 2.67391 12.2581 2.67391 12.6521C2.67391 13.0527 2.68848 13.0752 3.0402 13.2186C3.48259 13.3988 3.97216 13.9562 4.11539 14.4429C4.17311 14.6391 4.28427 15.3588 4.36239 16.0425C4.44042 16.7261 4.54931 17.473 4.60431 17.7026C4.73696 18.2563 5.13093 19.0485 5.55294 19.6101L5.89564 20.0663L5.90766 21.2712C5.92131 22.6474 6.07573 23.4461 6.56165 24.6546C7.64149 27.3395 9.4894 29.2272 12.2267 30.4421C13.6804 31.0872 15.5197 31.5128 16.8572 31.5135C17.4053 31.5138 17.6101 31.5601 18.0409 31.7803C20.165 32.867 22.988 33.2326 25.3448 32.7261C26.5359 32.4702 27.9209 31.9249 28.897 31.3276C29.5161 30.9489 29.7868 30.8444 30.4764 30.7182C32.9668 30.2623 35.9528 28.8314 37.6103 27.2998C39.1309 25.8946 40.3026 23.6483 40.6428 21.4864C40.7932 20.5311 40.7154 18.1992 40.5113 17.5401C40.3678 17.0765 40.3691 17.0252 40.5397 16.4627C40.8605 15.4053 40.9517 14.1377 40.8205 12.5626C40.7563 11.7932 40.7323 11.0094 40.7671 10.8208C40.84 10.4247 41.1842 9.97048 41.5622 9.77147L41.8245 9.63344V8.67064V7.70793L41.4603 7.64526C41.26 7.61079 41.0962 7.54461 41.0962 7.49807C41.0962 7.45154 41.1338 7.41353 41.1798 7.41353C41.2258 7.41353 41.4911 7.20173 41.7694 6.94283C42.9757 5.8205 43.3248 3.7945 42.5966 2.1428L42.3503 1.58394L41.7005 1.431C40.2247 1.08376 38.4491 1.16116 36.9557 1.63788C36.1136 1.9067 34.8179 2.56176 34.2405 3.01058L33.843 3.31963L33.2587 2.90463C31.3499 1.54946 29.1642 0.63485 26.8927 0.240902C25.8421 0.0586669 23.9812 -0.00399389 22.6627 0.0984326ZM22.7045 0.800216C22.5292 0.817271 21.9352 0.874092 21.3843 0.926465C16.0982 1.42942 13.5141 2.32187 10.7772 4.5899C10.2038 5.06514 9.05282 6.23539 8.58519 6.81881L8.35612 7.10468L7.31317 6.87851C6.46451 6.6945 5.98205 6.64983 4.72249 6.63898C3.87119 6.63167 2.98711 6.65836 2.75786 6.6984L2.34104 6.77126L2.40759 7.25456C2.53406 8.17278 2.87321 8.73543 3.57219 9.18676C4.19459 9.58858 4.56816 9.65958 6.2703 9.69954C7.12161 9.71947 7.96152 9.74292 8.13679 9.75163C8.31205 9.76025 8.90615 9.69185 9.45698 9.59944C10.8444 9.36678 16.1487 9.29021 19.2902 9.45751C22.8643 9.64782 24.2042 9.48727 27.8487 8.43196C28.9003 8.12746 30.2524 7.79293 30.8533 7.68865C32.4707 7.40769 35.1911 7.29257 37.7081 7.39861L39.8283 7.48788L40.288 7.1958C41.2723 6.5703 41.6179 6.23558 41.916 5.61935C42.1418 5.15237 42.2146 4.86353 42.2497 4.29449C42.2744 3.89423 42.2593 3.40259 42.2161 3.20199L42.1375 2.83724L41.7005 3.5509C40.6552 5.25831 38.7424 6.65177 36.952 7.00986C36.0739 7.1856 35.8799 7.13879 35.8329 6.74012C35.8013 6.47278 35.7594 6.4929 36.9168 6.21871C38.6432 5.80984 40.0044 4.87335 40.9737 3.4277C41.3348 2.88916 41.6685 2.21843 41.6068 2.15558C41.3746 1.91912 38.9557 1.87611 37.9368 2.09042C36.6811 2.3545 35.5754 2.87016 34.4291 3.72618L33.8167 4.18344L33.0633 3.63089C30.3772 1.66041 27.4805 0.720221 24.2068 0.756278C23.5558 0.763416 22.8797 0.783161 22.7045 0.800216ZM1.57806 7.78681C1.49875 7.97832 1.44686 8.39043 1.44995 8.80394C1.45596 9.60416 1.72036 10.2658 2.28486 10.8932C2.56511 11.2046 2.61964 11.2325 2.66873 11.0899C2.72234 10.9344 2.73692 10.9361 2.89616 11.1152C2.98975 11.2206 3.10483 11.3067 3.152 11.3067C3.28511 11.3067 5.34898 10.5412 5.44633 10.4557C5.49385 10.4139 5.36938 10.3797 5.16954 10.3797C4.71702 10.3797 3.87119 10.1599 3.41759 9.92423C2.70788 9.55558 2.06908 8.72273 1.81751 7.83816L1.71135 7.46488L1.57806 7.78681ZM33.847 8.59204L33.5631 8.62846L32.5813 11.4275C30.7385 16.6804 30.2537 18.1868 30.2812 18.5739C30.3101 18.9788 30.5687 19.2376 31.0377 19.3311L31.3131 19.3858L33.1057 13.9558L34.8982 8.52585L34.5145 8.54069C34.3036 8.54885 34.0033 8.57192 33.847 8.59204ZM30.8077 9.11761C29.4461 9.58498 29.3906 9.61398 29.2305 9.94267C28.9208 10.5786 28.0978 12.9248 27.8846 13.7805L27.6723 14.6321L27.877 15.3405C28.1706 16.3566 28.8847 17.8805 28.9839 17.7026C29.0265 17.6261 29.8253 15.585 30.7588 13.167C31.6922 10.7489 32.4769 8.73636 32.5022 8.69456C32.5949 8.54207 32.1899 8.64311 30.8077 9.11761ZM9.10016 11.0094L7.46876 11.438L6.90527 12.6469C6.20975 14.1391 5.71755 15.3841 5.57552 16.0106C5.48611 16.4051 5.49248 16.5895 5.61312 17.0873C5.7689 17.7295 6.48262 19.5567 6.57751 19.5559C6.60882 19.5556 7.57402 17.5638 8.72231 15.1297C9.87062 12.6957 10.8256 10.6728 10.8446 10.6346C10.8926 10.5375 10.9139 10.5329 9.10016 11.0094ZM11.3711 12.0714C10.1042 14.9739 8.51399 18.7042 8.18659 19.5413C7.88778 20.3053 7.86082 20.4381 7.95652 20.6733C8.07506 20.9646 8.82037 21.4014 8.95686 21.2596C9.03088 21.1829 13.3265 10.8078 13.3265 10.7059C13.3265 10.6795 13.0253 10.6578 12.6573 10.6578H11.9881L11.3711 12.0714ZM22.0216 11.3975C21.172 11.5183 21.095 11.6264 20.9263 12.9338C20.7713 14.136 20.3764 15.3463 19.7372 16.5782C19.4317 17.1667 19.2925 17.5183 19.3781 17.4848C19.897 17.2822 21.3947 16.9319 22.2217 16.8198C23.3946 16.6608 24.4821 16.6477 25.5175 16.7798C25.9353 16.8333 26.2941 16.8596 26.3148 16.8385C26.3354 16.8176 26.0688 16.416 25.7222 15.946C24.876 14.7989 24.2298 13.5826 23.8851 12.4886C23.699 11.8981 23.5328 11.5366 23.4053 11.4458C23.2026 11.3012 22.7981 11.2871 22.0216 11.3975ZM21.8395 17.5634C20.2479 17.8488 18.6162 18.4514 18.419 18.827C18.366 18.9276 18.0596 19.3416 17.7385 19.7468C17.4171 20.1518 17.1841 20.4827 17.2207 20.4821C17.2572 20.4814 17.6062 20.3773 17.9962 20.2504C18.6989 20.022 19.4557 19.9532 19.6793 20.0977C19.8289 20.1944 19.6263 20.3831 19.0625 20.6714C18.6058 20.9048 18.2123 21.1875 17.6108 21.7137C17.2517 22.0279 17.1595 22.0647 16.7915 22.0403C16.4308 22.0164 16.3582 21.9753 16.2357 21.7258L16.0948 21.4388L15.7805 21.6654C15.6075 21.7901 15.1327 22.0579 14.7252 22.2602L13.9842 22.6285L13.818 23.2012C13.5861 24 13.5863 25.5365 13.8185 26.2303C14.5299 28.3567 16.195 29.7421 18.2375 29.9074C20.0504 30.054 22.0818 28.9151 23.1061 27.1779L23.4492 26.5959L24.2452 27.3632C25.1653 28.25 25.9986 28.7428 27.0344 29.0124C29.6881 29.7035 32.0548 28.4352 33.0574 25.7851C33.401 24.8767 33.4572 23.368 33.1785 22.5303C32.8833 21.6426 32.1439 20.6688 31.7652 20.6688C31.6986 20.6688 31.382 20.5489 31.0616 20.4026C30.0969 19.962 30.1147 19.9621 30.1553 20.3956C30.1802 20.6621 30.1439 20.8231 30.0297 20.9514C29.8206 21.1866 29.2672 21.1908 28.9764 20.9595C28.6933 20.7344 27.5731 20.244 27.1657 20.1669C26.9905 20.1339 26.7652 20.0428 26.665 19.9649C26.4874 19.8265 26.4871 19.8199 26.6543 19.6937C26.9653 19.459 27.7056 19.362 28.4405 19.4598C29.4308 19.5916 29.4393 19.5874 28.9199 19.2313C28.6592 19.0526 28.1839 18.6568 27.8637 18.3519C27.3487 17.8616 27.2096 17.7807 26.6547 17.6501C25.7698 17.4416 22.8147 17.3884 21.8395 17.5634ZM39.2751 18.5574C38.6273 19.2764 37.3676 20.1191 36.4158 20.4696C35.5503 20.7885 34.4241 20.9795 33.6856 20.9328C33.4046 20.915 33.1748 20.9095 33.1749 20.9205C33.1749 20.9314 33.3164 21.2026 33.4894 21.523C34.3116 23.046 34.2771 24.8629 33.3913 26.6898C32.2808 28.9798 30.0024 30.2278 27.6191 29.8514C26.2872 29.6411 25.2489 29.1539 24.124 28.2119L23.5569 27.7371L23.3465 28.0497C22.6623 29.0665 21.1293 30.1145 19.8401 30.4469C19.142 30.627 17.8831 30.6262 17.2009 30.4453C15.453 29.9817 13.849 28.4305 13.2263 26.6011C12.963 25.8277 12.8861 24.2216 13.0733 23.4032L13.2005 22.847L12.0116 22.8386C11.1015 22.8322 10.6565 22.784 10.114 22.633C9.20332 22.3796 8.00267 21.8057 7.26973 21.2731C6.95252 21.0426 6.66955 20.8541 6.64096 20.8541C6.53344 20.8541 6.59453 22.1872 6.73355 22.874C7.32528 25.7975 9.36211 28.3369 12.1693 29.6509C13.6769 30.3567 15.0756 30.7099 16.7863 30.8165C17.6383 30.8696 17.8265 30.9153 18.5162 31.2376C20.9011 32.352 23.5688 32.5598 26.0631 31.8258C26.9456 31.5662 28.3113 30.9355 28.9302 30.5019C29.2395 30.2853 29.5414 30.1787 30.1432 30.0735C31.2993 29.8713 32.3982 29.5334 33.5852 29.0149C35.3829 28.2294 36.4845 27.4907 37.5476 26.3575C38.9358 24.8776 39.7266 23.1461 40.0139 20.9572C40.1524 19.9015 40.034 17.9546 39.8336 17.991C39.8019 17.9968 39.5506 18.2517 39.2751 18.5574ZM22.8404 19.372C22.695 19.6116 22.6902 20.5483 22.8315 21.0992C22.9119 21.4125 22.9776 21.986 22.9776 22.3737C22.9776 22.9875 22.9985 23.0787 23.1394 23.0787C23.408 23.0787 23.6856 22.8199 23.8018 22.4614C23.9377 22.0423 23.8688 21.2867 23.5921 20.1589C23.4026 19.3871 23.3693 19.3225 23.1454 19.2962C23.0126 19.2805 22.8753 19.3147 22.8404 19.372Z" fill="white"/>
</svg>
