<svg xmlns="http://www.w3.org/2000/svg" width="140" height="50" viewBox="0 0 140 50" fill="none">
  <path d="M75.5 25C75.5 38.531 64.531 49.5 51 49.5C37.469 49.5 26.5 38.531 26.5 25C26.5 11.469 37.469 0.5 51 0.5C64.531 0.5 75.5 11.469 75.5 25Z" stroke="white"/>
  <path d="M113.5 25C113.5 38.531 102.531 49.5 89 49.5C75.469 49.5 64.5 38.531 64.5 25C64.5 11.469 75.469 0.5 89 0.5C102.531 0.5 113.5 11.469 113.5 25Z" stroke="white"/>
  <path d="M51 0.5H89V49.5H51V0.5Z" stroke="white"/>
  <path d="M26.5 25L64.5 0.5V49.5L26.5 25Z" stroke="white"/>
  <path d="M113.5 25L75.5 0.5V49.5L113.5 25Z" stroke="white"/>
</svg>
