<svg xmlns="http://www.w3.org/2000/svg" width="250" height="86" viewBox="0 0 250 86" fill="none">
  <g clip-path="url(#clip0_4069_18348)">
    <path d="M94.7871 49.7949V44.069H108.349C110.422 44.069 112.041 43.4794 113.201 42.3007C114.362 41.1218 114.942 39.5679 114.942 37.6465C114.942 35.7251 114.362 34.1405 113.201 32.9922C112.041 31.8439 110.422 31.2698 108.349 31.2698H90.4689V59.2067H84.6162V25.3486H108.349C110.3 25.3486 112.041 25.6358 113.576 26.2098C115.106 26.7839 116.401 27.5916 117.455 28.6326C118.508 29.6738 119.314 30.9368 119.871 32.4257C120.428 33.9146 120.708 35.5911 120.708 37.4551C120.708 39.319 120.428 40.9534 119.871 42.4614C119.314 43.9656 118.508 45.2632 117.455 46.3501C116.401 47.4371 115.11 48.283 113.576 48.8878C112.044 49.4925 110.3 49.7949 108.349 49.7949H94.7871Z" fill="white"></path>
    <path d="M139.913 59.1991V46.3463L121.988 25.3486H129.929L143.075 40.9457L156.262 25.3486H163.787L145.812 46.3463V59.1991H139.913Z" fill="white"></path>
    <path d="M184.125 59.1991V31.2621H168.593V25.3486H205.578V31.2621H190.025V59.1991H184.125Z" fill="white"></path>
    <path d="M242.475 25.3486H248.351V59.1991H242.475V25.3486Z" fill="white"></path>
    <path d="M217.125 59.1991V44.5475H238.985V39.3075H217.125V25.3486H211.248V59.1991H217.125Z" fill="white"></path>
    <path d="M42.4036 34.2083C42.4036 38.8816 38.6238 42.6707 33.9621 42.6707V51.1333C43.2855 51.1333 50.8451 43.555 50.8451 34.2083C50.8451 24.8615 43.2855 17.283 33.9621 17.283C30.8886 17.283 28.0023 18.1059 25.5207 19.5488C20.4732 22.473 17.0791 27.9427 17.0791 34.2083V76.5211L24.6692 84.1302L25.5207 84.9837V34.2083C25.5207 29.5348 29.3004 25.7456 33.9621 25.7456C38.6238 25.7456 42.4036 29.5348 42.4036 34.2083Z" fill="white"></path>
    <path d="M33.9604 0.344727C27.8096 0.344727 22.0445 1.99438 17.0773 4.87648C13.897 6.71751 11.0488 9.06379 8.63585 11.8081C3.38233 17.7751 0.194336 25.6139 0.194336 34.1952V59.5829L8.63585 68.0455V34.1952C8.63585 26.6779 11.8963 19.9224 17.0773 15.2719C19.5132 13.0903 22.3729 11.3679 25.5189 10.258C28.157 9.31641 31.0014 8.80732 33.9604 8.80732C47.9457 8.80732 59.2849 20.1749 59.2849 34.1952C59.2849 48.2153 47.9457 59.5829 33.9604 59.5829V68.0455C52.6111 68.0455 67.7265 52.8886 67.7265 34.1952C67.7265 15.5016 52.6111 0.344727 33.9604 0.344727Z" fill="white"></path>
  </g>
</svg>
