<svg xmlns="http://www.w3.org/2000/svg" width="100" height="100" viewBox="0 0 100 100" fill="none">
  <circle cx="50" cy="50" r="50" fill="#0A0E1A"/>
  <path d="M50 85C69.33 85 85 69.33 85 50C85 30.67 69.33 15 50 15C30.67 15 15 30.67 15 50C15 69.33 30.67 85 50 85Z" stroke="white" stroke-width="2"/>
  <path d="M50 75C63.8071 75 75 63.8071 75 50C75 36.1929 63.8071 25 50 25C36.1929 25 25 36.1929 25 50C25 63.8071 36.1929 75 50 75Z" stroke="white" stroke-width="2"/>
  <path d="M50 65C58.2843 65 65 58.2843 65 50C65 41.7157 58.2843 35 50 35C41.7157 35 35 41.7157 35 50C35 58.2843 41.7157 65 50 65Z" stroke="white" stroke-width="2"/>
  <path d="M50 55C52.7614 55 55 52.7614 55 50C55 47.2386 52.7614 45 50 45C47.2386 45 45 47.2386 45 50C45 52.7614 47.2386 55 50 55Z" stroke="white" stroke-width="2"/>
  <path d="M50 50C50 50 50 50 50 50C50 50 50 50 50 50C50 50 50 50 50 50C50 50 50 50 50 50Z" stroke="white" stroke-width="2"/>
</svg>
