<svg xmlns="http://www.w3.org/2000/svg" width="48" height="22" viewBox="0 0 48 22" fill="none">
  <path d="M15.7071 12.4251L14.4577 12.096L14.4566 12.1005L14.4555 12.1048L15.7071 12.4251ZM13.7885 16.8861L12.7026 16.1902L12.7015 16.1919L12.7004 16.1937L13.7885 16.8861ZM12.3243 18.6029L13.1849 19.5604L13.1858 19.5596L12.3243 18.6029ZM10.4814 19.7432L9.99378 18.5549L9.98758 18.5574L9.98124 18.56L10.4814 19.7432ZM5.6598 19.6931L6.1822 18.5193L6.17894 18.5179L6.17567 18.5165L5.6598 19.6931ZM3.81696 18.44L2.88134 19.3253L2.88486 19.3289L2.88839 19.3326L3.81696 18.44ZM2.55474 16.5854L1.37997 17.1205L1.38118 17.1231L1.38241 17.1258L2.55474 16.5854ZM1.78477 14.3423L0.525589 14.6318L0.525925 14.6333L0.526274 14.6347L1.78477 14.3423ZM1.39349 11.9238L0.105172 12.0272L0.105741 12.0341L0.106387 12.0412L1.39349 11.9238ZM1.97411 2.55054L2.02378 1.2683L0.908782 1.22572L0.703633 2.31461L1.97411 2.55054ZM7.88132 2.7761L9.15513 2.99358L9.40518 1.55015L7.93099 1.49386L7.88132 2.7761ZM7.28808 6.73593L6.00567 6.57579L6.00523 6.57925L6.0048 6.58273L7.28808 6.73593ZM7.06088 11.3599L5.76892 11.3977L5.76951 11.4175L5.77073 11.4376L7.06088 11.3599ZM7.13661 12.2997L5.84991 12.4214L5.85005 12.4229L5.8502 12.4243L7.13661 12.2997ZM7.27545 13.3649L5.99899 13.5665L6.00165 13.583L6.00474 13.5996L7.27545 13.3649ZM7.9318 15.0941L6.91394 15.8851L6.92447 15.8983L6.93532 15.9114L7.9318 15.0941ZM9.14354 15.0441L10.1274 15.8761L10.1349 15.8674L10.1423 15.8585L9.14354 15.0441ZM9.64843 14.1167L8.44479 13.6491L8.44032 13.6606L8.43605 13.672L9.64843 14.1167ZM10.4941 9.59298L9.20708 9.47506L9.20617 9.48481L9.20541 9.49456L10.4941 9.59298ZM10.6077 8.07677L9.31849 7.98528L9.31766 7.9967L9.31706 8.00812L10.6077 8.07677ZM10.6456 4.09186L9.35349 4.12476L9.35371 4.1333L9.35405 4.14182L10.6456 4.09186ZM10.5572 2.14954V0.866355H9.17806L9.26744 2.23269L10.5572 2.14954ZM16.4644 2.14954L17.7521 2.03838L17.6495 0.866355H16.4644V2.14954ZM15.3233 5.65826C15.3233 6.23689 15.2958 6.88361 15.2391 7.60021L17.8161 7.80144C17.8771 7.03101 17.9084 6.31603 17.9084 5.65826H15.3233ZM15.2391 7.60021C15.1834 8.30325 15.0915 9.03416 14.9627 9.79342L17.5118 10.2197C17.6523 9.39165 17.7539 8.58542 17.8161 7.80144L15.2391 7.60021ZM14.9627 9.79342C14.835 10.5461 14.6669 11.3136 14.4577 12.096L16.9564 12.7541C17.1848 11.8991 17.3702 11.0543 17.5118 10.2197L14.9627 9.79342ZM14.4555 12.1048C14.2605 12.8556 14.0156 13.5769 13.7211 14.2693L16.1026 15.2675C16.4477 14.4561 16.733 13.6151 16.9588 12.7453L14.4555 12.1048ZM13.7211 14.2693C13.4294 14.9553 13.0896 15.5951 12.7026 16.1902L14.8745 17.5821C15.3457 16.8572 15.7549 16.0853 16.1026 15.2675L13.7211 14.2693ZM12.7004 16.1937C12.3398 16.752 11.927 17.2344 11.463 17.6463L13.1858 19.5596C13.8324 18.9856 14.3957 18.3235 14.8767 17.5786L12.7004 16.1937ZM11.4638 17.6455C11.0274 18.0321 10.5394 18.3343 9.99378 18.5549L10.9691 20.9316C11.7869 20.6008 12.5274 20.1428 13.1849 19.5604L11.4638 17.6455ZM9.98124 18.56C9.47694 18.7702 8.89253 18.8861 8.2095 18.8861V21.4524C9.19259 21.4524 10.1229 21.2843 10.9818 20.9265L9.98124 18.56ZM8.2095 18.8861C7.37235 18.8861 6.70759 18.7499 6.1822 18.5193L5.13742 20.8668C6.05937 21.2713 7.09441 21.4524 8.2095 21.4524V18.8861ZM6.17567 18.5165C5.60637 18.2705 5.13465 17.9464 4.74553 17.5474L2.88839 19.3326C3.52587 19.9863 4.28272 20.4975 5.14393 20.8696L6.17567 18.5165ZM4.75257 17.5546C4.34116 17.1262 3.99867 16.6259 3.72706 16.045L1.38241 17.1258C1.76716 17.9484 2.26614 18.6845 2.88134 19.3253L4.75257 17.5546ZM3.72949 16.0502C3.43847 15.4206 3.20937 14.7543 3.04328 14.0499L0.526274 14.6347C0.73044 15.5008 1.01464 16.33 1.37997 17.1205L3.72949 16.0502ZM3.04397 14.0528C2.87219 13.3164 2.75102 12.5678 2.68059 11.8065L0.106387 12.0412C0.187428 12.9173 0.32711 13.7809 0.525589 14.6318L3.04397 14.0528ZM2.6818 11.8205C2.61704 11.0248 2.58503 10.2656 2.58503 9.54294H0C0 10.3406 0.0352986 11.1689 0.105172 12.0272L2.6818 11.8205ZM2.58503 9.54294C2.58503 8.41617 2.64178 7.2937 2.75523 6.17531L0.183214 5.91813C0.0610584 7.12217 0 8.33045 0 9.54294H2.58503ZM2.75523 6.17531C2.86937 5.04221 3.03253 3.91202 3.24459 2.78646L0.703633 2.31461C0.478128 3.51149 0.304698 4.71209 0.183214 5.91813L2.75523 6.17531ZM1.92444 3.83277L7.83165 4.05833L7.93099 1.49386L2.02378 1.2683L1.92444 3.83277ZM6.6075 2.55862C6.37698 3.88936 6.17637 5.22843 6.00567 6.57579L8.57049 6.89607C8.73637 5.58684 8.93125 4.28601 9.15513 2.99358L6.6075 2.55862ZM6.0048 6.58273C5.83873 7.95379 5.75573 9.33326 5.75573 10.7208H8.34077C8.34077 9.43515 8.41766 8.158 8.57134 6.88913L6.0048 6.58273ZM5.75573 10.7208C5.75573 10.8825 5.76041 11.1109 5.76892 11.3977L8.35283 11.3222C8.3445 11.0409 8.34077 10.8433 8.34077 10.7208H5.75573ZM5.77073 11.4376C5.78865 11.7313 5.81521 12.0596 5.84991 12.4214L8.42331 12.1781C8.39068 11.838 8.36675 11.54 8.35102 11.2823L5.77073 11.4376ZM5.8502 12.4243C5.88659 12.7947 5.93631 13.1754 5.99899 13.5665L8.55191 13.1633C8.49679 12.8192 8.45395 12.4899 8.42301 12.1751L5.8502 12.4243ZM6.00474 13.5996C6.0831 14.0178 6.18856 14.416 6.32484 14.7907L8.7562 13.919C8.67369 13.6922 8.60244 13.4305 8.54616 13.1302L6.00474 13.5996ZM6.32484 14.7907C6.46719 15.182 6.65641 15.5584 6.91394 15.8851L8.94967 14.3033C8.90428 14.2458 8.83265 14.1292 8.7562 13.919L6.32484 14.7907ZM6.93532 15.9114C7.28821 16.3355 7.81575 16.6656 8.48718 16.6656V14.0993C8.589 14.0993 8.69573 14.1246 8.78932 14.1732C8.87702 14.2186 8.92014 14.2671 8.92829 14.277L6.93532 15.9114ZM8.48718 16.6656C9.19336 16.6656 9.74818 16.3182 10.1274 15.8761L8.15962 14.2119C8.14888 14.2245 8.17224 14.1932 8.23868 14.1589C8.31134 14.1216 8.39968 14.0993 8.48718 14.0993V16.6656ZM10.1423 15.8585C10.4533 15.4828 10.6842 15.0359 10.8608 14.5616L8.43605 13.672C8.3265 13.9663 8.22093 14.1375 8.14478 14.2295L10.1423 15.8585ZM10.8521 14.5843C11.0337 14.1234 11.1822 13.6128 11.303 13.0601L8.77651 12.5167C8.67835 12.9665 8.56601 13.3416 8.44479 13.6491L10.8521 14.5843ZM11.303 13.0601C11.4197 12.5252 11.5178 11.971 11.5977 11.398L9.03711 11.0461C8.96554 11.5592 8.87854 12.0493 8.77651 12.5167L11.303 13.0601ZM11.5977 11.398C11.677 10.8295 11.7387 10.2606 11.7829 9.6914L9.20541 9.49456C9.16535 10.0116 9.10927 10.5287 9.03711 11.0461L11.5977 11.398ZM11.7812 9.71091C11.8329 9.15413 11.8721 8.63213 11.8984 8.14542L9.31706 8.00812C9.29282 8.45711 9.25628 8.94587 9.20708 9.47506L11.7812 9.71091ZM11.897 8.16813C11.9317 7.68564 11.954 7.25087 11.9631 6.86601L9.37867 6.80635C9.37085 7.13994 9.35109 7.53222 9.31849 7.98528L11.897 8.16813ZM11.9631 6.86601C11.9715 6.50485 11.976 6.22523 11.976 6.03419H9.39094C9.39094 6.19401 9.38703 6.44905 9.37867 6.80635L11.9631 6.86601ZM11.976 6.03419C11.976 5.36612 11.9631 4.70202 11.9371 4.04191L9.35405 4.14182C9.37863 4.76824 9.39094 5.39903 9.39094 6.03419H11.976ZM11.9377 4.05897C11.9204 3.39078 11.8902 2.72658 11.847 2.06639L9.26744 2.23269C9.3084 2.85903 9.33709 3.48971 9.35349 4.12476L11.9377 4.05897ZM10.5572 3.43273H16.4644V0.866355H10.5572V3.43273ZM15.1768 2.2607C15.2745 3.37569 15.3233 4.50815 15.3233 5.65826H17.9084C17.9084 4.43579 17.8564 3.22912 17.7521 2.03838L15.1768 2.2607Z" fill="white"></path>
  <path d="M36.6014 1.62324L37.8921 1.69128L37.967 0.293362L36.5577 0.340788L36.6014 1.62324ZM35.6926 18.6154L35.8105 19.8932L36.924 19.792L36.9833 18.6835L35.6926 18.6154ZM29.0786 19.2169L27.8727 19.6787L28.2241 20.5832L29.1964 20.4948L29.0786 19.2169ZM25.5443 10.1193L26.7504 9.65753L24.2541 10.0431L25.5443 10.1193ZM24.989 19.3924V20.6756H26.207L26.2792 19.4685L24.989 19.3924ZM19.309 19.3924L18.017 19.3598L17.9832 20.6756H19.309V19.3924ZM19.7634 1.62324L19.7014 0.341532L18.5018 0.398699L18.4713 1.59068L19.7634 1.62324ZM26.0745 1.32249L27.2394 0.766691L26.8684 0L26.0126 0.0407795L26.0745 1.32249ZM30.4418 10.3449L29.2768 10.9007L31.7339 10.3751L30.4418 10.3449ZM30.6438 1.82374L30.6 0.541286L29.3802 0.582335L29.3515 1.79355L30.6438 1.82374ZM35.3107 1.5552L34.4019 18.5474L36.9833 18.6835L37.8921 1.69128L35.3107 1.5552ZM35.5748 17.3377L28.9607 17.9391L29.1964 20.4948L35.8105 19.8932L35.5748 17.3377ZM30.2845 18.7552L26.7504 9.65753L24.3384 10.581L27.8727 19.6787L30.2845 18.7552ZM24.2541 10.0431L23.6987 19.3162L26.2792 19.4685L26.8346 10.1954L24.2541 10.0431ZM24.989 18.1092H19.309V20.6756H24.989V18.1092ZM20.6011 19.4249L21.0555 1.6558L18.4713 1.59068L18.017 19.3598L20.6011 19.4249ZM19.8253 2.90495L26.1364 2.6042L26.0126 0.0407795L19.7014 0.341532L19.8253 2.90495ZM24.9096 1.87829L29.2768 10.9007L31.6067 9.78905L27.2394 0.766691L24.9096 1.87829ZM31.7339 10.3751L31.9359 1.85392L29.3515 1.79355L29.1497 10.3146L31.7339 10.3751ZM30.6875 3.10618L36.6452 2.90568L36.5577 0.340788L30.6 0.541286L30.6875 3.10618Z" fill="white"></path>
  <path d="M46.2621 1.94904L47.5503 2.05234L47.6692 0.590548L46.1941 0.667629L46.2621 1.94904ZM44.8735 19.0164L44.9409 20.2978L46.0708 20.2394L46.1619 19.1197L44.8735 19.0164ZM39.5469 19.2921H38.2544V20.6439L39.6143 20.5736L39.5469 19.2921ZM39.5469 2.29992L39.4791 1.0185L38.2544 1.0825V2.29992H39.5469ZM44.9737 1.84575L43.5853 18.9131L46.1619 19.1197L47.5503 2.05234L44.9737 1.84575ZM44.8063 17.7349L39.4797 18.0107L39.6143 20.5736L44.9409 20.2978L44.8063 17.7349ZM40.8394 19.2921V2.29992H38.2544V19.2921H40.8394ZM39.6149 3.58133L46.3299 3.23046L46.1941 0.667629L39.4791 1.0185L39.6149 3.58133Z" fill="white"></path>
  <path d="M16.6124 5.65804C16.6124 6.27624 16.5829 6.95709 16.5241 7.7006C16.4652 8.44418 16.3684 9.21268 16.2338 10.0063C16.0991 10.8 15.9225 11.6061 15.7036 12.4249C15.4932 13.2352 15.2282 14.0163 14.9085 14.7681C14.5887 15.5201 14.2143 16.2259 13.785 16.8859C13.3643 17.5375 12.8763 18.1098 12.3209 18.6026C11.7739 19.0872 11.1597 19.4673 10.478 19.743C9.79645 20.027 9.03911 20.169 8.20604 20.169C7.22992 20.169 6.38003 20.0103 5.65635 19.6928C4.9411 19.3837 4.32681 18.966 3.8135 18.4398C3.30021 17.9051 2.87945 17.2869 2.55128 16.5852C2.2231 15.8751 1.96645 15.1274 1.78132 14.3421C1.5962 13.5484 1.46576 12.7423 1.39003 11.9235C1.32272 11.0965 1.28906 10.3029 1.28906 9.54271C1.28906 8.37309 1.34796 7.20771 1.46576 6.04649C1.58358 4.87692 1.75187 3.71153 1.97066 2.55031L7.87786 2.77587C7.65066 4.08747 7.45292 5.4074 7.28462 6.73571C7.12474 8.05563 7.0448 9.38398 7.0448 10.7206C7.0448 10.8626 7.04901 11.0756 7.05742 11.3597C7.07425 11.6353 7.09949 11.9487 7.13315 12.2995C7.16681 12.642 7.21309 12.997 7.27199 13.3647C7.33932 13.7238 7.42766 14.0539 7.53706 14.3547C7.64646 14.6553 7.77689 14.9018 7.92835 15.0939C8.08823 15.2861 8.27336 15.3822 8.48373 15.3822C8.72776 15.3822 8.94654 15.2694 9.14008 15.0439C9.33362 14.8099 9.50192 14.5008 9.64498 14.1165C9.79645 13.7322 9.92686 13.2895 10.0362 12.7883C10.1457 12.2869 10.2382 11.7648 10.314 11.2219C10.3897 10.6788 10.4487 10.1358 10.4907 9.59276C10.5412 9.04984 10.5791 8.54439 10.6043 8.07654C10.6379 7.60871 10.6589 7.19518 10.6673 6.83596C10.6757 6.47673 10.68 6.20939 10.68 6.03397C10.68 5.38234 10.6673 4.73491 10.6421 4.09164C10.6253 3.44002 10.5959 2.79258 10.5537 2.14932H16.4609C16.562 3.30218 16.6124 4.47176 16.6124 5.65804ZM36.5979 1.62302L35.6892 18.6152L29.0751 19.2167L25.5409 10.1191L24.9856 19.3922H19.3055L19.7599 1.62302L26.071 1.32227L30.4383 10.3447L30.6403 1.82352L36.5979 1.62302ZM46.2586 1.94882L44.8701 19.0162L39.5435 19.2918V2.29969L46.2586 1.94882Z" fill="white"></path>
</svg>
